STARTFONT 2.1
FONT -2drealms-bitrain-Bold-R-Normal--13-130-72-72-C-70-ISO10646-1
SIZE 13 72 72
FONTBOUNDINGBOX 7 13 0 -3
STARTPROPERTIES 27
POINT_SIZE 130
PIXEL_SIZE 13
RESOLUTION_X 72
RESOLUTION_Y 72
FONT_ASCENT 10
FONT_DESCENT 3
AVERAGE_WIDTH 70
SPACING "C"
FULL_NAME "bitrain"
FONTNAME_REGISTRY "bitrain"
FAMILY_NAME "bitrain"
COPYRIGHT "MIT License Copyright (C) 2021, Bobby Veli <2drealm@gmail.com>"
CHARSET_REGISTRY "ISO10646"
CHARSET_ENCODING "1"
FOUNDRY "2drealms"
WEIGHT_NAME "Bold"
SLANT "R"
SETWIDTH_NAME "Normal"
FACE_NAME "bitrain"
CAP_HEIGHT 8
X_HEIGHT 6
RESOLUTION 72
_GBDFED_INFO "Edited with gbdfed 1.6."
AVG_LOWERCASE_WIDTH 70
AVG_UPPERCASE_WIDTH "70"
FIGURE_WIDTH 7
QUAD_WIDTH 7
ENDPROPERTIES
CHARS 1348
STARTCHAR char0
ENCODING 0
SWIDTH 538 0
DWIDTH 7 0
BBX 7 13 0 -3
BITMAP
AA
00
82
00
82
00
82
00
82
00
82
00
AA
ENDCHAR
STARTCHAR uni0001
ENCODING 1
SWIDTH 538 0
DWIDTH 7 0
BBX 7 13 0 -3
BITMAP
00
00
00
38
28
28
28
28
38
00
00
00
00
ENDCHAR
STARTCHAR uni0002
ENCODING 2
SWIDTH 538 0
DWIDTH 7 0
BBX 7 13 0 -3
BITMAP
00
00
00
38
28
28
28
28
38
00
00
00
00
ENDCHAR
STARTCHAR uni0003
ENCODING 3
SWIDTH 538 0
DWIDTH 7 0
BBX 7 13 0 -3
BITMAP
00
00
00
38
28
28
28
28
38
00
00
00
00
ENDCHAR
STARTCHAR uni0004
ENCODING 4
SWIDTH 538 0
DWIDTH 7 0
BBX 7 13 0 -3
BITMAP
00
00
00
38
28
28
28
28
38
00
00
00
00
ENDCHAR
STARTCHAR uni0005
ENCODING 5
SWIDTH 538 0
DWIDTH 7 0
BBX 7 13 0 -3
BITMAP
00
00
00
38
28
28
28
28
38
00
00
00
00
ENDCHAR
STARTCHAR uni0006
ENCODING 6
SWIDTH 538 0
DWIDTH 7 0
BBX 7 13 0 -3
BITMAP
00
00
00
38
28
28
28
28
38
00
00
00
00
ENDCHAR
STARTCHAR uni0007
ENCODING 7
SWIDTH 538 0
DWIDTH 7 0
BBX 7 13 0 -3
BITMAP
00
00
00
38
28
28
28
28
38
00
00
00
00
ENDCHAR
STARTCHAR uni0008
ENCODING 8
SWIDTH 538 0
DWIDTH 7 0
BBX 7 13 0 -3
BITMAP
00
00
00
38
28
28
28
28
38
00
00
00
00
ENDCHAR
STARTCHAR uni0009
ENCODING 9
SWIDTH 538 0
DWIDTH 7 0
BBX 7 13 0 -3
BITMAP
00
00
00
38
28
28
28
28
38
00
00
00
00
ENDCHAR
STARTCHAR uni000A
ENCODING 10
SWIDTH 538 0
DWIDTH 7 0
BBX 7 13 0 -3
BITMAP
00
00
00
38
28
28
28
28
38
00
00
00
00
ENDCHAR
STARTCHAR uni000B
ENCODING 11
SWIDTH 538 0
DWIDTH 7 0
BBX 7 13 0 -3
BITMAP
00
00
00
38
28
28
28
28
38
00
00
00
00
ENDCHAR
STARTCHAR uni000C
ENCODING 12
SWIDTH 538 0
DWIDTH 7 0
BBX 7 13 0 -3
BITMAP
00
00
00
38
28
28
28
28
38
00
00
00
00
ENDCHAR
STARTCHAR uni000D
ENCODING 13
SWIDTH 538 0
DWIDTH 7 0
BBX 7 13 0 -3
BITMAP
00
00
00
38
28
28
28
28
38
00
00
00
00
ENDCHAR
STARTCHAR char14
ENCODING 14
SWIDTH 538 0
DWIDTH 7 0
BBX 7 13 0 -3
BITMAP
10
10
10
10
10
10
F0
00
00
00
00
00
00
ENDCHAR
STARTCHAR char15
ENCODING 15
SWIDTH 538 0
DWIDTH 7 0
BBX 7 13 0 -3
BITMAP
10
10
10
10
10
10
1E
00
00
00
00
00
00
ENDCHAR
STARTCHAR char16
ENCODING 16
SWIDTH 538 0
DWIDTH 7 0
BBX 7 13 0 -3
BITMAP
00
00
00
00
00
00
1E
10
10
10
10
10
10
ENDCHAR
STARTCHAR char17
ENCODING 17
SWIDTH 538 0
DWIDTH 7 0
BBX 7 13 0 -3
BITMAP
00
00
00
00
00
00
F0
10
10
10
10
10
10
ENDCHAR
STARTCHAR char18
ENCODING 18
SWIDTH 538 0
DWIDTH 7 0
BBX 7 13 0 -3
BITMAP
00
00
00
00
00
00
FE
00
00
00
00
00
00
ENDCHAR
STARTCHAR char19
ENCODING 19
SWIDTH 538 0
DWIDTH 7 0
BBX 7 13 0 -3
BITMAP
10
10
10
10
10
10
10
10
10
10
10
10
10
ENDCHAR
STARTCHAR char20
ENCODING 20
SWIDTH 538 0
DWIDTH 7 0
BBX 7 13 0 -3
BITMAP
10
10
10
10
10
10
F0
10
10
10
10
10
10
ENDCHAR
STARTCHAR char21
ENCODING 21
SWIDTH 538 0
DWIDTH 7 0
BBX 7 13 0 -3
BITMAP
10
10
10
10
10
10
FE
00
00
00
00
00
00
ENDCHAR
STARTCHAR char22
ENCODING 22
SWIDTH 538 0
DWIDTH 7 0
BBX 7 13 0 -3
BITMAP
10
10
10
10
10
10
1E
10
10
10
10
10
10
ENDCHAR
STARTCHAR char23
ENCODING 23
SWIDTH 538 0
DWIDTH 7 0
BBX 7 13 0 -3
BITMAP
00
00
00
00
00
00
FE
10
10
10
10
10
10
ENDCHAR
STARTCHAR char24
ENCODING 24
SWIDTH 538 0
DWIDTH 7 0
BBX 7 13 0 -3
BITMAP
10
10
10
10
10
10
FE
10
10
10
10
10
10
ENDCHAR
STARTCHAR char25
ENCODING 25
SWIDTH 538 0
DWIDTH 7 0
BBX 7 13 0 -3
BITMAP
AA
54
AA
54
AA
54
AA
54
AA
54
AA
54
AA
ENDCHAR
STARTCHAR char26
ENCODING 26
SWIDTH 538 0
DWIDTH 7 0
BBX 7 13 0 -3
BITMAP
00
00
0C
18
7C
10
10
7C
30
60
00
00
00
ENDCHAR
STARTCHAR char27
ENCODING 27
SWIDTH 538 0
DWIDTH 7 0
BBX 7 13 0 -3
BITMAP
00
00
00
0C
3C
F0
3C
0C
FC
FC
00
00
00
ENDCHAR
STARTCHAR char28
ENCODING 28
SWIDTH 538 0
DWIDTH 7 0
BBX 7 13 0 -3
BITMAP
00
00
00
00
7E
34
34
34
34
34
00
00
00
ENDCHAR
STARTCHAR char29
ENCODING 29
SWIDTH 538 0
DWIDTH 7 0
BBX 7 13 0 -3
BITMAP
00
00
00
60
78
1E
78
60
7E
7E
00
00
00
ENDCHAR
STARTCHAR char30
ENCODING 30
SWIDTH 538 0
DWIDTH 7 0
BBX 7 13 0 -3
BITMAP
00
00
18
34
30
78
30
30
34
78
00
00
00
ENDCHAR
STARTCHAR char31
ENCODING 31
SWIDTH 538 0
DWIDTH 7 0
BBX 7 13 0 -3
BITMAP
00
00
00
00
00
00
38
00
00
00
00
00
00
ENDCHAR
STARTCHAR space
ENCODING 32
SWIDTH 538 0
DWIDTH 7 0
BBX 7 13 0 -3
BITMAP
00
00
00
00
00
00
00
00
00
00
00
00
00
ENDCHAR
STARTCHAR char33
ENCODING 33
SWIDTH 538 0
DWIDTH 7 0
BBX 7 13 0 -3
BITMAP
00
18
18
18
18
18
18
00
18
18
00
00
00
ENDCHAR
STARTCHAR char34
ENCODING 34
SWIDTH 538 0
DWIDTH 7 0
BBX 7 13 0 -3
BITMAP
00
6C
6C
6C
6C
00
00
00
00
00
00
00
00
ENDCHAR
STARTCHAR numbersign
ENCODING 35
SWIDTH 538 0
DWIDTH 7 0
BBX 7 13 0 -3
BITMAP
00
00
6C
6C
FE
6C
6C
FE
6C
6C
00
00
00
ENDCHAR
STARTCHAR dollar
ENCODING 36
SWIDTH 538 0
DWIDTH 7 0
BBX 7 13 0 -3
BITMAP
00
10
38
7C
50
78
3C
14
7C
38
10
00
00
ENDCHAR
STARTCHAR percent
ENCODING 37
SWIDTH 538 0
DWIDTH 7 0
BBX 7 13 0 -3
BITMAP
00
00
64
DC
68
18
30
2C
76
4C
00
00
00
ENDCHAR
STARTCHAR ampersand
ENCODING 38
SWIDTH 538 0
DWIDTH 7 0
BBX 7 13 0 -3
BITMAP
00
00
78
6C
60
70
74
DC
CC
76
00
00
00
ENDCHAR
STARTCHAR char39
ENCODING 39
SWIDTH 538 0
DWIDTH 7 0
BBX 7 13 0 -3
BITMAP
00
18
18
18
18
00
00
00
00
00
00
00
00
ENDCHAR
STARTCHAR parenleft
ENCODING 40
SWIDTH 538 0
DWIDTH 7 0
BBX 7 13 0 -3
BITMAP
00
0C
18
30
30
30
30
30
30
18
0C
00
00
ENDCHAR
STARTCHAR parenright
ENCODING 41
SWIDTH 538 0
DWIDTH 7 0
BBX 7 13 0 -3
BITMAP
00
60
30
18
18
18
18
18
18
30
60
00
00
ENDCHAR
STARTCHAR asterisk
ENCODING 42
SWIDTH 538 0
DWIDTH 7 0
BBX 7 13 0 -3
BITMAP
00
00
00
28
38
7C
7C
38
28
00
00
00
00
ENDCHAR
STARTCHAR char43
ENCODING 43
SWIDTH 538 0
DWIDTH 7 0
BBX 7 13 0 -3
BITMAP
00
00
00
00
18
18
7E
18
18
00
00
00
00
ENDCHAR
STARTCHAR comma
ENCODING 44
SWIDTH 538 0
DWIDTH 7 0
BBX 7 13 0 -3
BITMAP
00
00
00
00
00
00
00
00
30
30
10
20
00
ENDCHAR
STARTCHAR char45
ENCODING 45
SWIDTH 538 0
DWIDTH 7 0
BBX 7 13 0 -3
BITMAP
00
00
00
00
00
00
7C
00
00
00
00
00
00
ENDCHAR
STARTCHAR period
ENCODING 46
SWIDTH 538 0
DWIDTH 7 0
BBX 7 13 0 -3
BITMAP
00
00
00
00
00
00
00
00
30
30
00
00
00
ENDCHAR
STARTCHAR char47
ENCODING 47
SWIDTH 538 0
DWIDTH 7 0
BBX 7 13 0 -3
BITMAP
00
06
06
0C
0C
18
18
30
30
60
60
00
00
ENDCHAR
STARTCHAR char48
ENCODING 48
SWIDTH 538 0
DWIDTH 7 0
BBX 7 13 0 -3
BITMAP
00
00
3E
66
56
56
56
66
66
3C
00
00
00
ENDCHAR
STARTCHAR char49
ENCODING 49
SWIDTH 538 0
DWIDTH 7 0
BBX 7 13 0 -3
BITMAP
00
00
0C
1C
2C
0C
0C
0C
0C
3C
00
00
00
ENDCHAR
STARTCHAR char50
ENCODING 50
SWIDTH 538 0
DWIDTH 7 0
BBX 7 13 0 -3
BITMAP
00
00
7C
06
06
3E
60
60
60
7E
00
00
00
ENDCHAR
STARTCHAR char51
ENCODING 51
SWIDTH 538 0
DWIDTH 7 0
BBX 7 13 0 -3
BITMAP
00
00
7C
06
06
3E
06
06
06
7C
00
00
00
ENDCHAR
STARTCHAR char52
ENCODING 52
SWIDTH 538 0
DWIDTH 7 0
BBX 7 13 0 -3
BITMAP
00
00
66
66
66
3E
06
06
06
06
00
00
00
ENDCHAR
STARTCHAR char53
ENCODING 53
SWIDTH 538 0
DWIDTH 7 0
BBX 7 13 0 -3
BITMAP
00
00
7E
60
60
3E
06
06
66
3C
00
00
00
ENDCHAR
STARTCHAR char54
ENCODING 54
SWIDTH 538 0
DWIDTH 7 0
BBX 7 13 0 -3
BITMAP
00
00
3C
66
60
7C
66
66
66
3C
00
00
00
ENDCHAR
STARTCHAR char55
ENCODING 55
SWIDTH 538 0
DWIDTH 7 0
BBX 7 13 0 -3
BITMAP
00
00
7C
06
0C
18
30
30
30
30
00
00
00
ENDCHAR
STARTCHAR char56
ENCODING 56
SWIDTH 538 0
DWIDTH 7 0
BBX 7 13 0 -3
BITMAP
00
00
3C
66
66
7E
66
66
66
3C
00
00
00
ENDCHAR
STARTCHAR char57
ENCODING 57
SWIDTH 538 0
DWIDTH 7 0
BBX 7 13 0 -3
BITMAP
00
00
3C
66
66
7E
06
06
66
3C
00
00
00
ENDCHAR
STARTCHAR char58
ENCODING 58
SWIDTH 538 0
DWIDTH 7 0
BBX 7 13 0 -3
BITMAP
00
00
00
30
30
00
00
00
30
30
00
00
00
ENDCHAR
STARTCHAR char59
ENCODING 59
SWIDTH 538 0
DWIDTH 7 0
BBX 7 13 0 -3
BITMAP
00
00
00
30
30
00
00
00
30
30
10
20
00
ENDCHAR
STARTCHAR char60
ENCODING 60
SWIDTH 538 0
DWIDTH 7 0
BBX 7 13 0 -3
BITMAP
00
00
06
0C
18
30
60
30
18
0C
06
00
00
ENDCHAR
STARTCHAR char61
ENCODING 61
SWIDTH 538 0
DWIDTH 7 0
BBX 7 13 0 -3
BITMAP
00
00
00
00
7C
00
00
00
7C
00
00
00
00
ENDCHAR
STARTCHAR char62
ENCODING 62
SWIDTH 538 0
DWIDTH 7 0
BBX 7 13 0 -3
BITMAP
00
00
60
30
18
0C
06
0C
18
30
60
00
00
ENDCHAR
STARTCHAR char63
ENCODING 63
SWIDTH 538 0
DWIDTH 7 0
BBX 7 13 0 -3
BITMAP
00
00
3E
66
06
0C
18
00
18
18
00
00
00
ENDCHAR
STARTCHAR at
ENCODING 64
SWIDTH 538 0
DWIDTH 7 0
BBX 7 13 0 -3
BITMAP
00
00
7C
66
7E
76
76
7C
60
3C
00
00
00
ENDCHAR
STARTCHAR A
ENCODING 65
SWIDTH 538 0
DWIDTH 7 0
BBX 7 13 0 -3
BITMAP
00
00
7C
66
66
7E
66
66
66
66
00
00
00
ENDCHAR
STARTCHAR B
ENCODING 66
SWIDTH 538 0
DWIDTH 7 0
BBX 7 13 0 -3
BITMAP
00
00
78
6C
6C
7C
66
66
66
7C
00
00
00
ENDCHAR
STARTCHAR C
ENCODING 67
SWIDTH 538 0
DWIDTH 7 0
BBX 7 13 0 -3
BITMAP
00
00
3C
66
60
60
60
60
66
7C
00
00
00
ENDCHAR
STARTCHAR D
ENCODING 68
SWIDTH 538 0
DWIDTH 7 0
BBX 7 13 0 -3
BITMAP
00
00
7C
66
66
66
66
66
66
7C
00
00
00
ENDCHAR
STARTCHAR E
ENCODING 69
SWIDTH 538 0
DWIDTH 7 0
BBX 7 13 0 -3
BITMAP
00
00
3E
60
60
7C
60
60
60
7E
00
00
00
ENDCHAR
STARTCHAR F
ENCODING 70
SWIDTH 538 0
DWIDTH 7 0
BBX 7 13 0 -3
BITMAP
00
00
7E
60
60
7C
60
60
60
60
00
00
00
ENDCHAR
STARTCHAR char71
ENCODING 71
SWIDTH 538 0
DWIDTH 7 0
BBX 7 13 0 -3
BITMAP
00
00
3C
60
60
6E
66
66
66
7C
00
00
00
ENDCHAR
STARTCHAR H
ENCODING 72
SWIDTH 538 0
DWIDTH 7 0
BBX 7 13 0 -3
BITMAP
00
00
66
66
66
7E
66
66
66
66
00
00
00
ENDCHAR
STARTCHAR I
ENCODING 73
SWIDTH 538 0
DWIDTH 7 0
BBX 7 13 0 -3
BITMAP
00
00
3C
18
18
18
18
18
18
3C
00
00
00
ENDCHAR
STARTCHAR J
ENCODING 74
SWIDTH 538 0
DWIDTH 7 0
BBX 7 13 0 -3
BITMAP
00
00
1C
0C
0C
0C
0C
CC
CC
78
00
00
00
ENDCHAR
STARTCHAR K
ENCODING 75
SWIDTH 538 0
DWIDTH 7 0
BBX 7 13 0 -3
BITMAP
00
00
66
6C
78
78
6C
66
66
66
00
00
00
ENDCHAR
STARTCHAR L
ENCODING 76
SWIDTH 538 0
DWIDTH 7 0
BBX 7 13 0 -3
BITMAP
00
00
60
60
60
60
60
62
66
7C
00
00
00
ENDCHAR
STARTCHAR M
ENCODING 77
SWIDTH 538 0
DWIDTH 7 0
BBX 7 13 0 -3
BITMAP
00
00
7C
7E
56
56
56
66
66
66
00
00
00
ENDCHAR
STARTCHAR N
ENCODING 78
SWIDTH 538 0
DWIDTH 7 0
BBX 7 13 0 -3
BITMAP
00
00
66
76
6E
66
66
66
66
66
00
00
00
ENDCHAR
STARTCHAR O
ENCODING 79
SWIDTH 538 0
DWIDTH 7 0
BBX 7 13 0 -3
BITMAP
00
00
3E
66
66
66
66
66
66
3C
00
00
00
ENDCHAR
STARTCHAR P
ENCODING 80
SWIDTH 538 0
DWIDTH 7 0
BBX 7 13 0 -3
BITMAP
00
00
7C
66
66
66
7C
60
60
60
00
00
00
ENDCHAR
STARTCHAR Q
ENCODING 81
SWIDTH 538 0
DWIDTH 7 0
BBX 7 13 0 -3
BITMAP
00
00
3E
66
66
66
66
76
6C
3E
06
00
00
ENDCHAR
STARTCHAR R
ENCODING 82
SWIDTH 538 0
DWIDTH 7 0
BBX 7 13 0 -3
BITMAP
00
00
7C
66
66
7C
6C
66
66
66
00
00
00
ENDCHAR
STARTCHAR S
ENCODING 83
SWIDTH 538 0
DWIDTH 7 0
BBX 7 13 0 -3
BITMAP
00
00
3C
66
60
7C
06
06
66
3C
00
00
00
ENDCHAR
STARTCHAR T
ENCODING 84
SWIDTH 538 0
DWIDTH 7 0
BBX 7 13 0 -3
BITMAP
00
00
7E
18
18
18
18
18
18
18
00
00
00
ENDCHAR
STARTCHAR U
ENCODING 85
SWIDTH 538 0
DWIDTH 7 0
BBX 7 13 0 -3
BITMAP
00
00
66
66
66
66
66
66
66
3E
00
00
00
ENDCHAR
STARTCHAR V
ENCODING 86
SWIDTH 538 0
DWIDTH 7 0
BBX 7 13 0 -3
BITMAP
00
00
66
66
66
66
64
68
70
20
00
00
00
ENDCHAR
STARTCHAR W
ENCODING 87
SWIDTH 538 0
DWIDTH 7 0
BBX 7 13 0 -3
BITMAP
00
00
66
66
66
56
56
56
7E
3E
00
00
00
ENDCHAR
STARTCHAR X
ENCODING 88
SWIDTH 538 0
DWIDTH 7 0
BBX 7 13 0 -3
BITMAP
00
00
66
66
3C
18
3C
66
66
66
00
00
00
ENDCHAR
STARTCHAR Y
ENCODING 89
SWIDTH 538 0
DWIDTH 7 0
BBX 7 13 0 -3
BITMAP
00
00
66
66
66
3E
06
06
66
3E
00
00
00
ENDCHAR
STARTCHAR Z
ENCODING 90
SWIDTH 538 0
DWIDTH 7 0
BBX 7 13 0 -3
BITMAP
00
00
7E
06
0C
18
30
60
60
3E
00
00
00
ENDCHAR
STARTCHAR char91
ENCODING 91
SWIDTH 538 0
DWIDTH 7 0
BBX 7 13 0 -3
BITMAP
00
3C
30
30
30
30
30
30
30
30
3C
00
00
ENDCHAR
STARTCHAR char92
ENCODING 92
SWIDTH 538 0
DWIDTH 7 0
BBX 7 13 0 -3
BITMAP
00
60
60
30
30
18
18
0C
0C
06
06
00
00
ENDCHAR
STARTCHAR char93
ENCODING 93
SWIDTH 538 0
DWIDTH 7 0
BBX 7 13 0 -3
BITMAP
00
78
18
18
18
18
18
18
18
18
78
00
00
ENDCHAR
STARTCHAR char94
ENCODING 94
SWIDTH 538 0
DWIDTH 7 0
BBX 7 13 0 -3
BITMAP
00
3C
66
66
00
00
00
00
00
00
00
00
00
ENDCHAR
STARTCHAR char95
ENCODING 95
SWIDTH 538 0
DWIDTH 7 0
BBX 7 13 0 -3
BITMAP
00
00
00
00
00
00
00
00
00
00
7C
00
00
ENDCHAR
STARTCHAR char96
ENCODING 96
SWIDTH 538 0
DWIDTH 7 0
BBX 7 13 0 -3
BITMAP
00
38
0C
0C
00
00
00
00
00
00
00
00
00
ENDCHAR
STARTCHAR char97
ENCODING 97
SWIDTH 538 0
DWIDTH 7 0
BBX 7 13 0 -3
BITMAP
00
00
00
00
3C
06
3E
66
66
3E
00
00
00
ENDCHAR
STARTCHAR char98
ENCODING 98
SWIDTH 538 0
DWIDTH 7 0
BBX 7 13 0 -3
BITMAP
00
60
60
60
7C
66
66
66
66
3C
00
00
00
ENDCHAR
STARTCHAR char99
ENCODING 99
SWIDTH 538 0
DWIDTH 7 0
BBX 7 13 0 -3
BITMAP
00
00
00
00
3C
66
60
60
66
7C
00
00
00
ENDCHAR
STARTCHAR char100
ENCODING 100
SWIDTH 538 0
DWIDTH 7 0
BBX 7 13 0 -3
BITMAP
00
06
06
06
3E
66
66
66
66
3E
00
00
00
ENDCHAR
STARTCHAR char101
ENCODING 101
SWIDTH 538 0
DWIDTH 7 0
BBX 7 13 0 -3
BITMAP
00
00
00
00
3C
66
7E
60
66
7C
00
00
00
ENDCHAR
STARTCHAR char102
ENCODING 102
SWIDTH 538 0
DWIDTH 7 0
BBX 7 13 0 -3
BITMAP
00
1E
30
30
3E
30
30
30
30
30
00
00
00
ENDCHAR
STARTCHAR char103
ENCODING 103
SWIDTH 538 0
DWIDTH 7 0
BBX 7 13 0 -3
BITMAP
00
00
00
00
3E
66
66
66
66
3E
06
7C
00
ENDCHAR
STARTCHAR char104
ENCODING 104
SWIDTH 538 0
DWIDTH 7 0
BBX 7 13 0 -3
BITMAP
00
60
60
60
7C
66
66
66
66
66
00
00
00
ENDCHAR
STARTCHAR char105
ENCODING 105
SWIDTH 538 0
DWIDTH 7 0
BBX 7 13 0 -3
BITMAP
00
18
18
00
78
18
18
18
18
0E
00
00
00
ENDCHAR
STARTCHAR char106
ENCODING 106
SWIDTH 538 0
DWIDTH 7 0
BBX 7 13 0 -3
BITMAP
00
18
18
00
78
18
18
18
18
18
18
F0
00
ENDCHAR
STARTCHAR char107
ENCODING 107
SWIDTH 538 0
DWIDTH 7 0
BBX 7 13 0 -3
BITMAP
00
60
60
60
66
6C
78
6C
66
66
00
00
00
ENDCHAR
STARTCHAR char108
ENCODING 108
SWIDTH 538 0
DWIDTH 7 0
BBX 7 13 0 -3
BITMAP
00
70
30
30
30
30
30
30
30
1E
00
00
00
ENDCHAR
STARTCHAR char109
ENCODING 109
SWIDTH 538 0
DWIDTH 7 0
BBX 7 13 0 -3
BITMAP
00
00
00
00
7C
56
56
56
66
66
00
00
00
ENDCHAR
STARTCHAR char110
ENCODING 110
SWIDTH 538 0
DWIDTH 7 0
BBX 7 13 0 -3
BITMAP
00
00
00
00
7C
66
66
66
66
66
00
00
00
ENDCHAR
STARTCHAR char111
ENCODING 111
SWIDTH 538 0
DWIDTH 7 0
BBX 7 13 0 -3
BITMAP
00
00
00
00
3C
66
66
66
66
3C
00
00
00
ENDCHAR
STARTCHAR char112
ENCODING 112
SWIDTH 538 0
DWIDTH 7 0
BBX 7 13 0 -3
BITMAP
00
00
00
00
7C
66
66
66
66
7C
60
60
00
ENDCHAR
STARTCHAR char113
ENCODING 113
SWIDTH 538 0
DWIDTH 7 0
BBX 7 13 0 -3
BITMAP
00
00
00
00
3E
66
66
66
66
3E
06
06
00
ENDCHAR
STARTCHAR char114
ENCODING 114
SWIDTH 538 0
DWIDTH 7 0
BBX 7 13 0 -3
BITMAP
00
00
00
00
7C
66
60
60
60
60
00
00
00
ENDCHAR
STARTCHAR char115
ENCODING 115
SWIDTH 538 0
DWIDTH 7 0
BBX 7 13 0 -3
BITMAP
00
00
00
00
3E
60
7C
06
06
7C
00
00
00
ENDCHAR
STARTCHAR char116
ENCODING 116
SWIDTH 538 0
DWIDTH 7 0
BBX 7 13 0 -3
BITMAP
00
30
30
30
3E
30
30
30
30
1E
00
00
00
ENDCHAR
STARTCHAR char117
ENCODING 117
SWIDTH 538 0
DWIDTH 7 0
BBX 7 13 0 -3
BITMAP
00
00
00
00
66
66
66
66
66
3E
00
00
00
ENDCHAR
STARTCHAR char118
ENCODING 118
SWIDTH 538 0
DWIDTH 7 0
BBX 7 13 0 -3
BITMAP
00
00
00
00
66
66
64
68
70
20
00
00
00
ENDCHAR
STARTCHAR char119
ENCODING 119
SWIDTH 538 0
DWIDTH 7 0
BBX 7 13 0 -3
BITMAP
00
00
00
00
66
66
56
56
56
3E
00
00
00
ENDCHAR
STARTCHAR char119
ENCODING 120
SWIDTH 538 0
DWIDTH 7 0
BBX 7 13 0 -3
BITMAP
00
00
00
00
66
3C
18
3C
66
66
00
00
00
ENDCHAR
STARTCHAR char120
ENCODING 121
SWIDTH 538 0
DWIDTH 7 0
BBX 7 13 0 -3
BITMAP
00
00
00
00
66
66
66
66
66
3E
06
7C
00
ENDCHAR
STARTCHAR char121
ENCODING 122
SWIDTH 538 0
DWIDTH 7 0
BBX 7 13 0 -3
BITMAP
00
00
00
00
7E
0C
18
30
60
3E
00
00
00
ENDCHAR
STARTCHAR char123
ENCODING 123
SWIDTH 538 0
DWIDTH 7 0
BBX 7 13 0 -3
BITMAP
00
1C
30
30
30
20
60
30
30
30
1C
00
00
ENDCHAR
STARTCHAR char124
ENCODING 124
SWIDTH 538 0
DWIDTH 7 0
BBX 7 13 0 -3
BITMAP
00
18
18
18
18
18
18
18
18
18
18
00
00
ENDCHAR
STARTCHAR char125
ENCODING 125
SWIDTH 538 0
DWIDTH 7 0
BBX 7 13 0 -3
BITMAP
00
70
18
18
18
08
0C
18
18
18
70
00
00
ENDCHAR
STARTCHAR char126
ENCODING 126
SWIDTH 538 0
DWIDTH 7 0
BBX 7 13 0 -3
BITMAP
00
00
00
00
00
76
D6
DC
00
00
00
00
00
ENDCHAR
STARTCHAR uni007F
ENCODING 127
SWIDTH 538 0
DWIDTH 7 0
BBX 7 13 0 -3
BITMAP
00
00
00
00
00
00
00
00
00
00
00
00
00
ENDCHAR
STARTCHAR uni00A0
ENCODING 160
SWIDTH 538 0
DWIDTH 7 0
BBX 7 13 0 -3
BITMAP
00
00
00
00
00
00
00
00
00
00
00
00
00
ENDCHAR
STARTCHAR char161
ENCODING 161
SWIDTH 538 0
DWIDTH 7 0
BBX 7 13 0 -3
BITMAP
00
00
18
18
00
18
18
18
18
18
00
00
00
ENDCHAR
STARTCHAR cent
ENCODING 162
SWIDTH 538 0
DWIDTH 7 0
BBX 7 13 0 -3
BITMAP
00
00
10
7C
D6
D0
D0
D6
FC
10
00
00
00
ENDCHAR
STARTCHAR sterling
ENCODING 163
SWIDTH 538 0
DWIDTH 7 0
BBX 7 13 0 -3
BITMAP
00
00
18
34
30
78
30
30
34
78
00
00
00
ENDCHAR
STARTCHAR currency
ENCODING 164
SWIDTH 538 0
DWIDTH 7 0
BBX 7 13 0 -3
BITMAP
00
00
00
00
66
3C
2C
2C
3C
66
00
00
00
ENDCHAR
STARTCHAR yen
ENCODING 165
SWIDTH 538 0
DWIDTH 7 0
BBX 7 13 0 -3
BITMAP
00
00
46
46
2C
7E
18
7E
18
18
00
00
00
ENDCHAR
STARTCHAR char166
ENCODING 166
SWIDTH 538 0
DWIDTH 7 0
BBX 7 13 0 -3
BITMAP
00
18
18
18
18
00
00
00
18
18
18
18
00
ENDCHAR
STARTCHAR section
ENCODING 167
SWIDTH 538 0
DWIDTH 7 0
BBX 7 13 0 -3
BITMAP
00
00
1E
30
3C
36
36
1E
06
3C
00
00
00
ENDCHAR
STARTCHAR dieresis
ENCODING 168
SWIDTH 538 0
DWIDTH 7 0
BBX 7 13 0 -3
BITMAP
00
6C
6C
6C
00
00
00
00
00
00
00
00
00
ENDCHAR
STARTCHAR copyright
ENCODING 169
SWIDTH 538 0
DWIDTH 7 0
BBX 7 13 0 -3
BITMAP
00
7E
C2
DA
D2
D2
D2
DA
C2
7C
00
00
00
ENDCHAR
STARTCHAR ordfeminine
ENCODING 170
SWIDTH 538 0
DWIDTH 7 0
BBX 7 13 0 -3
BITMAP
00
18
04
1C
24
1C
00
3C
00
00
00
00
00
ENDCHAR
STARTCHAR char171
ENCODING 171
SWIDTH 538 0
DWIDTH 7 0
BBX 7 13 0 -3
BITMAP
00
00
00
16
2C
58
B0
58
2C
16
00
00
00
ENDCHAR
STARTCHAR char172
ENCODING 172
SWIDTH 538 0
DWIDTH 7 0
BBX 7 13 0 -3
BITMAP
00
00
00
00
00
00
7C
0C
0C
0C
00
00
00
ENDCHAR
STARTCHAR char173
ENCODING 173
SWIDTH 538 0
DWIDTH 7 0
BBX 7 13 0 -3
BITMAP
00
00
00
00
00
00
38
00
00
00
00
00
00
ENDCHAR
STARTCHAR registered
ENCODING 174
SWIDTH 538 0
DWIDTH 7 0
BBX 7 13 0 -3
BITMAP
00
7E
C2
DA
D6
D6
DA
D6
C2
7C
00
00
00
ENDCHAR
STARTCHAR char175
ENCODING 175
SWIDTH 538 0
DWIDTH 7 0
BBX 7 13 0 -3
BITMAP
00
7C
00
00
00
00
00
00
00
00
00
00
00
ENDCHAR
STARTCHAR degree
ENCODING 176
SWIDTH 538 0
DWIDTH 7 0
BBX 7 13 0 -3
BITMAP
00
00
38
4C
4C
38
00
00
00
00
00
00
00
ENDCHAR
STARTCHAR plusminus
ENCODING 177
SWIDTH 538 0
DWIDTH 7 0
BBX 7 13 0 -3
BITMAP
00
00
00
18
18
7E
18
18
00
7E
00
00
00
ENDCHAR
STARTCHAR uni00B2
ENCODING 178
SWIDTH 538 0
DWIDTH 7 0
BBX 7 13 0 -3
BITMAP
00
78
0C
3C
60
60
7C
00
00
00
00
00
00
ENDCHAR
STARTCHAR uni00B3
ENCODING 179
SWIDTH 538 0
DWIDTH 7 0
BBX 7 13 0 -3
BITMAP
00
78
0C
3C
0C
0C
78
00
00
00
00
00
00
ENDCHAR
STARTCHAR char180
ENCODING 180
SWIDTH 538 0
DWIDTH 7 0
BBX 7 13 0 -3
BITMAP
00
0C
18
30
00
00
00
00
00
00
00
00
00
ENDCHAR
STARTCHAR mu
ENCODING 181
SWIDTH 538 0
DWIDTH 7 0
BBX 7 13 0 -3
BITMAP
00
00
00
00
36
36
36
36
36
3C
30
60
00
ENDCHAR
STARTCHAR paragraph
ENCODING 182
SWIDTH 538 0
DWIDTH 7 0
BBX 7 13 0 -3
BITMAP
00
00
00
3C
76
76
76
36
36
36
00
00
00
ENDCHAR
STARTCHAR periodcentered
ENCODING 183
SWIDTH 538 0
DWIDTH 7 0
BBX 7 13 0 -3
BITMAP
00
00
00
00
00
30
30
00
00
00
00
00
00
ENDCHAR
STARTCHAR cedilla
ENCODING 184
SWIDTH 538 0
DWIDTH 7 0
BBX 7 13 0 -3
BITMAP
00
00
00
00
00
00
00
00
00
18
0C
38
00
ENDCHAR
STARTCHAR uni00B9
ENCODING 185
SWIDTH 538 0
DWIDTH 7 0
BBX 7 13 0 -3
BITMAP
00
18
38
58
18
18
78
00
00
00
00
00
00
ENDCHAR
STARTCHAR ordmasculine
ENCODING 186
SWIDTH 538 0
DWIDTH 7 0
BBX 7 13 0 -3
BITMAP
00
00
38
4C
4C
38
00
7C
00
00
00
00
00
ENDCHAR
STARTCHAR char171
ENCODING 187
SWIDTH 538 0
DWIDTH 7 0
BBX 7 13 0 -3
BITMAP
00
00
00
D0
68
34
1A
34
68
D0
00
00
00
ENDCHAR
STARTCHAR onequarter
ENCODING 188
SWIDTH 538 0
DWIDTH 7 0
BBX 7 13 0 -3
BITMAP
30
70
30
30
36
6E
16
1E
06
00
00
00
00
ENDCHAR
STARTCHAR onehalf
ENCODING 189
SWIDTH 538 0
DWIDTH 7 0
BBX 7 13 0 -3
BITMAP
30
70
30
30
2E
76
06
0C
1E
00
00
00
00
ENDCHAR
STARTCHAR threequarters
ENCODING 190
SWIDTH 538 0
DWIDTH 7 0
BBX 7 13 0 -3
BITMAP
00
78
18
30
18
56
2E
16
1E
06
00
00
00
ENDCHAR
STARTCHAR questiondown
ENCODING 191
SWIDTH 538 0
DWIDTH 7 0
BBX 7 13 0 -3
BITMAP
00
00
18
18
00
18
0C
06
66
3E
00
00
00
ENDCHAR
STARTCHAR A
ENCODING 192
SWIDTH 538 0
DWIDTH 7 0
BBX 7 13 0 -3
BITMAP
30
18
7C
66
66
7E
66
66
66
66
00
00
00
ENDCHAR
STARTCHAR A
ENCODING 193
SWIDTH 538 0
DWIDTH 7 0
BBX 7 13 0 -3
BITMAP
0C
18
7C
66
66
7E
66
66
66
66
00
00
00
ENDCHAR
STARTCHAR A
ENCODING 194
SWIDTH 538 0
DWIDTH 7 0
BBX 7 13 0 -3
BITMAP
1C
2C
7C
66
66
7E
66
66
66
66
00
00
00
ENDCHAR
STARTCHAR A
ENCODING 195
SWIDTH 538 0
DWIDTH 7 0
BBX 7 13 0 -3
BITMAP
36
2E
7C
66
66
7E
66
66
66
66
00
00
00
ENDCHAR
STARTCHAR A
ENCODING 196
SWIDTH 538 0
DWIDTH 7 0
BBX 7 13 0 -3
BITMAP
2C
2C
7C
66
66
7E
66
66
66
66
00
00
00
ENDCHAR
STARTCHAR A
ENCODING 197
SWIDTH 538 0
DWIDTH 7 0
BBX 7 13 0 -3
BITMAP
3C
2C
7C
66
66
7E
66
66
66
66
00
00
00
ENDCHAR
STARTCHAR AE
ENCODING 198
SWIDTH 538 0
DWIDTH 7 0
BBX 7 13 0 -3
BITMAP
00
00
7E
D8
D8
FC
D8
D8
D8
DE
00
00
00
ENDCHAR
STARTCHAR C
ENCODING 199
SWIDTH 538 0
DWIDTH 7 0
BBX 7 13 0 -3
BITMAP
00
00
3C
66
60
60
60
60
66
7C
0C
38
00
ENDCHAR
STARTCHAR E
ENCODING 200
SWIDTH 538 0
DWIDTH 7 0
BBX 7 13 0 -3
BITMAP
30
18
3E
60
60
7C
60
60
60
7E
00
00
00
ENDCHAR
STARTCHAR E
ENCODING 201
SWIDTH 538 0
DWIDTH 7 0
BBX 7 13 0 -3
BITMAP
0C
18
3E
60
60
7C
60
60
60
7E
00
00
00
ENDCHAR
STARTCHAR E
ENCODING 202
SWIDTH 538 0
DWIDTH 7 0
BBX 7 13 0 -3
BITMAP
18
2C
3E
60
60
7C
60
60
60
7E
00
00
00
ENDCHAR
STARTCHAR E
ENCODING 203
SWIDTH 538 0
DWIDTH 7 0
BBX 7 13 0 -3
BITMAP
2C
2C
3E
60
60
7C
60
60
60
7E
00
00
00
ENDCHAR
STARTCHAR I
ENCODING 204
SWIDTH 538 0
DWIDTH 7 0
BBX 7 13 0 -3
BITMAP
30
18
3C
18
18
18
18
18
18
3C
00
00
00
ENDCHAR
STARTCHAR I
ENCODING 205
SWIDTH 538 0
DWIDTH 7 0
BBX 7 13 0 -3
BITMAP
0C
18
3C
18
18
18
18
18
18
3C
00
00
00
ENDCHAR
STARTCHAR I
ENCODING 206
SWIDTH 538 0
DWIDTH 7 0
BBX 7 13 0 -3
BITMAP
18
2C
3C
18
18
18
18
18
18
3C
00
00
00
ENDCHAR
STARTCHAR I
ENCODING 207
SWIDTH 538 0
DWIDTH 7 0
BBX 7 13 0 -3
BITMAP
2C
2C
3C
18
18
18
18
18
18
3C
00
00
00
ENDCHAR
STARTCHAR D
ENCODING 208
SWIDTH 538 0
DWIDTH 7 0
BBX 7 13 0 -3
BITMAP
00
00
7C
66
66
F6
66
66
66
7C
00
00
00
ENDCHAR
STARTCHAR N
ENCODING 209
SWIDTH 538 0
DWIDTH 7 0
BBX 7 13 0 -3
BITMAP
36
2E
66
76
6E
66
66
66
66
66
00
00
00
ENDCHAR
STARTCHAR O
ENCODING 210
SWIDTH 538 0
DWIDTH 7 0
BBX 7 13 0 -3
BITMAP
30
18
3E
66
66
66
66
66
66
3C
00
00
00
ENDCHAR
STARTCHAR O
ENCODING 211
SWIDTH 538 0
DWIDTH 7 0
BBX 7 13 0 -3
BITMAP
0C
18
3E
66
66
66
66
66
66
3C
00
00
00
ENDCHAR
STARTCHAR O
ENCODING 212
SWIDTH 538 0
DWIDTH 7 0
BBX 7 13 0 -3
BITMAP
18
2C
3E
66
66
66
66
66
66
3C
00
00
00
ENDCHAR
STARTCHAR O
ENCODING 213
SWIDTH 538 0
DWIDTH 7 0
BBX 7 13 0 -3
BITMAP
36
2E
3E
66
66
66
66
66
66
3C
00
00
00
ENDCHAR
STARTCHAR O
ENCODING 214
SWIDTH 538 0
DWIDTH 7 0
BBX 7 13 0 -3
BITMAP
2C
2C
3E
66
66
66
66
66
66
3C
00
00
00
ENDCHAR
STARTCHAR multiply
ENCODING 215
SWIDTH 538 0
DWIDTH 7 0
BBX 7 13 0 -3
BITMAP
00
00
00
00
66
3C
18
3C
66
66
00
00
00
ENDCHAR
STARTCHAR O
ENCODING 216
SWIDTH 538 0
DWIDTH 7 0
BBX 7 13 0 -3
BITMAP
00
00
3A
64
6E
56
56
66
66
BC
00
00
00
ENDCHAR
STARTCHAR U
ENCODING 217
SWIDTH 538 0
DWIDTH 7 0
BBX 7 13 0 -3
BITMAP
30
18
66
66
66
66
66
66
66
3E
00
00
00
ENDCHAR
STARTCHAR U
ENCODING 218
SWIDTH 538 0
DWIDTH 7 0
BBX 7 13 0 -3
BITMAP
0C
18
66
66
66
66
66
66
66
3E
00
00
00
ENDCHAR
STARTCHAR U
ENCODING 219
SWIDTH 538 0
DWIDTH 7 0
BBX 7 13 0 -3
BITMAP
18
2C
66
66
66
66
66
66
66
3E
00
00
00
ENDCHAR
STARTCHAR U
ENCODING 220
SWIDTH 538 0
DWIDTH 7 0
BBX 7 13 0 -3
BITMAP
36
2E
66
66
66
66
66
66
66
3E
00
00
00
ENDCHAR
STARTCHAR Y
ENCODING 221
SWIDTH 538 0
DWIDTH 7 0
BBX 7 13 0 -3
BITMAP
0C
18
66
66
66
3E
06
06
66
3E
00
00
00
ENDCHAR
STARTCHAR Thorn
ENCODING 222
SWIDTH 538 0
DWIDTH 7 0
BBX 7 13 0 -3
BITMAP
00
60
60
7C
66
66
66
66
66
7C
60
60
00
ENDCHAR
STARTCHAR germandbls
ENCODING 223
SWIDTH 538 0
DWIDTH 7 0
BBX 7 13 0 -3
BITMAP
00
00
00
F8
CC
D8
D8
CE
C6
DC
00
00
00
ENDCHAR
STARTCHAR agrave
ENCODING 224
SWIDTH 538 0
DWIDTH 7 0
BBX 7 13 0 -3
BITMAP
00
30
18
00
3C
06
3E
66
66
3E
00
00
00
ENDCHAR
STARTCHAR aacute
ENCODING 225
SWIDTH 538 0
DWIDTH 7 0
BBX 7 13 0 -3
BITMAP
00
0C
18
00
3C
06
3E
66
66
3E
00
00
00
ENDCHAR
STARTCHAR acircumflex
ENCODING 226
SWIDTH 538 0
DWIDTH 7 0
BBX 7 13 0 -3
BITMAP
00
18
2C
00
3C
06
3E
66
66
3E
00
00
00
ENDCHAR
STARTCHAR atilde
ENCODING 227
SWIDTH 538 0
DWIDTH 7 0
BBX 7 13 0 -3
BITMAP
00
36
2E
00
3C
06
3E
66
66
3E
00
00
00
ENDCHAR
STARTCHAR adieresis
ENCODING 228
SWIDTH 538 0
DWIDTH 7 0
BBX 7 13 0 -3
BITMAP
00
2C
2C
00
3C
06
3E
66
66
3E
00
00
00
ENDCHAR
STARTCHAR aring
ENCODING 229
SWIDTH 538 0
DWIDTH 7 0
BBX 7 13 0 -3
BITMAP
18
2C
18
00
3C
06
3E
66
66
3E
00
00
00
ENDCHAR
STARTCHAR ae
ENCODING 230
SWIDTH 538 0
DWIDTH 7 0
BBX 7 13 0 -3
BITMAP
00
00
00
00
7C
1A
7E
D8
DA
7C
00
00
00
ENDCHAR
STARTCHAR ccedilla
ENCODING 231
SWIDTH 538 0
DWIDTH 7 0
BBX 7 13 0 -3
BITMAP
00
00
00
00
3C
66
60
60
66
7C
0C
38
00
ENDCHAR
STARTCHAR egrave
ENCODING 232
SWIDTH 538 0
DWIDTH 7 0
BBX 7 13 0 -3
BITMAP
00
30
18
00
3C
66
7E
60
66
7C
00
00
00
ENDCHAR
STARTCHAR eacute
ENCODING 233
SWIDTH 538 0
DWIDTH 7 0
BBX 7 13 0 -3
BITMAP
00
0C
18
00
3C
66
7E
60
66
7C
00
00
00
ENDCHAR
STARTCHAR ecircumflex
ENCODING 234
SWIDTH 538 0
DWIDTH 7 0
BBX 7 13 0 -3
BITMAP
00
18
2C
00
3C
66
7E
60
66
7C
00
00
00
ENDCHAR
STARTCHAR edieresis
ENCODING 235
SWIDTH 538 0
DWIDTH 7 0
BBX 7 13 0 -3
BITMAP
00
2C
2C
00
3C
66
7E
60
66
7C
00
00
00
ENDCHAR
STARTCHAR igrave
ENCODING 236
SWIDTH 538 0
DWIDTH 7 0
BBX 7 13 0 -3
BITMAP
00
30
18
00
78
18
18
18
18
0E
00
00
00
ENDCHAR
STARTCHAR iacute
ENCODING 237
SWIDTH 538 0
DWIDTH 7 0
BBX 7 13 0 -3
BITMAP
00
0C
18
00
78
18
18
18
18
0E
00
00
00
ENDCHAR
STARTCHAR icircumflex
ENCODING 238
SWIDTH 538 0
DWIDTH 7 0
BBX 7 13 0 -3
BITMAP
00
18
2C
00
78
18
18
18
18
0E
00
00
00
ENDCHAR
STARTCHAR idieresis
ENCODING 239
SWIDTH 538 0
DWIDTH 7 0
BBX 7 13 0 -3
BITMAP
00
2C
2C
00
78
18
18
18
18
0E
00
00
00
ENDCHAR
STARTCHAR eth
ENCODING 240
SWIDTH 538 0
DWIDTH 7 0
BBX 7 13 0 -3
BITMAP
08
70
38
4C
3E
66
66
66
66
7C
00
00
00
ENDCHAR
STARTCHAR ntilde
ENCODING 241
SWIDTH 538 0
DWIDTH 7 0
BBX 7 13 0 -3
BITMAP
00
36
2E
00
7C
66
66
66
66
66
00
00
00
ENDCHAR
STARTCHAR ograve
ENCODING 242
SWIDTH 538 0
DWIDTH 7 0
BBX 7 13 0 -3
BITMAP
00
30
18
00
3C
66
66
66
66
3C
00
00
00
ENDCHAR
STARTCHAR oacute
ENCODING 243
SWIDTH 538 0
DWIDTH 7 0
BBX 7 13 0 -3
BITMAP
00
0C
18
00
3C
66
66
66
66
3C
00
00
00
ENDCHAR
STARTCHAR ocircumflex
ENCODING 244
SWIDTH 538 0
DWIDTH 7 0
BBX 7 13 0 -3
BITMAP
00
18
2C
00
3C
66
66
66
66
3C
00
00
00
ENDCHAR
STARTCHAR otilde
ENCODING 245
SWIDTH 538 0
DWIDTH 7 0
BBX 7 13 0 -3
BITMAP
00
36
2E
00
3C
66
66
66
66
3C
00
00
00
ENDCHAR
STARTCHAR odieresis
ENCODING 246
SWIDTH 538 0
DWIDTH 7 0
BBX 7 13 0 -3
BITMAP
00
2C
2C
00
3C
66
66
66
66
3C
00
00
00
ENDCHAR
STARTCHAR divide
ENCODING 247
SWIDTH 538 0
DWIDTH 7 0
BBX 7 13 0 -3
BITMAP
00
00
00
18
18
00
7E
00
18
18
00
00
00
ENDCHAR
STARTCHAR oslash
ENCODING 248
SWIDTH 538 0
DWIDTH 7 0
BBX 7 13 0 -3
BITMAP
00
00
00
02
3C
6E
56
56
66
7C
80
00
00
ENDCHAR
STARTCHAR ugrave
ENCODING 249
SWIDTH 538 0
DWIDTH 7 0
BBX 7 13 0 -3
BITMAP
00
30
18
00
66
66
66
66
66
3E
00
00
00
ENDCHAR
STARTCHAR uacute
ENCODING 250
SWIDTH 538 0
DWIDTH 7 0
BBX 7 13 0 -3
BITMAP
00
0C
18
00
66
66
66
66
66
3E
00
00
00
ENDCHAR
STARTCHAR ucircumflex
ENCODING 251
SWIDTH 538 0
DWIDTH 7 0
BBX 7 13 0 -3
BITMAP
00
18
2C
00
66
66
66
66
66
3E
00
00
00
ENDCHAR
STARTCHAR udieresis
ENCODING 252
SWIDTH 538 0
DWIDTH 7 0
BBX 7 13 0 -3
BITMAP
00
2C
2C
00
66
66
66
66
66
3E
00
00
00
ENDCHAR
STARTCHAR yacute
ENCODING 253
SWIDTH 538 0
DWIDTH 7 0
BBX 7 13 0 -3
BITMAP
00
0C
18
00
66
66
66
66
66
3E
06
7C
00
ENDCHAR
STARTCHAR thorn
ENCODING 254
SWIDTH 538 0
DWIDTH 7 0
BBX 7 13 0 -3
BITMAP
00
00
60
60
7C
66
66
66
66
7C
60
60
00
ENDCHAR
STARTCHAR ydieresis
ENCODING 255
SWIDTH 538 0
DWIDTH 7 0
BBX 7 13 0 -3
BITMAP
00
2C
2C
00
66
66
66
66
66
3E
06
7C
00
ENDCHAR
STARTCHAR A
ENCODING 256
SWIDTH 538 0
DWIDTH 7 0
BBX 7 13 0 -3
BITMAP
3C
00
7C
66
66
7E
66
66
66
66
00
00
00
ENDCHAR
STARTCHAR amacron
ENCODING 257
SWIDTH 538 0
DWIDTH 7 0
BBX 7 13 0 -3
BITMAP
00
00
3C
00
3C
06
3E
66
66
3E
00
00
00
ENDCHAR
STARTCHAR A
ENCODING 258
SWIDTH 538 0
DWIDTH 7 0
BBX 7 13 0 -3
BITMAP
2C
18
7C
66
66
7E
66
66
66
66
00
00
00
ENDCHAR
STARTCHAR abreve
ENCODING 259
SWIDTH 538 0
DWIDTH 7 0
BBX 7 13 0 -3
BITMAP
00
2C
18
00
3C
06
3E
66
66
3E
00
00
00
ENDCHAR
STARTCHAR A
ENCODING 260
SWIDTH 538 0
DWIDTH 7 0
BBX 7 13 0 -3
BITMAP
00
00
7C
66
66
7E
66
66
66
66
30
1C
00
ENDCHAR
STARTCHAR aogonek
ENCODING 261
SWIDTH 538 0
DWIDTH 7 0
BBX 7 13 0 -3
BITMAP
00
00
00
00
3C
06
3E
66
66
3E
30
1C
00
ENDCHAR
STARTCHAR C
ENCODING 262
SWIDTH 538 0
DWIDTH 7 0
BBX 7 13 0 -3
BITMAP
0C
18
3C
66
60
60
60
60
66
7C
00
00
00
ENDCHAR
STARTCHAR cacute
ENCODING 263
SWIDTH 538 0
DWIDTH 7 0
BBX 7 13 0 -3
BITMAP
00
0C
18
00
3C
66
60
60
66
7C
00
00
00
ENDCHAR
STARTCHAR C
ENCODING 264
SWIDTH 538 0
DWIDTH 7 0
BBX 7 13 0 -3
BITMAP
18
2C
3C
66
60
60
60
60
66
7C
00
00
00
ENDCHAR
STARTCHAR ccircumflex
ENCODING 265
SWIDTH 538 0
DWIDTH 7 0
BBX 7 13 0 -3
BITMAP
00
18
2C
00
3C
66
60
60
66
7C
00
00
00
ENDCHAR
STARTCHAR C
ENCODING 266
SWIDTH 538 0
DWIDTH 7 0
BBX 7 13 0 -3
BITMAP
18
18
3C
66
60
60
60
60
66
7C
00
00
00
ENDCHAR
STARTCHAR cdotaccent
ENCODING 267
SWIDTH 538 0
DWIDTH 7 0
BBX 7 13 0 -3
BITMAP
00
18
18
00
3C
66
60
60
66
7C
00
00
00
ENDCHAR
STARTCHAR C
ENCODING 268
SWIDTH 538 0
DWIDTH 7 0
BBX 7 13 0 -3
BITMAP
2C
18
3C
66
60
60
60
60
66
7C
00
00
00
ENDCHAR
STARTCHAR ccaron
ENCODING 269
SWIDTH 538 0
DWIDTH 7 0
BBX 7 13 0 -3
BITMAP
00
2C
18
00
3C
66
60
60
66
7C
00
00
00
ENDCHAR
STARTCHAR D
ENCODING 270
SWIDTH 538 0
DWIDTH 7 0
BBX 7 13 0 -3
BITMAP
2C
18
7C
66
66
66
66
66
66
7C
00
00
00
ENDCHAR
STARTCHAR dcaron
ENCODING 271
SWIDTH 538 0
DWIDTH 7 0
BBX 7 13 0 -3
BITMAP
00
1E
36
06
3E
66
66
66
66
3E
00
00
00
ENDCHAR
STARTCHAR D
ENCODING 272
SWIDTH 538 0
DWIDTH 7 0
BBX 7 13 0 -3
BITMAP
00
00
7C
66
66
F6
66
66
66
7C
00
00
00
ENDCHAR
STARTCHAR dcroat
ENCODING 273
SWIDTH 538 0
DWIDTH 7 0
BBX 7 13 0 -3
BITMAP
00
06
0E
06
3E
66
66
66
66
3E
00
00
00
ENDCHAR
STARTCHAR E
ENCODING 274
SWIDTH 538 0
DWIDTH 7 0
BBX 7 13 0 -3
BITMAP
3C
00
3E
60
60
7C
60
60
60
7E
00
00
00
ENDCHAR
STARTCHAR emacron
ENCODING 275
SWIDTH 538 0
DWIDTH 7 0
BBX 7 13 0 -3
BITMAP
00
00
3C
00
3C
66
7E
60
66
7C
00
00
00
ENDCHAR
STARTCHAR E
ENCODING 276
SWIDTH 538 0
DWIDTH 7 0
BBX 7 13 0 -3
BITMAP
36
1C
3E
60
60
7C
60
60
60
7E
00
00
00
ENDCHAR
STARTCHAR ebreve
ENCODING 277
SWIDTH 538 0
DWIDTH 7 0
BBX 7 13 0 -3
BITMAP
00
36
1C
00
3C
66
7E
60
66
7C
00
00
00
ENDCHAR
STARTCHAR E
ENCODING 278
SWIDTH 538 0
DWIDTH 7 0
BBX 7 13 0 -3
BITMAP
18
18
3E
60
60
7C
60
60
60
7E
00
00
00
ENDCHAR
STARTCHAR edotaccent
ENCODING 279
SWIDTH 538 0
DWIDTH 7 0
BBX 7 13 0 -3
BITMAP
00
18
18
00
3C
66
7E
60
66
7C
00
00
00
ENDCHAR
STARTCHAR E
ENCODING 280
SWIDTH 538 0
DWIDTH 7 0
BBX 7 13 0 -3
BITMAP
00
00
3E
60
60
7C
60
60
60
7E
30
1C
00
ENDCHAR
STARTCHAR eogonek
ENCODING 281
SWIDTH 538 0
DWIDTH 7 0
BBX 7 13 0 -3
BITMAP
00
00
00
00
3C
66
7E
60
66
7C
30
1C
00
ENDCHAR
STARTCHAR E
ENCODING 282
SWIDTH 538 0
DWIDTH 7 0
BBX 7 13 0 -3
BITMAP
2C
18
3E
60
60
7C
60
60
60
7E
00
00
00
ENDCHAR
STARTCHAR ecaron
ENCODING 283
SWIDTH 538 0
DWIDTH 7 0
BBX 7 13 0 -3
BITMAP
00
2C
18
00
3C
66
7E
60
66
7C
00
00
00
ENDCHAR
STARTCHAR char71
ENCODING 284
SWIDTH 538 0
DWIDTH 7 0
BBX 7 13 0 -3
BITMAP
18
2C
3C
60
60
6E
66
66
66
7C
00
00
00
ENDCHAR
STARTCHAR gcircumflex
ENCODING 285
SWIDTH 538 0
DWIDTH 7 0
BBX 7 13 0 -3
BITMAP
00
18
2C
00
3E
66
66
66
66
3E
06
7C
00
ENDCHAR
STARTCHAR char71
ENCODING 286
SWIDTH 538 0
DWIDTH 7 0
BBX 7 13 0 -3
BITMAP
36
1C
3E
60
60
6E
66
66
66
7C
00
00
00
ENDCHAR
STARTCHAR gbreve
ENCODING 287
SWIDTH 538 0
DWIDTH 7 0
BBX 7 13 0 -3
BITMAP
00
36
1C
00
3E
66
66
66
66
3E
06
7C
00
ENDCHAR
STARTCHAR char71
ENCODING 288
SWIDTH 538 0
DWIDTH 7 0
BBX 7 13 0 -3
BITMAP
18
18
3C
60
60
6E
66
66
66
7C
00
00
00
ENDCHAR
STARTCHAR gdotaccent
ENCODING 289
SWIDTH 538 0
DWIDTH 7 0
BBX 7 13 0 -3
BITMAP
00
18
18
00
3E
66
66
66
66
3E
06
7C
00
ENDCHAR
STARTCHAR char71
ENCODING 290
SWIDTH 538 0
DWIDTH 7 0
BBX 7 13 0 -3
BITMAP
00
00
3C
60
60
6E
66
66
66
7C
0C
38
00
ENDCHAR
STARTCHAR uni0123
ENCODING 291
SWIDTH 538 0
DWIDTH 7 0
BBX 7 13 0 -3
BITMAP
00
0C
38
00
3E
66
66
66
66
3E
06
7C
00
ENDCHAR
STARTCHAR H
ENCODING 292
SWIDTH 538 0
DWIDTH 7 0
BBX 7 13 0 -3
BITMAP
1C
2C
66
66
66
7E
66
66
66
66
00
00
00
ENDCHAR
STARTCHAR hcircumflex
ENCODING 293
SWIDTH 538 0
DWIDTH 7 0
BBX 7 13 0 -3
BITMAP
18
6C
60
60
7C
66
66
66
66
66
00
00
00
ENDCHAR
STARTCHAR H
ENCODING 294
SWIDTH 538 0
DWIDTH 7 0
BBX 7 13 0 -3
BITMAP
00
00
66
FE
66
7E
66
66
66
66
00
00
00
ENDCHAR
STARTCHAR hbar
ENCODING 295
SWIDTH 538 0
DWIDTH 7 0
BBX 7 13 0 -3
BITMAP
00
60
F0
60
7C
66
66
66
66
66
00
00
00
ENDCHAR
STARTCHAR I
ENCODING 296
SWIDTH 538 0
DWIDTH 7 0
BBX 7 13 0 -3
BITMAP
36
2E
3C
18
18
18
18
18
18
3C
00
00
00
ENDCHAR
STARTCHAR itilde
ENCODING 297
SWIDTH 538 0
DWIDTH 7 0
BBX 7 13 0 -3
BITMAP
00
36
2E
00
78
18
18
18
18
0E
00
00
00
ENDCHAR
STARTCHAR I
ENCODING 298
SWIDTH 538 0
DWIDTH 7 0
BBX 7 13 0 -3
BITMAP
3C
00
3C
18
18
18
18
18
18
3C
00
00
00
ENDCHAR
STARTCHAR imacron
ENCODING 299
SWIDTH 538 0
DWIDTH 7 0
BBX 7 13 0 -3
BITMAP
00
00
3C
00
78
18
18
18
18
0E
00
00
00
ENDCHAR
STARTCHAR I
ENCODING 300
SWIDTH 538 0
DWIDTH 7 0
BBX 7 13 0 -3
BITMAP
36
1C
3C
18
18
18
18
18
18
3C
00
00
00
ENDCHAR
STARTCHAR ibreve
ENCODING 301
SWIDTH 538 0
DWIDTH 7 0
BBX 7 13 0 -3
BITMAP
00
36
1C
00
78
18
18
18
18
0E
00
00
00
ENDCHAR
STARTCHAR I
ENCODING 302
SWIDTH 538 0
DWIDTH 7 0
BBX 7 13 0 -3
BITMAP
00
00
3C
18
18
18
18
18
18
3C
30
1C
00
ENDCHAR
STARTCHAR iogonek
ENCODING 303
SWIDTH 538 0
DWIDTH 7 0
BBX 7 13 0 -3
BITMAP
00
18
18
00
78
18
18
18
18
0E
30
1C
00
ENDCHAR
STARTCHAR I
ENCODING 304
SWIDTH 538 0
DWIDTH 7 0
BBX 7 13 0 -3
BITMAP
18
18
3C
18
18
18
18
18
18
3C
00
00
00
ENDCHAR
STARTCHAR dotlessi
ENCODING 305
SWIDTH 538 0
DWIDTH 7 0
BBX 7 13 0 -3
BITMAP
00
00
00
00
78
18
18
18
18
0E
00
00
00
ENDCHAR
STARTCHAR char306
ENCODING 306
SWIDTH 538 0
DWIDTH 7 0
BBX 7 13 0 -3
BITMAP
00
00
FE
66
66
66
66
66
76
FC
00
00
00
ENDCHAR
STARTCHAR ij
ENCODING 307
SWIDTH 538 0
DWIDTH 7 0
BBX 7 13 0 -3
BITMAP
00
36
36
00
6E
36
36
36
36
1E
06
3C
00
ENDCHAR
STARTCHAR J
ENCODING 308
SWIDTH 538 0
DWIDTH 7 0
BBX 7 13 0 -3
BITMAP
18
2C
1E
06
06
06
06
66
66
3C
00
00
00
ENDCHAR
STARTCHAR jcircumflex
ENCODING 309
SWIDTH 538 0
DWIDTH 7 0
BBX 7 13 0 -3
BITMAP
00
18
2C
00
1C
0C
0C
0C
0C
0C
0C
78
00
ENDCHAR
STARTCHAR K
ENCODING 310
SWIDTH 538 0
DWIDTH 7 0
BBX 7 13 0 -3
BITMAP
00
00
66
6C
78
70
7C
66
66
66
0C
38
00
ENDCHAR
STARTCHAR uni0137
ENCODING 311
SWIDTH 538 0
DWIDTH 7 0
BBX 7 13 0 -3
BITMAP
00
60
60
60
66
6C
78
6C
66
66
0C
38
00
ENDCHAR
STARTCHAR kgreenlandic
ENCODING 312
SWIDTH 538 0
DWIDTH 7 0
BBX 7 13 0 -3
BITMAP
00
00
00
00
66
6C
78
6C
66
66
00
00
00
ENDCHAR
STARTCHAR L
ENCODING 313
SWIDTH 538 0
DWIDTH 7 0
BBX 7 13 0 -3
BITMAP
0C
18
60
60
60
60
60
60
66
7C
00
00
00
ENDCHAR
STARTCHAR lacute
ENCODING 314
SWIDTH 538 0
DWIDTH 7 0
BBX 7 13 0 -3
BITMAP
0C
78
30
30
30
30
30
30
30
1E
00
00
00
ENDCHAR
STARTCHAR L
ENCODING 315
SWIDTH 538 0
DWIDTH 7 0
BBX 7 13 0 -3
BITMAP
00
00
60
60
60
60
60
60
66
7C
0C
38
00
ENDCHAR
STARTCHAR uni013C
ENCODING 316
SWIDTH 538 0
DWIDTH 7 0
BBX 7 13 0 -3
BITMAP
00
70
30
30
30
30
30
30
30
1E
0C
38
00
ENDCHAR
STARTCHAR L
ENCODING 317
SWIDTH 538 0
DWIDTH 7 0
BBX 7 13 0 -3
BITMAP
0C
18
60
60
60
60
60
60
66
7C
00
00
00
ENDCHAR
STARTCHAR lcaron
ENCODING 318
SWIDTH 538 0
DWIDTH 7 0
BBX 7 13 0 -3
BITMAP
06
7C
30
30
30
30
30
30
30
1E
00
00
00
ENDCHAR
STARTCHAR L
ENCODING 319
SWIDTH 538 0
DWIDTH 7 0
BBX 7 13 0 -3
BITMAP
00
00
60
60
6C
6C
60
60
66
7C
00
00
00
ENDCHAR
STARTCHAR ldot
ENCODING 320
SWIDTH 538 0
DWIDTH 7 0
BBX 7 13 0 -3
BITMAP
00
70
30
30
36
36
30
30
30
1E
00
00
00
ENDCHAR
STARTCHAR L
ENCODING 321
SWIDTH 538 0
DWIDTH 7 0
BBX 7 13 0 -3
BITMAP
00
00
60
60
78
70
E0
60
66
7C
00
00
00
ENDCHAR
STARTCHAR lslash
ENCODING 322
SWIDTH 538 0
DWIDTH 7 0
BBX 7 13 0 -3
BITMAP
00
70
30
3C
38
70
30
30
30
1E
00
00
00
ENDCHAR
STARTCHAR N
ENCODING 323
SWIDTH 538 0
DWIDTH 7 0
BBX 7 13 0 -3
BITMAP
0C
18
66
76
6E
66
66
66
66
66
00
00
00
ENDCHAR
STARTCHAR nacute
ENCODING 324
SWIDTH 538 0
DWIDTH 7 0
BBX 7 13 0 -3
BITMAP
00
0C
18
00
7C
66
66
66
66
66
00
00
00
ENDCHAR
STARTCHAR N
ENCODING 325
SWIDTH 538 0
DWIDTH 7 0
BBX 7 13 0 -3
BITMAP
00
00
66
76
6E
66
66
66
66
66
0C
38
00
ENDCHAR
STARTCHAR uni0146
ENCODING 326
SWIDTH 538 0
DWIDTH 7 0
BBX 7 13 0 -3
BITMAP
00
00
00
00
7C
66
66
66
66
66
0C
38
00
ENDCHAR
STARTCHAR N
ENCODING 327
SWIDTH 538 0
DWIDTH 7 0
BBX 7 13 0 -3
BITMAP
2C
18
66
76
6E
66
66
66
66
66
00
00
00
ENDCHAR
STARTCHAR ncaron
ENCODING 328
SWIDTH 538 0
DWIDTH 7 0
BBX 7 13 0 -3
BITMAP
00
2C
18
00
7C
66
66
66
66
66
00
00
00
ENDCHAR
STARTCHAR napostrophe
ENCODING 329
SWIDTH 538 0
DWIDTH 7 0
BBX 7 13 0 -3
BITMAP
00
30
60
00
7C
66
66
66
66
66
00
00
00
ENDCHAR
STARTCHAR N
ENCODING 330
SWIDTH 538 0
DWIDTH 7 0
BBX 7 13 0 -3
BITMAP
00
00
66
76
6E
66
66
66
66
66
06
1C
00
ENDCHAR
STARTCHAR eng
ENCODING 331
SWIDTH 538 0
DWIDTH 7 0
BBX 7 13 0 -3
BITMAP
00
00
00
00
7C
66
66
66
66
66
06
1C
00
ENDCHAR
STARTCHAR O
ENCODING 332
SWIDTH 538 0
DWIDTH 7 0
BBX 7 13 0 -3
BITMAP
3C
00
3E
66
66
66
66
66
66
3C
00
00
00
ENDCHAR
STARTCHAR omacron
ENCODING 333
SWIDTH 538 0
DWIDTH 7 0
BBX 7 13 0 -3
BITMAP
00
00
3C
00
3C
66
66
66
66
3C
00
00
00
ENDCHAR
STARTCHAR O
ENCODING 334
SWIDTH 538 0
DWIDTH 7 0
BBX 7 13 0 -3
BITMAP
26
1C
3E
66
66
66
66
66
66
3C
00
00
00
ENDCHAR
STARTCHAR obreve
ENCODING 335
SWIDTH 538 0
DWIDTH 7 0
BBX 7 13 0 -3
BITMAP
00
36
1C
00
3C
66
66
66
66
3C
00
00
00
ENDCHAR
STARTCHAR O
ENCODING 336
SWIDTH 538 0
DWIDTH 7 0
BBX 7 13 0 -3
BITMAP
2C
2C
3E
66
66
66
66
66
66
3C
00
00
00
ENDCHAR
STARTCHAR ohungarumlaut
ENCODING 337
SWIDTH 538 0
DWIDTH 7 0
BBX 7 13 0 -3
BITMAP
00
2C
2C
00
3C
66
66
66
66
3C
00
00
00
ENDCHAR
STARTCHAR AE
ENCODING 338
SWIDTH 538 0
DWIDTH 7 0
BBX 7 13 0 -3
BITMAP
00
00
7E
D8
D8
DC
D8
D8
D8
FE
00
00
00
ENDCHAR
STARTCHAR ae
ENCODING 339
SWIDTH 538 0
DWIDTH 7 0
BBX 7 13 0 -3
BITMAP
00
00
00
00
7C
DA
DE
D8
DA
FC
00
00
00
ENDCHAR
STARTCHAR R
ENCODING 340
SWIDTH 538 0
DWIDTH 7 0
BBX 7 13 0 -3
BITMAP
0C
18
7C
66
66
7C
6C
66
66
66
00
00
00
ENDCHAR
STARTCHAR racute
ENCODING 341
SWIDTH 538 0
DWIDTH 7 0
BBX 7 13 0 -3
BITMAP
00
0C
18
00
7C
66
60
60
60
60
00
00
00
ENDCHAR
STARTCHAR R
ENCODING 342
SWIDTH 538 0
DWIDTH 7 0
BBX 7 13 0 -3
BITMAP
00
00
7C
66
66
7C
6C
66
66
66
0C
38
00
ENDCHAR
STARTCHAR uni0157
ENCODING 343
SWIDTH 538 0
DWIDTH 7 0
BBX 7 13 0 -3
BITMAP
00
00
00
00
7C
66
60
60
60
60
0C
38
00
ENDCHAR
STARTCHAR R
ENCODING 344
SWIDTH 538 0
DWIDTH 7 0
BBX 7 13 0 -3
BITMAP
2C
18
7C
66
66
7C
6C
66
66
66
00
00
00
ENDCHAR
STARTCHAR rcaron
ENCODING 345
SWIDTH 538 0
DWIDTH 7 0
BBX 7 13 0 -3
BITMAP
00
2C
18
00
7C
66
60
60
60
60
00
00
00
ENDCHAR
STARTCHAR S
ENCODING 346
SWIDTH 538 0
DWIDTH 7 0
BBX 7 13 0 -3
BITMAP
0C
18
3C
66
60
7C
06
06
66
3C
00
00
00
ENDCHAR
STARTCHAR sacute
ENCODING 347
SWIDTH 538 0
DWIDTH 7 0
BBX 7 13 0 -3
BITMAP
00
0C
18
00
3E
60
7C
06
06
7C
00
00
00
ENDCHAR
STARTCHAR S
ENCODING 348
SWIDTH 538 0
DWIDTH 7 0
BBX 7 13 0 -3
BITMAP
18
2C
3C
66
60
7C
06
06
66
3C
00
00
00
ENDCHAR
STARTCHAR scircumflex
ENCODING 349
SWIDTH 538 0
DWIDTH 7 0
BBX 7 13 0 -3
BITMAP
00
18
2C
00
3E
60
7C
06
06
7C
00
00
00
ENDCHAR
STARTCHAR S
ENCODING 350
SWIDTH 538 0
DWIDTH 7 0
BBX 7 13 0 -3
BITMAP
00
00
3C
66
60
7C
06
06
66
3C
0C
38
00
ENDCHAR
STARTCHAR scedilla
ENCODING 351
SWIDTH 538 0
DWIDTH 7 0
BBX 7 13 0 -3
BITMAP
00
00
00
00
3E
60
7C
06
06
7C
0C
38
00
ENDCHAR
STARTCHAR S
ENCODING 352
SWIDTH 538 0
DWIDTH 7 0
BBX 7 13 0 -3
BITMAP
2C
18
3C
66
60
7C
06
06
66
3C
00
00
00
ENDCHAR
STARTCHAR scaron
ENCODING 353
SWIDTH 538 0
DWIDTH 7 0
BBX 7 13 0 -3
BITMAP
00
2C
18
00
3E
60
7C
06
06
7C
00
00
00
ENDCHAR
STARTCHAR T
ENCODING 354
SWIDTH 538 0
DWIDTH 7 0
BBX 7 13 0 -3
BITMAP
00
00
7E
18
18
18
18
18
18
18
0C
38
00
ENDCHAR
STARTCHAR uni0163
ENCODING 355
SWIDTH 538 0
DWIDTH 7 0
BBX 7 13 0 -3
BITMAP
00
30
30
30
3E
30
30
30
30
1E
0C
38
00
ENDCHAR
STARTCHAR T
ENCODING 356
SWIDTH 538 0
DWIDTH 7 0
BBX 7 13 0 -3
BITMAP
2C
18
7E
18
18
18
18
18
18
18
00
00
00
ENDCHAR
STARTCHAR tcaron
ENCODING 357
SWIDTH 538 0
DWIDTH 7 0
BBX 7 13 0 -3
BITMAP
00
36
3C
30
3E
30
30
30
30
1E
00
00
00
ENDCHAR
STARTCHAR T
ENCODING 358
SWIDTH 538 0
DWIDTH 7 0
BBX 7 13 0 -3
BITMAP
00
00
7E
18
18
3C
18
18
18
18
00
00
00
ENDCHAR
STARTCHAR tbar
ENCODING 359
SWIDTH 538 0
DWIDTH 7 0
BBX 7 13 0 -3
BITMAP
00
30
30
30
3E
30
3E
30
30
1E
00
00
00
ENDCHAR
STARTCHAR U
ENCODING 360
SWIDTH 538 0
DWIDTH 7 0
BBX 7 13 0 -3
BITMAP
36
2E
66
66
66
66
66
66
66
3E
00
00
00
ENDCHAR
STARTCHAR utilde
ENCODING 361
SWIDTH 538 0
DWIDTH 7 0
BBX 7 13 0 -3
BITMAP
00
36
2E
00
66
66
66
66
66
3E
00
00
00
ENDCHAR
STARTCHAR U
ENCODING 362
SWIDTH 538 0
DWIDTH 7 0
BBX 7 13 0 -3
BITMAP
3C
00
66
66
66
66
66
66
66
3E
00
00
00
ENDCHAR
STARTCHAR umacron
ENCODING 363
SWIDTH 538 0
DWIDTH 7 0
BBX 7 13 0 -3
BITMAP
00
00
3C
00
66
66
66
66
66
3E
00
00
00
ENDCHAR
STARTCHAR U
ENCODING 364
SWIDTH 538 0
DWIDTH 7 0
BBX 7 13 0 -3
BITMAP
36
1C
66
66
66
66
66
66
66
3E
00
00
00
ENDCHAR
STARTCHAR ubreve
ENCODING 365
SWIDTH 538 0
DWIDTH 7 0
BBX 7 13 0 -3
BITMAP
00
36
1C
00
66
66
66
66
66
3E
00
00
00
ENDCHAR
STARTCHAR U
ENCODING 366
SWIDTH 538 0
DWIDTH 7 0
BBX 7 13 0 -3
BITMAP
3C
2C
7E
66
66
66
66
66
66
3E
00
00
00
ENDCHAR
STARTCHAR uring
ENCODING 367
SWIDTH 538 0
DWIDTH 7 0
BBX 7 13 0 -3
BITMAP
00
3C
2C
18
66
66
66
66
66
3E
00
00
00
ENDCHAR
STARTCHAR U
ENCODING 368
SWIDTH 538 0
DWIDTH 7 0
BBX 7 13 0 -3
BITMAP
2C
2C
66
66
66
66
66
66
66
3E
00
00
00
ENDCHAR
STARTCHAR uhungarumlaut
ENCODING 369
SWIDTH 538 0
DWIDTH 7 0
BBX 7 13 0 -3
BITMAP
00
2C
2C
00
66
66
66
66
66
3E
00
00
00
ENDCHAR
STARTCHAR U
ENCODING 370
SWIDTH 538 0
DWIDTH 7 0
BBX 7 13 0 -3
BITMAP
00
00
66
66
66
66
66
66
66
3E
30
1C
00
ENDCHAR
STARTCHAR uogonek
ENCODING 371
SWIDTH 538 0
DWIDTH 7 0
BBX 7 13 0 -3
BITMAP
00
00
00
00
66
66
66
66
66
3E
30
1C
00
ENDCHAR
STARTCHAR W
ENCODING 372
SWIDTH 538 0
DWIDTH 7 0
BBX 7 13 0 -3
BITMAP
18
2C
66
66
66
56
56
56
56
3E
00
00
00
ENDCHAR
STARTCHAR wcircumflex
ENCODING 373
SWIDTH 538 0
DWIDTH 7 0
BBX 7 13 0 -3
BITMAP
00
18
2C
00
66
66
56
56
56
3E
00
00
00
ENDCHAR
STARTCHAR Y
ENCODING 374
SWIDTH 538 0
DWIDTH 7 0
BBX 7 13 0 -3
BITMAP
18
2C
66
66
66
3E
06
06
66
3E
00
00
00
ENDCHAR
STARTCHAR ycircumflex
ENCODING 375
SWIDTH 538 0
DWIDTH 7 0
BBX 7 13 0 -3
BITMAP
00
18
2C
00
66
66
66
66
66
3E
06
7C
00
ENDCHAR
STARTCHAR Y
ENCODING 376
SWIDTH 538 0
DWIDTH 7 0
BBX 7 13 0 -3
BITMAP
2C
2C
66
66
66
3E
06
06
66
3E
00
00
00
ENDCHAR
STARTCHAR Z
ENCODING 377
SWIDTH 538 0
DWIDTH 7 0
BBX 7 13 0 -3
BITMAP
0C
18
7E
06
0C
18
30
60
60
3E
00
00
00
ENDCHAR
STARTCHAR zacute
ENCODING 378
SWIDTH 538 0
DWIDTH 7 0
BBX 7 13 0 -3
BITMAP
00
0C
18
00
7E
0C
18
30
60
3E
00
00
00
ENDCHAR
STARTCHAR Z
ENCODING 379
SWIDTH 538 0
DWIDTH 7 0
BBX 7 13 0 -3
BITMAP
18
18
7E
06
0C
18
30
60
60
3E
00
00
00
ENDCHAR
STARTCHAR zdotaccent
ENCODING 380
SWIDTH 538 0
DWIDTH 7 0
BBX 7 13 0 -3
BITMAP
00
18
18
00
7E
0C
18
30
60
3E
00
00
00
ENDCHAR
STARTCHAR Z
ENCODING 381
SWIDTH 538 0
DWIDTH 7 0
BBX 7 13 0 -3
BITMAP
2C
18
7E
06
0C
18
30
60
60
3E
00
00
00
ENDCHAR
STARTCHAR zcaron
ENCODING 382
SWIDTH 538 0
DWIDTH 7 0
BBX 7 13 0 -3
BITMAP
00
2C
18
00
7E
0C
18
30
60
3E
00
00
00
ENDCHAR
STARTCHAR florin
ENCODING 402
SWIDTH 538 0
DWIDTH 7 0
BBX 7 13 0 -3
BITMAP
00
0E
18
18
18
1E
18
18
18
18
70
00
00
ENDCHAR
STARTCHAR AE
ENCODING 508
SWIDTH 538 0
DWIDTH 7 0
BBX 7 13 0 -3
BITMAP
0C
18
7E
D8
D8
FC
D8
D8
D8
DE
00
00
00
ENDCHAR
STARTCHAR ae
ENCODING 509
SWIDTH 538 0
DWIDTH 7 0
BBX 7 13 0 -3
BITMAP
00
0C
18
00
7C
1A
7E
D8
DA
7C
00
00
00
ENDCHAR
STARTCHAR O
ENCODING 510
SWIDTH 538 0
DWIDTH 7 0
BBX 7 13 0 -3
BITMAP
0C
18
3A
66
6E
56
56
66
66
BC
00
00
00
ENDCHAR
STARTCHAR char111
ENCODING 511
SWIDTH 538 0
DWIDTH 7 0
BBX 7 13 0 -3
BITMAP
00
0C
18
02
3C
6E
56
56
66
7C
80
00
00
ENDCHAR
STARTCHAR S
ENCODING 536
SWIDTH 538 0
DWIDTH 7 0
BBX 7 13 0 -3
BITMAP
00
00
3C
66
60
7C
06
06
66
3C
0C
38
00
ENDCHAR
STARTCHAR char115
ENCODING 537
SWIDTH 538 0
DWIDTH 7 0
BBX 7 13 0 -3
BITMAP
00
00
00
00
3E
60
7C
06
06
7C
0C
38
00
ENDCHAR
STARTCHAR T
ENCODING 538
SWIDTH 538 0
DWIDTH 7 0
BBX 7 13 0 -3
BITMAP
00
00
7E
18
18
18
18
18
18
18
0C
38
00
ENDCHAR
STARTCHAR char116
ENCODING 539
SWIDTH 538 0
DWIDTH 7 0
BBX 7 13 0 -3
BITMAP
00
30
30
30
3E
30
30
30
30
1E
0C
38
00
ENDCHAR
STARTCHAR J
ENCODING 567
SWIDTH 538 0
DWIDTH 7 0
BBX 7 13 0 -3
BITMAP
00
00
3C
0C
0C
0C
0C
6C
6C
38
00
00
00
ENDCHAR
STARTCHAR uni0246
ENCODING 582
SWIDTH 538 0
DWIDTH 7 0
BBX 7 13 0 -3
BITMAP
00
04
7C
C8
C8
FC
D0
D0
D0
FC
20
00
00
ENDCHAR
STARTCHAR uni0247
ENCODING 583
SWIDTH 538 0
DWIDTH 7 0
BBX 7 13 0 -3
BITMAP
00
00
08
08
78
D4
FC
D0
D4
F8
20
20
00
ENDCHAR
STARTCHAR lambda
ENCODING 955
SWIDTH 538 0
DWIDTH 7 0
BBX 7 13 0 -3
BITMAP
00
00
E0
30
30
18
18
3C
6C
C6
00
00
00
ENDCHAR
STARTCHAR uni0410
ENCODING 1040
SWIDTH 538 0
DWIDTH 7 0
BBX 7 13 0 -3
BITMAP
00
00
7C
66
66
7E
66
66
66
66
00
00
00
ENDCHAR
STARTCHAR uni0411
ENCODING 1041
SWIDTH 538 0
DWIDTH 7 0
BBX 7 13 0 -3
BITMAP
00
00
7C
60
60
7C
66
66
66
7C
00
00
00
ENDCHAR
STARTCHAR uni0412
ENCODING 1042
SWIDTH 538 0
DWIDTH 7 0
BBX 7 13 0 -3
BITMAP
00
00
78
6C
6C
7C
66
66
66
7C
00
00
00
ENDCHAR
STARTCHAR uni0413
ENCODING 1043
SWIDTH 538 0
DWIDTH 7 0
BBX 7 13 0 -3
BITMAP
00
00
7C
60
60
60
60
60
60
60
00
00
00
ENDCHAR
STARTCHAR uni0414
ENCODING 1044
SWIDTH 538 0
DWIDTH 7 0
BBX 7 13 0 -3
BITMAP
00
00
78
6C
6C
6C
6C
6C
FE
C2
C2
00
00
ENDCHAR
STARTCHAR uni0415
ENCODING 1045
SWIDTH 538 0
DWIDTH 7 0
BBX 7 13 0 -3
BITMAP
00
00
3E
60
60
7C
60
60
60
7E
00
00
00
ENDCHAR
STARTCHAR uni0416
ENCODING 1046
SWIDTH 538 0
DWIDTH 7 0
BBX 7 13 0 -3
BITMAP
00
00
D6
D6
D6
7C
54
D6
D6
D6
00
00
00
ENDCHAR
STARTCHAR uni0417
ENCODING 1047
SWIDTH 538 0
DWIDTH 7 0
BBX 7 13 0 -3
BITMAP
00
00
3C
66
06
3E
06
06
66
3C
00
00
00
ENDCHAR
STARTCHAR uni0418
ENCODING 1048
SWIDTH 538 0
DWIDTH 7 0
BBX 7 13 0 -3
BITMAP
00
00
66
66
66
66
6E
76
66
66
00
00
00
ENDCHAR
STARTCHAR uni0419
ENCODING 1049
SWIDTH 538 0
DWIDTH 7 0
BBX 7 13 0 -3
BITMAP
2C
18
66
66
66
66
6E
76
66
66
00
00
00
ENDCHAR
STARTCHAR uni041A
ENCODING 1050
SWIDTH 538 0
DWIDTH 7 0
BBX 7 13 0 -3
BITMAP
00
00
66
6C
78
78
6C
66
66
66
00
00
00
ENDCHAR
STARTCHAR uni041B
ENCODING 1051
SWIDTH 538 0
DWIDTH 7 0
BBX 7 13 0 -3
BITMAP
00
00
3E
66
66
66
66
66
66
C6
00
00
00
ENDCHAR
STARTCHAR uni041C
ENCODING 1052
SWIDTH 538 0
DWIDTH 7 0
BBX 7 13 0 -3
BITMAP
00
00
7C
7E
56
56
56
66
66
66
00
00
00
ENDCHAR
STARTCHAR uni041D
ENCODING 1053
SWIDTH 538 0
DWIDTH 7 0
BBX 7 13 0 -3
BITMAP
00
00
66
66
66
7E
66
66
66
66
00
00
00
ENDCHAR
STARTCHAR uni041E
ENCODING 1054
SWIDTH 538 0
DWIDTH 7 0
BBX 7 13 0 -3
BITMAP
00
00
3E
66
66
66
66
66
66
3C
00
00
00
ENDCHAR
STARTCHAR uni041F
ENCODING 1055
SWIDTH 538 0
DWIDTH 7 0
BBX 7 13 0 -3
BITMAP
00
00
7C
66
66
66
66
66
66
66
00
00
00
ENDCHAR
STARTCHAR uni0420
ENCODING 1056
SWIDTH 538 0
DWIDTH 7 0
BBX 7 13 0 -3
BITMAP
00
00
7C
66
66
66
7C
60
60
60
00
00
00
ENDCHAR
STARTCHAR uni0421
ENCODING 1057
SWIDTH 538 0
DWIDTH 7 0
BBX 7 13 0 -3
BITMAP
00
00
3C
66
60
60
60
60
66
7C
00
00
00
ENDCHAR
STARTCHAR uni0422
ENCODING 1058
SWIDTH 538 0
DWIDTH 7 0
BBX 7 13 0 -3
BITMAP
00
00
7E
18
18
18
18
18
18
18
00
00
00
ENDCHAR
STARTCHAR uni0423
ENCODING 1059
SWIDTH 538 0
DWIDTH 7 0
BBX 7 13 0 -3
BITMAP
00
00
66
66
66
3E
06
06
66
3E
00
00
00
ENDCHAR
STARTCHAR uni0424
ENCODING 1060
SWIDTH 538 0
DWIDTH 7 0
BBX 7 13 0 -3
BITMAP
00
10
7E
D6
D6
D6
D6
D6
D6
FC
10
00
00
ENDCHAR
STARTCHAR uni0425
ENCODING 1061
SWIDTH 538 0
DWIDTH 7 0
BBX 7 13 0 -3
BITMAP
00
00
66
66
3C
18
3C
66
66
66
00
00
00
ENDCHAR
STARTCHAR uni0426
ENCODING 1062
SWIDTH 538 0
DWIDTH 7 0
BBX 7 13 0 -3
BITMAP
00
00
6C
6C
6C
6C
6C
6C
3E
02
02
00
00
ENDCHAR
STARTCHAR uni0427
ENCODING 1063
SWIDTH 538 0
DWIDTH 7 0
BBX 7 13 0 -3
BITMAP
00
00
66
66
66
66
3E
06
06
06
00
00
00
ENDCHAR
STARTCHAR uni0428
ENCODING 1064
SWIDTH 538 0
DWIDTH 7 0
BBX 7 13 0 -3
BITMAP
00
00
56
56
56
56
56
56
7E
3E
00
00
00
ENDCHAR
STARTCHAR uni0429
ENCODING 1065
SWIDTH 538 0
DWIDTH 7 0
BBX 7 13 0 -3
BITMAP
00
00
56
56
56
56
56
56
7C
3E
02
04
00
ENDCHAR
STARTCHAR uni042A
ENCODING 1066
SWIDTH 538 0
DWIDTH 7 0
BBX 7 13 0 -3
BITMAP
00
00
E0
60
60
7E
66
66
66
7C
00
00
00
ENDCHAR
STARTCHAR uni042B
ENCODING 1067
SWIDTH 538 0
DWIDTH 7 0
BBX 7 13 0 -3
BITMAP
00
00
66
66
66
7E
6E
6E
6E
76
00
00
00
ENDCHAR
STARTCHAR uni042C
ENCODING 1068
SWIDTH 538 0
DWIDTH 7 0
BBX 7 13 0 -3
BITMAP
00
00
60
60
60
7E
66
66
66
7C
00
00
00
ENDCHAR
STARTCHAR uni042D
ENCODING 1069
SWIDTH 538 0
DWIDTH 7 0
BBX 7 13 0 -3
BITMAP
00
00
78
0C
06
3E
06
06
0C
78
00
00
00
ENDCHAR
STARTCHAR uni042E
ENCODING 1070
SWIDTH 538 0
DWIDTH 7 0
BBX 7 13 0 -3
BITMAP
00
00
CE
D6
D6
F6
D6
D6
D6
DC
00
00
00
ENDCHAR
STARTCHAR uni042F
ENCODING 1071
SWIDTH 538 0
DWIDTH 7 0
BBX 7 13 0 -3
BITMAP
00
00
3E
66
66
3E
26
66
66
66
00
00
00
ENDCHAR
STARTCHAR uni0430
ENCODING 1072
SWIDTH 538 0
DWIDTH 7 0
BBX 7 13 0 -3
BITMAP
00
00
00
00
3C
06
3E
66
66
3E
00
00
00
ENDCHAR
STARTCHAR uni0431
ENCODING 1073
SWIDTH 538 0
DWIDTH 7 0
BBX 7 13 0 -3
BITMAP
00
00
00
00
7C
60
7C
66
66
7C
00
00
00
ENDCHAR
STARTCHAR uni0432
ENCODING 1074
SWIDTH 538 0
DWIDTH 7 0
BBX 7 13 0 -3
BITMAP
00
00
00
00
78
6C
7C
66
66
7C
00
00
00
ENDCHAR
STARTCHAR uni0433
ENCODING 1075
SWIDTH 538 0
DWIDTH 7 0
BBX 7 13 0 -3
BITMAP
00
00
00
00
3E
60
60
60
60
60
00
00
00
ENDCHAR
STARTCHAR uni0434
ENCODING 1076
SWIDTH 538 0
DWIDTH 7 0
BBX 7 13 0 -3
BITMAP
00
00
00
00
3E
66
66
66
66
3E
06
3C
00
ENDCHAR
STARTCHAR uni0435
ENCODING 1077
SWIDTH 538 0
DWIDTH 7 0
BBX 7 13 0 -3
BITMAP
00
00
00
00
3C
66
7E
60
66
7C
00
00
00
ENDCHAR
STARTCHAR uni0436
ENCODING 1078
SWIDTH 538 0
DWIDTH 7 0
BBX 7 13 0 -3
BITMAP
00
00
00
00
D6
D6
7C
54
D6
D6
00
00
00
ENDCHAR
STARTCHAR uni0437
ENCODING 1079
SWIDTH 538 0
DWIDTH 7 0
BBX 7 13 0 -3
BITMAP
00
00
00
00
3C
66
1E
06
66
3C
00
00
00
ENDCHAR
STARTCHAR uni0438
ENCODING 1080
SWIDTH 538 0
DWIDTH 7 0
BBX 7 13 0 -3
BITMAP
00
00
00
00
66
6E
76
66
66
66
00
00
00
ENDCHAR
STARTCHAR uni0439
ENCODING 1081
SWIDTH 538 0
DWIDTH 7 0
BBX 7 13 0 -3
BITMAP
00
00
2C
18
66
6E
76
66
66
66
00
00
00
ENDCHAR
STARTCHAR uni043A
ENCODING 1082
SWIDTH 538 0
DWIDTH 7 0
BBX 7 13 0 -3
BITMAP
00
00
00
00
66
6C
78
6C
66
66
00
00
00
ENDCHAR
STARTCHAR uni043B
ENCODING 1083
SWIDTH 538 0
DWIDTH 7 0
BBX 7 13 0 -3
BITMAP
00
00
00
00
3E
66
66
66
66
C6
00
00
00
ENDCHAR
STARTCHAR uni043C
ENCODING 1084
SWIDTH 538 0
DWIDTH 7 0
BBX 7 13 0 -3
BITMAP
00
00
00
00
7C
56
56
56
66
66
00
00
00
ENDCHAR
STARTCHAR uni043D
ENCODING 1085
SWIDTH 538 0
DWIDTH 7 0
BBX 7 13 0 -3
BITMAP
00
00
00
00
66
66
7E
66
66
66
00
00
00
ENDCHAR
STARTCHAR uni043E
ENCODING 1086
SWIDTH 538 0
DWIDTH 7 0
BBX 7 13 0 -3
BITMAP
00
00
00
00
3C
66
66
66
66
3C
00
00
00
ENDCHAR
STARTCHAR uni043F
ENCODING 1087
SWIDTH 538 0
DWIDTH 7 0
BBX 7 13 0 -3
BITMAP
00
00
00
00
7C
66
66
66
66
66
00
00
00
ENDCHAR
STARTCHAR uni0440
ENCODING 1088
SWIDTH 538 0
DWIDTH 7 0
BBX 7 13 0 -3
BITMAP
00
00
00
00
7C
66
66
66
66
7C
60
60
00
ENDCHAR
STARTCHAR uni0441
ENCODING 1089
SWIDTH 538 0
DWIDTH 7 0
BBX 7 13 0 -3
BITMAP
00
00
00
00
3C
66
60
60
66
7C
00
00
00
ENDCHAR
STARTCHAR uni0442
ENCODING 1090
SWIDTH 538 0
DWIDTH 7 0
BBX 7 13 0 -3
BITMAP
00
00
00
00
7E
18
18
18
18
18
00
00
00
ENDCHAR
STARTCHAR uni0443
ENCODING 1091
SWIDTH 538 0
DWIDTH 7 0
BBX 7 13 0 -3
BITMAP
00
00
00
00
66
66
66
66
66
3E
06
7C
00
ENDCHAR
STARTCHAR uni0444
ENCODING 1092
SWIDTH 538 0
DWIDTH 7 0
BBX 7 13 0 -3
BITMAP
00
00
00
10
7E
D6
D6
D6
D6
FC
10
00
00
ENDCHAR
STARTCHAR uni0445
ENCODING 1093
SWIDTH 538 0
DWIDTH 7 0
BBX 7 13 0 -3
BITMAP
00
00
00
00
66
3C
18
3C
66
66
00
00
00
ENDCHAR
STARTCHAR uni0446
ENCODING 1094
SWIDTH 538 0
DWIDTH 7 0
BBX 7 13 0 -3
BITMAP
00
00
00
00
6C
6C
6C
6C
6C
3E
02
00
00
ENDCHAR
STARTCHAR uni0447
ENCODING 1095
SWIDTH 538 0
DWIDTH 7 0
BBX 7 13 0 -3
BITMAP
00
00
00
00
66
66
3E
06
06
06
00
00
00
ENDCHAR
STARTCHAR uni0448
ENCODING 1096
SWIDTH 538 0
DWIDTH 7 0
BBX 7 13 0 -3
BITMAP
00
00
00
00
56
56
56
56
56
3E
00
00
00
ENDCHAR
STARTCHAR uni0449
ENCODING 1097
SWIDTH 538 0
DWIDTH 7 0
BBX 7 13 0 -3
BITMAP
00
00
00
00
56
56
56
56
56
3E
02
04
00
ENDCHAR
STARTCHAR uni044A
ENCODING 1098
SWIDTH 538 0
DWIDTH 7 0
BBX 7 13 0 -3
BITMAP
00
00
00
00
E0
60
7C
66
66
7C
00
00
00
ENDCHAR
STARTCHAR uni044B
ENCODING 1099
SWIDTH 538 0
DWIDTH 7 0
BBX 7 13 0 -3
BITMAP
00
00
00
00
C6
C6
FE
DE
DE
F6
00
00
00
ENDCHAR
STARTCHAR uni044C
ENCODING 1100
SWIDTH 538 0
DWIDTH 7 0
BBX 7 13 0 -3
BITMAP
00
00
00
00
60
60
7E
66
66
7C
00
00
00
ENDCHAR
STARTCHAR uni044D
ENCODING 1101
SWIDTH 538 0
DWIDTH 7 0
BBX 7 13 0 -3
BITMAP
00
00
00
00
78
0C
3E
06
0C
78
00
00
00
ENDCHAR
STARTCHAR uni044E
ENCODING 1102
SWIDTH 538 0
DWIDTH 7 0
BBX 7 13 0 -3
BITMAP
00
00
00
00
CE
D6
F6
D6
D6
DC
00
00
00
ENDCHAR
STARTCHAR uni044F
ENCODING 1103
SWIDTH 538 0
DWIDTH 7 0
BBX 7 13 0 -3
BITMAP
00
00
00
00
3E
66
66
3E
36
66
00
00
00
ENDCHAR
STARTCHAR uni0FD6
ENCODING 4054
SWIDTH 538 0
DWIDTH 7 0
BBX 7 13 0 -3
BITMAP
00
00
00
F2
12
12
FE
90
90
9E
00
00
00
ENDCHAR
STARTCHAR uni16A0
ENCODING 5792
SWIDTH 538 0
DWIDTH 7 0
BBX 7 13 0 -3
BITMAP
00
00
4A
4A
72
44
48
70
40
40
40
00
00
ENDCHAR
STARTCHAR uni16A1
ENCODING 5793
SWIDTH 538 0
DWIDTH 7 0
BBX 7 13 0 -3
BITMAP
00
10
6A
4A
72
44
48
70
40
40
40
00
00
ENDCHAR
STARTCHAR uni16A2
ENCODING 5794
SWIDTH 538 0
DWIDTH 7 0
BBX 7 13 0 -3
BITMAP
00
00
70
48
44
44
44
44
44
44
44
00
00
ENDCHAR
STARTCHAR uni16A3
ENCODING 5795
SWIDTH 538 0
DWIDTH 7 0
BBX 7 13 0 -3
BITMAP
00
00
40
60
60
50
50
48
48
44
44
00
00
ENDCHAR
STARTCHAR uni16A4
ENCODING 5796
SWIDTH 538 0
DWIDTH 7 0
BBX 7 13 0 -3
BITMAP
00
00
70
48
44
44
54
54
44
44
44
00
00
ENDCHAR
STARTCHAR uni16A5
ENCODING 5797
SWIDTH 538 0
DWIDTH 7 0
BBX 7 13 0 -3
BITMAP
00
00
70
48
64
54
54
54
54
54
54
00
00
ENDCHAR
STARTCHAR uni16A6
ENCODING 5798
SWIDTH 538 0
DWIDTH 7 0
BBX 7 13 0 -3
BITMAP
00
00
40
70
48
44
44
44
48
70
40
00
00
ENDCHAR
STARTCHAR uni16A7
ENCODING 5799
SWIDTH 538 0
DWIDTH 7 0
BBX 7 13 0 -3
BITMAP
00
00
40
70
48
44
54
44
48
70
40
00
00
ENDCHAR
STARTCHAR uni16A8
ENCODING 5800
SWIDTH 538 0
DWIDTH 7 0
BBX 7 13 0 -3
BITMAP
00
00
10
18
14
18
14
10
10
10
10
00
00
ENDCHAR
STARTCHAR uni16A9
ENCODING 5801
SWIDTH 538 0
DWIDTH 7 0
BBX 7 13 0 -3
BITMAP
00
00
44
68
50
44
68
50
40
40
40
00
00
ENDCHAR
STARTCHAR uni16AA
ENCODING 5802
SWIDTH 538 0
DWIDTH 7 0
BBX 7 13 0 -3
BITMAP
00
00
44
68
50
40
60
50
40
40
40
00
00
ENDCHAR
STARTCHAR uni16AB
ENCODING 5803
SWIDTH 538 0
DWIDTH 7 0
BBX 7 13 0 -3
BITMAP
00
00
10
18
14
10
18
14
10
10
10
00
00
ENDCHAR
STARTCHAR uni16AC
ENCODING 5804
SWIDTH 538 0
DWIDTH 7 0
BBX 7 13 0 -3
BITMAP
00
00
10
50
30
18
54
30
18
14
10
00
00
ENDCHAR
STARTCHAR uni16AD
ENCODING 5805
SWIDTH 538 0
DWIDTH 7 0
BBX 7 13 0 -3
BITMAP
00
00
10
10
10
18
14
10
18
14
10
00
00
ENDCHAR
STARTCHAR uni16AE
ENCODING 5806
SWIDTH 538 0
DWIDTH 7 0
BBX 7 13 0 -3
BITMAP
00
00
10
10
10
30
50
10
30
50
10
00
00
ENDCHAR
STARTCHAR uni16AF
ENCODING 5807
SWIDTH 538 0
DWIDTH 7 0
BBX 7 13 0 -3
BITMAP
00
00
10
14
18
30
54
18
30
50
10
00
00
ENDCHAR
STARTCHAR uni16B0
ENCODING 5808
SWIDTH 538 0
DWIDTH 7 0
BBX 7 13 0 -3
BITMAP
00
00
10
14
18
30
50
10
30
50
10
00
00
ENDCHAR
STARTCHAR uni16B1
ENCODING 5809
SWIDTH 538 0
DWIDTH 7 0
BBX 7 13 0 -3
BITMAP
00
00
60
58
44
58
60
50
48
44
40
00
00
ENDCHAR
STARTCHAR uni16B2
ENCODING 5810
SWIDTH 538 0
DWIDTH 7 0
BBX 7 13 0 -3
BITMAP
00
00
00
00
08
10
30
10
08
00
00
00
00
ENDCHAR
STARTCHAR uni16B3
ENCODING 5811
SWIDTH 538 0
DWIDTH 7 0
BBX 7 13 0 -3
BITMAP
00
00
40
40
40
40
40
60
50
48
44
00
00
ENDCHAR
STARTCHAR uni16B4
ENCODING 5812
SWIDTH 538 0
DWIDTH 7 0
BBX 7 13 0 -3
BITMAP
00
00
44
44
48
70
40
40
40
40
40
00
00
ENDCHAR
STARTCHAR uni16B5
ENCODING 5813
SWIDTH 538 0
DWIDTH 7 0
BBX 7 13 0 -3
BITMAP
00
00
54
44
48
70
40
40
40
40
40
00
00
ENDCHAR
STARTCHAR uni16B6
ENCODING 5814
SWIDTH 538 0
DWIDTH 7 0
BBX 7 13 0 -3
BITMAP
00
00
44
44
68
F0
E0
40
40
40
40
00
00
ENDCHAR
STARTCHAR uni16B7
ENCODING 5815
SWIDTH 538 0
DWIDTH 7 0
BBX 7 13 0 -3
BITMAP
00
00
44
44
28
28
10
28
28
44
44
00
00
ENDCHAR
STARTCHAR uni16B8
ENCODING 5816
SWIDTH 538 0
DWIDTH 7 0
BBX 7 13 0 -3
BITMAP
00
00
44
44
28
6C
92
6C
28
44
44
00
00
ENDCHAR
STARTCHAR uni16B9
ENCODING 5817
SWIDTH 538 0
DWIDTH 7 0
BBX 7 13 0 -3
BITMAP
00
00
40
60
50
48
50
60
40
40
40
00
00
ENDCHAR
STARTCHAR uni16BA
ENCODING 5818
SWIDTH 538 0
DWIDTH 7 0
BBX 7 13 0 -3
BITMAP
00
00
44
44
44
44
64
54
4C
44
44
00
00
ENDCHAR
STARTCHAR uni16BB
ENCODING 5819
SWIDTH 538 0
DWIDTH 7 0
BBX 7 13 0 -3
BITMAP
00
00
44
44
64
54
6C
54
4C
44
44
00
00
ENDCHAR
STARTCHAR uni16BC
ENCODING 5820
SWIDTH 538 0
DWIDTH 7 0
BBX 7 13 0 -3
BITMAP
00
00
10
10
54
38
10
38
54
10
10
00
00
ENDCHAR
STARTCHAR uni16BD
ENCODING 5821
SWIDTH 538 0
DWIDTH 7 0
BBX 7 13 0 -3
BITMAP
00
00
10
10
10
38
38
10
10
10
10
00
00
ENDCHAR
STARTCHAR uni16BE
ENCODING 5822
SWIDTH 538 0
DWIDTH 7 0
BBX 7 13 0 -3
BITMAP
00
00
10
50
30
18
14
10
10
10
10
00
00
ENDCHAR
STARTCHAR uni16BF
ENCODING 5823
SWIDTH 538 0
DWIDTH 7 0
BBX 7 13 0 -3
BITMAP
00
00
10
10
10
18
14
10
10
10
10
00
00
ENDCHAR
STARTCHAR uni16C0
ENCODING 5824
SWIDTH 538 0
DWIDTH 7 0
BBX 7 13 0 -3
BITMAP
00
00
10
10
50
38
38
14
10
10
10
00
00
ENDCHAR
STARTCHAR uni16C1
ENCODING 5825
SWIDTH 538 0
DWIDTH 7 0
BBX 7 13 0 -3
BITMAP
00
00
10
10
10
10
10
10
10
10
10
00
00
ENDCHAR
STARTCHAR uni16C2
ENCODING 5826
SWIDTH 538 0
DWIDTH 7 0
BBX 7 13 0 -3
BITMAP
00
00
10
10
10
38
38
10
10
10
10
00
00
ENDCHAR
STARTCHAR uni16C3
ENCODING 5827
SWIDTH 538 0
DWIDTH 7 0
BBX 7 13 0 -3
BITMAP
00
00
00
10
20
68
24
16
04
08
00
00
00
ENDCHAR
STARTCHAR uni16C4
ENCODING 5828
SWIDTH 538 0
DWIDTH 7 0
BBX 7 13 0 -3
BITMAP
00
00
10
10
38
54
92
54
38
10
10
00
00
ENDCHAR
STARTCHAR uni16C5
ENCODING 5829
SWIDTH 538 0
DWIDTH 7 0
BBX 7 13 0 -3
BITMAP
00
00
10
14
18
30
50
10
10
10
10
00
00
ENDCHAR
STARTCHAR uni16C6
ENCODING 5830
SWIDTH 538 0
DWIDTH 7 0
BBX 7 13 0 -3
BITMAP
00
00
10
10
10
30
50
10
10
10
10
00
00
ENDCHAR
STARTCHAR uni16C7
ENCODING 5831
SWIDTH 538 0
DWIDTH 7 0
BBX 7 13 0 -3
BITMAP
00
00
10
18
14
10
10
10
50
30
10
00
00
ENDCHAR
STARTCHAR uni16C8
ENCODING 5832
SWIDTH 538 0
DWIDTH 7 0
BBX 7 13 0 -3
BITMAP
00
00
44
68
50
40
40
40
50
68
44
00
00
ENDCHAR
STARTCHAR uni16C9
ENCODING 5833
SWIDTH 538 0
DWIDTH 7 0
BBX 7 13 0 -3
BITMAP
00
00
10
54
38
10
10
10
10
10
10
00
00
ENDCHAR
STARTCHAR uni16CA
ENCODING 5834
SWIDTH 538 0
DWIDTH 7 0
BBX 7 13 0 -3
BITMAP
00
08
10
30
10
08
08
10
30
10
08
00
00
ENDCHAR
STARTCHAR uni16CB
ENCODING 5835
SWIDTH 538 0
DWIDTH 7 0
BBX 7 13 0 -3
BITMAP
00
00
40
40
44
4C
54
64
44
04
04
00
00
ENDCHAR
STARTCHAR uni16CC
ENCODING 5836
SWIDTH 538 0
DWIDTH 7 0
BBX 7 13 0 -3
BITMAP
00
00
10
10
10
10
00
00
00
00
00
00
00
ENDCHAR
STARTCHAR uni16CD
ENCODING 5837
SWIDTH 538 0
DWIDTH 7 0
BBX 7 13 0 -3
BITMAP
00
00
10
10
10
38
38
00
00
00
00
00
00
ENDCHAR
STARTCHAR uni16CE
ENCODING 5838
SWIDTH 538 0
DWIDTH 7 0
BBX 7 13 0 -3
BITMAP
00
00
10
10
54
38
10
00
00
00
00
00
00
ENDCHAR
STARTCHAR uni16CF
ENCODING 5839
SWIDTH 538 0
DWIDTH 7 0
BBX 7 13 0 -3
BITMAP
00
00
10
38
54
10
10
10
10
10
10
00
00
ENDCHAR
STARTCHAR uni16D0
ENCODING 5840
SWIDTH 538 0
DWIDTH 7 0
BBX 7 13 0 -3
BITMAP
00
00
10
30
50
10
10
10
10
10
10
00
00
ENDCHAR
STARTCHAR uni16D1
ENCODING 5841
SWIDTH 538 0
DWIDTH 7 0
BBX 7 13 0 -3
BITMAP
00
00
10
30
50
38
38
10
10
10
10
00
00
ENDCHAR
STARTCHAR uni16D2
ENCODING 5842
SWIDTH 538 0
DWIDTH 7 0
BBX 7 13 0 -3
BITMAP
00
00
60
58
44
58
60
58
44
58
60
00
00
ENDCHAR
STARTCHAR uni16D3
ENCODING 5843
SWIDTH 538 0
DWIDTH 7 0
BBX 7 13 0 -3
BITMAP
00
00
10
10
14
18
10
14
18
10
10
00
00
ENDCHAR
STARTCHAR uni16D4
ENCODING 5844
SWIDTH 538 0
DWIDTH 7 0
BBX 7 13 0 -3
BITMAP
00
00
78
44
54
44
78
44
54
44
78
00
00
ENDCHAR
STARTCHAR uni16D5
ENCODING 5845
SWIDTH 538 0
DWIDTH 7 0
BBX 7 13 0 -3
BITMAP
00
00
44
48
50
60
40
60
50
48
44
00
00
ENDCHAR
STARTCHAR uni16D6
ENCODING 5846
SWIDTH 538 0
DWIDTH 7 0
BBX 7 13 0 -3
BITMAP
00
00
44
6C
54
44
44
44
44
44
44
00
00
ENDCHAR
STARTCHAR uni16D7
ENCODING 5847
SWIDTH 538 0
DWIDTH 7 0
BBX 7 13 0 -3
BITMAP
00
00
44
6C
54
6C
44
44
44
44
44
00
00
ENDCHAR
STARTCHAR uni16D8
ENCODING 5848
SWIDTH 538 0
DWIDTH 7 0
BBX 7 13 0 -3
BITMAP
00
00
54
54
54
38
10
10
10
10
10
00
00
ENDCHAR
STARTCHAR uni16D9
ENCODING 5849
SWIDTH 538 0
DWIDTH 7 0
BBX 7 13 0 -3
BITMAP
00
00
38
38
10
10
10
10
10
10
10
00
00
ENDCHAR
STARTCHAR uni16DA
ENCODING 5850
SWIDTH 538 0
DWIDTH 7 0
BBX 7 13 0 -3
BITMAP
00
00
10
18
14
10
10
10
10
10
10
00
00
ENDCHAR
STARTCHAR uni16DB
ENCODING 5851
SWIDTH 538 0
DWIDTH 7 0
BBX 7 13 0 -3
BITMAP
00
00
10
18
14
38
38
10
10
10
10
00
00
ENDCHAR
STARTCHAR uni16DC
ENCODING 5852
SWIDTH 538 0
DWIDTH 7 0
BBX 7 13 0 -3
BITMAP
00
00
00
00
10
28
6C
28
10
00
00
00
00
ENDCHAR
STARTCHAR uni16DD
ENCODING 5853
SWIDTH 538 0
DWIDTH 7 0
BBX 7 13 0 -3
BITMAP
00
00
44
28
10
28
44
28
10
28
44
00
00
ENDCHAR
STARTCHAR uni16DE
ENCODING 5854
SWIDTH 538 0
DWIDTH 7 0
BBX 7 13 0 -3
BITMAP
00
00
44
44
6C
54
54
54
6C
44
44
00
00
ENDCHAR
STARTCHAR uni16DF
ENCODING 5855
SWIDTH 538 0
DWIDTH 7 0
BBX 7 13 0 -3
BITMAP
00
00
00
10
28
44
28
10
28
44
00
00
00
ENDCHAR
STARTCHAR uni16E0
ENCODING 5856
SWIDTH 538 0
DWIDTH 7 0
BBX 7 13 0 -3
BITMAP
00
00
10
BA
54
10
10
10
10
10
10
00
00
ENDCHAR
STARTCHAR uni16E1
ENCODING 5857
SWIDTH 538 0
DWIDTH 7 0
BBX 7 13 0 -3
BITMAP
00
00
10
10
54
38
10
38
54
10
10
00
00
ENDCHAR
STARTCHAR uni16E2
ENCODING 5858
SWIDTH 538 0
DWIDTH 7 0
BBX 7 13 0 -3
BITMAP
00
00
10
1A
14
10
10
10
50
B0
10
00
00
ENDCHAR
STARTCHAR uni16E3
ENCODING 5859
SWIDTH 538 0
DWIDTH 7 0
BBX 7 13 0 -3
BITMAP
00
00
10
10
10
10
10
10
38
54
10
00
00
ENDCHAR
STARTCHAR uni16E4
ENCODING 5860
SWIDTH 538 0
DWIDTH 7 0
BBX 7 13 0 -3
BITMAP
00
00
54
54
38
7C
92
7C
38
54
54
00
00
ENDCHAR
STARTCHAR uni16E5
ENCODING 5861
SWIDTH 538 0
DWIDTH 7 0
BBX 7 13 0 -3
BITMAP
00
00
44
6C
54
6C
44
6C
54
6C
44
00
00
ENDCHAR
STARTCHAR uni16E6
ENCODING 5862
SWIDTH 538 0
DWIDTH 7 0
BBX 7 13 0 -3
BITMAP
00
00
10
10
10
10
10
38
54
54
54
00
00
ENDCHAR
STARTCHAR uni16E7
ENCODING 5863
SWIDTH 538 0
DWIDTH 7 0
BBX 7 13 0 -3
BITMAP
00
00
00
00
00
00
00
10
10
10
10
00
00
ENDCHAR
STARTCHAR uni16E8
ENCODING 5864
SWIDTH 538 0
DWIDTH 7 0
BBX 7 13 0 -3
BITMAP
00
00
10
38
54
10
10
10
54
38
10
00
00
ENDCHAR
STARTCHAR uni16E9
ENCODING 5865
SWIDTH 538 0
DWIDTH 7 0
BBX 7 13 0 -3
BITMAP
00
00
10
30
50
30
10
10
10
10
10
00
00
ENDCHAR
STARTCHAR uni16EA
ENCODING 5866
SWIDTH 538 0
DWIDTH 7 0
BBX 7 13 0 -3
BITMAP
00
00
40
E0
44
4C
54
64
44
0E
04
00
00
ENDCHAR
STARTCHAR uni16EB
ENCODING 5867
SWIDTH 538 0
DWIDTH 7 0
BBX 7 13 0 -3
BITMAP
00
00
00
00
00
30
30
00
00
00
00
00
00
ENDCHAR
STARTCHAR uni16EC
ENCODING 5868
SWIDTH 538 0
DWIDTH 7 0
BBX 7 13 0 -3
BITMAP
00
00
00
30
30
00
00
30
30
00
00
00
00
ENDCHAR
STARTCHAR uni16ED
ENCODING 5869
SWIDTH 538 0
DWIDTH 7 0
BBX 7 13 0 -3
BITMAP
00
00
00
38
10
54
7C
54
10
38
00
00
00
ENDCHAR
STARTCHAR uni16EE
ENCODING 5870
SWIDTH 538 0
DWIDTH 7 0
BBX 7 13 0 -3
BITMAP
00
00
10
18
14
10
30
50
10
10
10
00
00
ENDCHAR
STARTCHAR uni16EF
ENCODING 5871
SWIDTH 538 0
DWIDTH 7 0
BBX 7 13 0 -3
BITMAP
00
00
54
54
54
38
10
38
54
54
54
00
00
ENDCHAR
STARTCHAR uni16F0
ENCODING 5872
SWIDTH 538 0
DWIDTH 7 0
BBX 7 13 0 -3
BITMAP
00
00
10
10
38
54
54
54
38
10
10
00
00
ENDCHAR
STARTCHAR uni16F1
ENCODING 5873
SWIDTH 538 0
DWIDTH 7 0
BBX 7 13 0 -3
BITMAP
00
00
40
40
40
50
68
48
44
44
40
00
00
ENDCHAR
STARTCHAR uni16F2
ENCODING 5874
SWIDTH 538 0
DWIDTH 7 0
BBX 7 13 0 -3
BITMAP
00
00
04
04
44
64
54
4C
44
40
40
00
00
ENDCHAR
STARTCHAR uni16F3
ENCODING 5875
SWIDTH 538 0
DWIDTH 7 0
BBX 7 13 0 -3
BITMAP
00
00
10
38
54
38
10
10
10
10
10
00
00
ENDCHAR
STARTCHAR uni16F4
ENCODING 5876
SWIDTH 538 0
DWIDTH 7 0
BBX 7 13 0 -3
BITMAP
00
00
40
40
48
4C
54
64
24
04
04
00
00
ENDCHAR
STARTCHAR uni16F5
ENCODING 5877
SWIDTH 538 0
DWIDTH 7 0
BBX 7 13 0 -3
BITMAP
00
00
10
20
10
10
20
10
10
20
10
00
00
ENDCHAR
STARTCHAR uni16F6
ENCODING 5878
SWIDTH 538 0
DWIDTH 7 0
BBX 7 13 0 -3
BITMAP
00
00
40
40
24
28
10
28
48
04
04
00
00
ENDCHAR
STARTCHAR uni16F7
ENCODING 5879
SWIDTH 538 0
DWIDTH 7 0
BBX 7 13 0 -3
BITMAP
00
00
40
40
40
70
48
44
44
44
44
00
00
ENDCHAR
STARTCHAR uni16F8
ENCODING 5880
SWIDTH 538 0
DWIDTH 7 0
BBX 7 13 0 -3
BITMAP
00
00
10
10
10
10
10
10
28
44
00
00
00
ENDCHAR
STARTCHAR uni1D30
ENCODING 7472
SWIDTH 538 0
DWIDTH 7 0
BBX 7 13 0 -3
BITMAP
00
78
6C
6C
6C
78
00
00
00
00
00
00
00
ENDCHAR
STARTCHAR uni1D34
ENCODING 7476
SWIDTH 538 0
DWIDTH 7 0
BBX 7 13 0 -3
BITMAP
00
6C
6C
7C
6C
6C
00
00
00
00
00
00
00
ENDCHAR
STARTCHAR uni1E9E
ENCODING 7838
SWIDTH 538 0
DWIDTH 7 0
BBX 7 13 0 -3
BITMAP
00
00
3C
66
6C
78
6C
66
66
7C
60
00
00
ENDCHAR
STARTCHAR uni2010
ENCODING 8208
SWIDTH 538 0
DWIDTH 7 0
BBX 7 13 0 -3
BITMAP
00
00
00
00
00
00
38
00
00
00
00
00
00
ENDCHAR
STARTCHAR uni2011
ENCODING 8209
SWIDTH 538 0
DWIDTH 7 0
BBX 7 13 0 -3
BITMAP
00
00
00
00
00
00
38
00
00
00
00
00
00
ENDCHAR
STARTCHAR figuredash
ENCODING 8210
SWIDTH 538 0
DWIDTH 7 0
BBX 7 13 0 -3
BITMAP
00
00
00
00
00
00
7C
00
00
00
00
00
00
ENDCHAR
STARTCHAR endash
ENCODING 8211
SWIDTH 538 0
DWIDTH 7 0
BBX 7 13 0 -3
BITMAP
00
00
00
00
00
00
7C
00
00
00
00
00
00
ENDCHAR
STARTCHAR emdash
ENCODING 8212
SWIDTH 538 0
DWIDTH 7 0
BBX 7 13 0 -3
BITMAP
00
00
00
00
00
00
FE
00
00
00
00
00
00
ENDCHAR
STARTCHAR uni2015
ENCODING 8213
SWIDTH 538 0
DWIDTH 7 0
BBX 7 13 0 -3
BITMAP
00
00
00
00
00
00
FE
00
00
00
00
00
00
ENDCHAR
STARTCHAR uni2016
ENCODING 8214
SWIDTH 538 0
DWIDTH 7 0
BBX 7 13 0 -3
BITMAP
28
28
28
28
28
28
28
28
28
28
28
28
28
ENDCHAR
STARTCHAR underscoredbl
ENCODING 8215
SWIDTH 538 0
DWIDTH 7 0
BBX 7 13 0 -3
BITMAP
00
00
00
00
00
00
00
00
00
FE
00
FE
00
ENDCHAR
STARTCHAR quoteleft
ENCODING 8216
SWIDTH 538 0
DWIDTH 7 0
BBX 7 13 0 -3
BITMAP
00
1C
30
30
00
00
00
00
00
00
00
00
00
ENDCHAR
STARTCHAR quoteright
ENCODING 8217
SWIDTH 538 0
DWIDTH 7 0
BBX 7 13 0 -3
BITMAP
00
0C
0C
38
00
00
00
00
00
00
00
00
00
ENDCHAR
STARTCHAR quotesinglbase
ENCODING 8218
SWIDTH 538 0
DWIDTH 7 0
BBX 7 13 0 -3
BITMAP
00
00
00
00
00
00
00
00
0C
0C
38
00
00
ENDCHAR
STARTCHAR quotereversed
ENCODING 8219
SWIDTH 538 0
DWIDTH 7 0
BBX 7 13 0 -3
BITMAP
00
30
30
1C
00
00
00
00
00
00
00
00
00
ENDCHAR
STARTCHAR quotedblleft
ENCODING 8220
SWIDTH 538 0
DWIDTH 7 0
BBX 7 13 0 -3
BITMAP
00
2E
58
58
00
00
00
00
00
00
00
00
00
ENDCHAR
STARTCHAR quotedblright
ENCODING 8221
SWIDTH 538 0
DWIDTH 7 0
BBX 7 13 0 -3
BITMAP
00
34
34
E8
00
00
00
00
00
00
00
00
00
ENDCHAR
STARTCHAR quotedblbase
ENCODING 8222
SWIDTH 538 0
DWIDTH 7 0
BBX 7 13 0 -3
BITMAP
00
00
00
00
00
00
00
00
34
34
E8
00
00
ENDCHAR
STARTCHAR uni201F
ENCODING 8223
SWIDTH 538 0
DWIDTH 7 0
BBX 7 13 0 -3
BITMAP
00
58
58
2E
00
00
00
00
00
00
00
00
00
ENDCHAR
STARTCHAR dagger
ENCODING 8224
SWIDTH 538 0
DWIDTH 7 0
BBX 7 13 0 -3
BITMAP
00
00
10
10
7C
10
10
10
10
10
10
00
00
ENDCHAR
STARTCHAR daggerdbl
ENCODING 8225
SWIDTH 538 0
DWIDTH 7 0
BBX 7 13 0 -3
BITMAP
00
00
10
10
7C
10
10
10
7C
10
10
00
00
ENDCHAR
STARTCHAR bullet
ENCODING 8226
SWIDTH 538 0
DWIDTH 7 0
BBX 7 13 0 -3
BITMAP
00
00
00
00
38
7C
7C
7C
38
00
00
00
00
ENDCHAR
STARTCHAR uni2023
ENCODING 8227
SWIDTH 538 0
DWIDTH 7 0
BBX 7 13 0 -3
BITMAP
00
00
00
00
30
38
3C
38
30
00
00
00
00
ENDCHAR
STARTCHAR onedotenleader
ENCODING 8228
SWIDTH 538 0
DWIDTH 7 0
BBX 7 13 0 -3
BITMAP
00
00
00
00
00
00
00
00
30
30
00
00
00
ENDCHAR
STARTCHAR twodotenleader
ENCODING 8229
SWIDTH 538 0
DWIDTH 7 0
BBX 7 13 0 -3
BITMAP
00
00
00
00
00
00
00
00
6C
6C
00
00
00
ENDCHAR
STARTCHAR ellipsis
ENCODING 8230
SWIDTH 538 0
DWIDTH 7 0
BBX 7 13 0 -3
BITMAP
00
00
00
00
00
00
00
00
00
DA
00
00
00
ENDCHAR
STARTCHAR uni2027
ENCODING 8231
SWIDTH 538 0
DWIDTH 7 0
BBX 7 13 0 -3
BITMAP
00
00
00
00
00
00
10
00
00
00
00
00
00
ENDCHAR
STARTCHAR perthousand
ENCODING 8240
SWIDTH 538 0
DWIDTH 7 0
BBX 7 13 0 -3
BITMAP
00
00
48
B0
50
20
20
54
6A
94
00
00
00
ENDCHAR
STARTCHAR minute
ENCODING 8242
SWIDTH 538 0
DWIDTH 7 0
BBX 7 13 0 -3
BITMAP
00
08
10
20
00
00
00
00
00
00
00
00
00
ENDCHAR
STARTCHAR second
ENCODING 8243
SWIDTH 538 0
DWIDTH 7 0
BBX 7 13 0 -3
BITMAP
00
14
28
50
00
00
00
00
00
00
00
00
00
ENDCHAR
STARTCHAR uni2034
ENCODING 8244
SWIDTH 538 0
DWIDTH 7 0
BBX 7 13 0 -3
BITMAP
00
2A
54
A8
00
00
00
00
00
00
00
00
00
ENDCHAR
STARTCHAR uni2035
ENCODING 8245
SWIDTH 538 0
DWIDTH 7 0
BBX 7 13 0 -3
BITMAP
00
20
10
08
00
00
00
00
00
00
00
00
00
ENDCHAR
STARTCHAR uni2036
ENCODING 8246
SWIDTH 538 0
DWIDTH 7 0
BBX 7 13 0 -3
BITMAP
00
50
28
14
00
00
00
00
00
00
00
00
00
ENDCHAR
STARTCHAR uni2037
ENCODING 8247
SWIDTH 538 0
DWIDTH 7 0
BBX 7 13 0 -3
BITMAP
00
A8
54
2A
00
00
00
00
00
00
00
00
00
ENDCHAR
STARTCHAR uni2038
ENCODING 8248
SWIDTH 538 0
DWIDTH 7 0
BBX 7 13 0 -3
BITMAP
00
00
00
00
00
00
00
10
28
44
00
00
00
ENDCHAR
STARTCHAR guilsinglleft
ENCODING 8249
SWIDTH 538 0
DWIDTH 7 0
BBX 7 13 0 -3
BITMAP
00
00
00
00
1C
30
60
30
1C
00
00
00
00
ENDCHAR
STARTCHAR guilsinglright
ENCODING 8250
SWIDTH 538 0
DWIDTH 7 0
BBX 7 13 0 -3
BITMAP
00
00
00
00
70
18
0C
18
70
00
00
00
00
ENDCHAR
STARTCHAR uni2070
ENCODING 8304
SWIDTH 538 0
DWIDTH 7 0
BBX 7 13 0 -3
BITMAP
00
3C
6C
6C
6C
6C
38
00
00
00
00
00
00
ENDCHAR
STARTCHAR uni2071
ENCODING 8305
SWIDTH 538 0
DWIDTH 7 0
BBX 7 13 0 -3
BITMAP
00
18
00
78
18
18
0E
00
00
00
00
00
00
ENDCHAR
STARTCHAR uni2071
ENCODING 8308
SWIDTH 538 0
DWIDTH 7 0
BBX 7 13 0 -3
BITMAP
00
18
00
78
18
18
0E
00
00
00
00
00
00
ENDCHAR
STARTCHAR uni2075
ENCODING 8309
SWIDTH 538 0
DWIDTH 7 0
BBX 7 13 0 -3
BITMAP
00
7C
60
78
0C
6C
38
00
00
00
00
00
00
ENDCHAR
STARTCHAR uni2076
ENCODING 8310
SWIDTH 538 0
DWIDTH 7 0
BBX 7 13 0 -3
BITMAP
00
38
60
78
6C
6C
38
00
00
00
00
00
00
ENDCHAR
STARTCHAR uni2077
ENCODING 8311
SWIDTH 538 0
DWIDTH 7 0
BBX 7 13 0 -3
BITMAP
00
78
0C
18
30
30
30
00
00
00
00
00
00
ENDCHAR
STARTCHAR uni2078
ENCODING 8312
SWIDTH 538 0
DWIDTH 7 0
BBX 7 13 0 -3
BITMAP
00
38
6C
7C
6C
6C
38
00
00
00
00
00
00
ENDCHAR
STARTCHAR uni2079
ENCODING 8313
SWIDTH 538 0
DWIDTH 7 0
BBX 7 13 0 -3
BITMAP
00
38
6C
7C
0C
6C
38
00
00
00
00
00
00
ENDCHAR
STARTCHAR Euro
ENCODING 8364
SWIDTH 538 0
DWIDTH 7 0
BBX 7 13 0 -3
BITMAP
00
00
1C
36
30
7E
30
7E
30
36
1C
00
00
ENDCHAR
STARTCHAR uni20BF
ENCODING 8383
SWIDTH 538 0
DWIDTH 7 0
BBX 7 13 0 -3
BITMAP
00
28
FC
66
66
7C
66
66
66
FC
28
00
00
ENDCHAR
STARTCHAR uni2116
ENCODING 8470
SWIDTH 538 0
DWIDTH 7 0
BBX 7 13 0 -3
BITMAP
00
00
D0
FC
DA
DA
D4
D0
DE
D0
00
00
00
ENDCHAR
STARTCHAR trademark
ENCODING 8482
SWIDTH 538 0
DWIDTH 7 0
BBX 7 13 0 -3
BITMAP
00
EE
56
56
56
56
00
00
00
00
00
00
00
ENDCHAR
STARTCHAR arrowleft
ENCODING 8592
SWIDTH 538 0
DWIDTH 7 0
BBX 7 13 0 -3
BITMAP
00
00
00
10
20
40
FE
40
20
10
00
00
00
ENDCHAR
STARTCHAR arrowup
ENCODING 8593
SWIDTH 538 0
DWIDTH 7 0
BBX 7 13 0 -3
BITMAP
00
00
00
10
38
54
92
10
10
10
00
00
00
ENDCHAR
STARTCHAR arrowright
ENCODING 8594
SWIDTH 538 0
DWIDTH 7 0
BBX 7 13 0 -3
BITMAP
00
00
00
10
08
04
FE
04
08
10
00
00
00
ENDCHAR
STARTCHAR arrowdown
ENCODING 8595
SWIDTH 538 0
DWIDTH 7 0
BBX 7 13 0 -3
BITMAP
00
00
00
10
10
10
92
54
38
10
00
00
00
ENDCHAR
STARTCHAR arrowboth
ENCODING 8596
SWIDTH 538 0
DWIDTH 7 0
BBX 7 13 0 -3
BITMAP
00
00
00
10
28
44
FE
44
28
10
00
00
00
ENDCHAR
STARTCHAR arrowupdn
ENCODING 8597
SWIDTH 538 0
DWIDTH 7 0
BBX 7 13 0 -3
BITMAP
00
00
00
10
38
54
92
54
38
10
00
00
00
ENDCHAR
STARTCHAR uni2196
ENCODING 8598
SWIDTH 538 0
DWIDTH 7 0
BBX 7 13 0 -3
BITMAP
00
00
00
00
7C
60
50
48
44
02
00
00
00
ENDCHAR
STARTCHAR uni2197
ENCODING 8599
SWIDTH 538 0
DWIDTH 7 0
BBX 7 13 0 -3
BITMAP
00
00
00
00
7C
0C
14
24
44
80
00
00
00
ENDCHAR
STARTCHAR uni2198
ENCODING 8600
SWIDTH 538 0
DWIDTH 7 0
BBX 7 13 0 -3
BITMAP
00
00
00
80
44
24
14
0C
7C
00
00
00
00
ENDCHAR
STARTCHAR uni2199
ENCODING 8601
SWIDTH 538 0
DWIDTH 7 0
BBX 7 13 0 -3
BITMAP
00
00
00
02
44
48
50
60
7C
00
00
00
00
ENDCHAR
STARTCHAR uni219A
ENCODING 8602
SWIDTH 538 0
DWIDTH 7 0
BBX 7 13 0 -3
BITMAP
00
00
00
10
24
44
FE
48
28
10
00
00
00
ENDCHAR
STARTCHAR uni219B
ENCODING 8603
SWIDTH 538 0
DWIDTH 7 0
BBX 7 13 0 -3
BITMAP
00
00
00
10
48
44
FE
24
28
10
00
00
00
ENDCHAR
STARTCHAR uni21A2
ENCODING 8610
SWIDTH 538 0
DWIDTH 7 0
BBX 7 13 0 -3
BITMAP
00
00
00
10
22
44
F8
44
22
10
00
00
00
ENDCHAR
STARTCHAR uni21A3
ENCODING 8611
SWIDTH 538 0
DWIDTH 7 0
BBX 7 13 0 -3
BITMAP
00
00
00
10
88
44
3E
44
88
10
00
00
00
ENDCHAR
STARTCHAR uni21A9
ENCODING 8617
SWIDTH 538 0
DWIDTH 7 0
BBX 7 13 0 -3
BITMAP
00
00
08
04
24
64
F8
60
20
00
00
00
00
ENDCHAR
STARTCHAR uni21AA
ENCODING 8618
SWIDTH 538 0
DWIDTH 7 0
BBX 7 13 0 -3
BITMAP
00
00
20
40
48
4C
3E
0C
08
00
00
00
00
ENDCHAR
STARTCHAR uni21B9
ENCODING 8633
SWIDTH 538 0
DWIDTH 7 0
BBX 7 13 0 -3
BITMAP
00
00
80
A0
FE
A0
82
0A
FE
0A
02
00
00
ENDCHAR
STARTCHAR uni21BC
ENCODING 8636
SWIDTH 538 0
DWIDTH 7 0
BBX 7 13 0 -3
BITMAP
00
00
00
00
20
40
FE
00
00
00
00
00
00
ENDCHAR
STARTCHAR uni21BD
ENCODING 8637
SWIDTH 538 0
DWIDTH 7 0
BBX 7 13 0 -3
BITMAP
00
00
00
00
00
00
FE
40
20
00
00
00
00
ENDCHAR
STARTCHAR uni21BE
ENCODING 8638
SWIDTH 538 0
DWIDTH 7 0
BBX 7 13 0 -3
BITMAP
00
00
00
10
18
14
10
10
10
10
00
00
00
ENDCHAR
STARTCHAR uni21BF
ENCODING 8639
SWIDTH 538 0
DWIDTH 7 0
BBX 7 13 0 -3
BITMAP
00
00
00
10
30
50
10
10
10
10
00
00
00
ENDCHAR
STARTCHAR uni21C0
ENCODING 8640
SWIDTH 538 0
DWIDTH 7 0
BBX 7 13 0 -3
BITMAP
00
00
00
00
08
04
FE
00
00
00
00
00
00
ENDCHAR
STARTCHAR uni21C1
ENCODING 8641
SWIDTH 538 0
DWIDTH 7 0
BBX 7 13 0 -3
BITMAP
00
00
00
00
00
00
FE
04
08
00
00
00
00
ENDCHAR
STARTCHAR uni21C2
ENCODING 8642
SWIDTH 538 0
DWIDTH 7 0
BBX 7 13 0 -3
BITMAP
00
00
00
10
10
10
10
14
18
10
00
00
00
ENDCHAR
STARTCHAR uni21C3
ENCODING 8643
SWIDTH 538 0
DWIDTH 7 0
BBX 7 13 0 -3
BITMAP
00
00
00
10
10
10
10
50
30
10
00
00
00
ENDCHAR
STARTCHAR uni21C4
ENCODING 8644
SWIDTH 538 0
DWIDTH 7 0
BBX 7 13 0 -3
BITMAP
00
00
00
08
04
FE
44
FE
40
20
00
00
00
ENDCHAR
STARTCHAR uni21C5
ENCODING 8645
SWIDTH 538 0
DWIDTH 7 0
BBX 7 13 0 -3
BITMAP
00
00
00
28
78
A8
28
2A
3C
28
00
00
00
ENDCHAR
STARTCHAR uni21C6
ENCODING 8646
SWIDTH 538 0
DWIDTH 7 0
BBX 7 13 0 -3
BITMAP
00
00
00
20
40
FE
44
FE
04
08
00
00
00
ENDCHAR
STARTCHAR uni21C7
ENCODING 8647
SWIDTH 538 0
DWIDTH 7 0
BBX 7 13 0 -3
BITMAP
00
00
00
20
40
FE
40
FE
40
20
00
00
00
ENDCHAR
STARTCHAR uni21C8
ENCODING 8648
SWIDTH 538 0
DWIDTH 7 0
BBX 7 13 0 -3
BITMAP
00
00
00
28
7C
AA
28
28
28
28
00
00
00
ENDCHAR
STARTCHAR uni21C9
ENCODING 8649
SWIDTH 538 0
DWIDTH 7 0
BBX 7 13 0 -3
BITMAP
00
00
00
08
04
FE
04
FE
04
08
00
00
00
ENDCHAR
STARTCHAR uni21CA
ENCODING 8650
SWIDTH 538 0
DWIDTH 7 0
BBX 7 13 0 -3
BITMAP
00
00
00
28
28
28
28
AA
7C
28
00
00
00
ENDCHAR
STARTCHAR uni21CB
ENCODING 8651
SWIDTH 538 0
DWIDTH 7 0
BBX 7 13 0 -3
BITMAP
00
00
00
20
40
FE
00
FE
04
08
00
00
00
ENDCHAR
STARTCHAR uni21CC
ENCODING 8652
SWIDTH 538 0
DWIDTH 7 0
BBX 7 13 0 -3
BITMAP
00
00
00
08
04
FE
00
FE
40
20
00
00
00
ENDCHAR
STARTCHAR uni21CD
ENCODING 8653
SWIDTH 538 0
DWIDTH 7 0
BBX 7 13 0 -3
BITMAP
00
00
00
12
24
7E
84
7E
24
18
00
00
00
ENDCHAR
STARTCHAR uni21CE
ENCODING 8654
SWIDTH 538 0
DWIDTH 7 0
BBX 7 13 0 -3
BITMAP
00
00
00
10
28
7C
92
7C
28
10
00
00
00
ENDCHAR
STARTCHAR uni21CF
ENCODING 8655
SWIDTH 538 0
DWIDTH 7 0
BBX 7 13 0 -3
BITMAP
00
00
00
90
48
FC
42
FC
48
30
00
00
00
ENDCHAR
STARTCHAR arrowdblleft
ENCODING 8656
SWIDTH 538 0
DWIDTH 7 0
BBX 7 13 0 -3
BITMAP
00
00
00
10
20
7E
80
7E
20
10
00
00
00
ENDCHAR
STARTCHAR arrowdblup
ENCODING 8657
SWIDTH 538 0
DWIDTH 7 0
BBX 7 13 0 -3
BITMAP
00
00
00
10
28
6C
AA
28
28
28
00
00
00
ENDCHAR
STARTCHAR arrowdblright
ENCODING 8658
SWIDTH 538 0
DWIDTH 7 0
BBX 7 13 0 -3
BITMAP
00
00
00
10
08
FC
02
FC
08
10
00
00
00
ENDCHAR
STARTCHAR arrowdbldown
ENCODING 8659
SWIDTH 538 0
DWIDTH 7 0
BBX 7 13 0 -3
BITMAP
00
00
00
28
28
28
AA
6C
28
10
00
00
00
ENDCHAR
STARTCHAR uni21E0
ENCODING 8672
SWIDTH 538 0
DWIDTH 7 0
BBX 7 13 0 -3
BITMAP
00
00
00
10
20
40
EA
40
20
10
00
00
00
ENDCHAR
STARTCHAR uni21E1
ENCODING 8673
SWIDTH 538 0
DWIDTH 7 0
BBX 7 13 0 -3
BITMAP
00
00
00
10
38
54
82
10
00
10
00
00
00
ENDCHAR
STARTCHAR uni21E2
ENCODING 8674
SWIDTH 538 0
DWIDTH 7 0
BBX 7 13 0 -3
BITMAP
00
00
00
10
00
10
82
54
38
10
00
00
00
ENDCHAR
STARTCHAR uni21E3
ENCODING 8675
SWIDTH 538 0
DWIDTH 7 0
BBX 7 13 0 -3
BITMAP
00
00
00
10
08
04
AE
04
08
10
00
00
00
ENDCHAR
STARTCHAR uni21E6
ENCODING 8678
SWIDTH 538 0
DWIDTH 7 0
BBX 7 13 0 -3
BITMAP
00
00
00
10
30
4E
82
4E
30
10
00
00
00
ENDCHAR
STARTCHAR uni21E7
ENCODING 8679
SWIDTH 538 0
DWIDTH 7 0
BBX 7 13 0 -3
BITMAP
00
00
00
10
28
44
C6
28
28
38
00
00
00
ENDCHAR
STARTCHAR uni21E8
ENCODING 8680
SWIDTH 538 0
DWIDTH 7 0
BBX 7 13 0 -3
BITMAP
00
00
00
10
18
E4
86
E4
18
10
00
00
00
ENDCHAR
STARTCHAR uni21E9
ENCODING 8681
SWIDTH 538 0
DWIDTH 7 0
BBX 7 13 0 -3
BITMAP
00
00
00
38
28
28
C6
44
28
10
00
00
00
ENDCHAR
STARTCHAR uni21EA
ENCODING 8682
SWIDTH 538 0
DWIDTH 7 0
BBX 7 13 0 -3
BITMAP
00
00
10
28
44
C6
28
38
00
28
38
00
00
ENDCHAR
STARTCHAR uni21EB
ENCODING 8683
SWIDTH 538 0
DWIDTH 7 0
BBX 7 13 0 -3
BITMAP
00
00
10
28
44
C6
28
28
28
44
7C
00
00
ENDCHAR
STARTCHAR universal
ENCODING 8704
SWIDTH 538 0
DWIDTH 7 0
BBX 7 13 0 -3
BITMAP
00
00
44
44
7C
44
28
28
10
10
00
00
00
ENDCHAR
STARTCHAR existential
ENCODING 8707
SWIDTH 538 0
DWIDTH 7 0
BBX 7 13 0 -3
BITMAP
00
00
7C
04
04
7C
04
04
04
7C
00
00
00
ENDCHAR
STARTCHAR uni2204
ENCODING 8708
SWIDTH 538 0
DWIDTH 7 0
BBX 7 13 0 -3
BITMAP
00
08
7C
14
14
7C
14
24
24
7C
20
00
00
ENDCHAR
STARTCHAR emptyset
ENCODING 8709
SWIDTH 538 0
DWIDTH 7 0
BBX 7 13 0 -3
BITMAP
00
00
00
3A
44
8A
92
A2
44
B8
00
00
00
ENDCHAR
STARTCHAR Delta
ENCODING 8710
SWIDTH 538 0
DWIDTH 7 0
BBX 7 13 0 -3
BITMAP
00
00
00
10
28
28
44
44
82
FE
00
00
00
ENDCHAR
STARTCHAR gradient
ENCODING 8711
SWIDTH 538 0
DWIDTH 7 0
BBX 7 13 0 -3
BITMAP
00
00
00
FE
82
44
44
28
28
10
00
00
00
ENDCHAR
STARTCHAR element
ENCODING 8712
SWIDTH 538 0
DWIDTH 7 0
BBX 7 13 0 -3
BITMAP
00
00
00
3C
40
80
FC
80
40
3C
00
00
00
ENDCHAR
STARTCHAR notelement
ENCODING 8713
SWIDTH 538 0
DWIDTH 7 0
BBX 7 13 0 -3
BITMAP
00
00
00
3A
44
88
FC
A0
40
BC
00
00
00
ENDCHAR
STARTCHAR uni220A
ENCODING 8714
SWIDTH 538 0
DWIDTH 7 0
BBX 7 13 0 -3
BITMAP
00
00
00
00
1C
20
7C
40
20
1C
00
00
00
ENDCHAR
STARTCHAR suchthat
ENCODING 8715
SWIDTH 538 0
DWIDTH 7 0
BBX 7 13 0 -3
BITMAP
00
00
00
F0
08
04
FC
04
08
F0
00
00
00
ENDCHAR
STARTCHAR uni220C
ENCODING 8716
SWIDTH 538 0
DWIDTH 7 0
BBX 7 13 0 -3
BITMAP
00
00
00
B8
44
22
7E
0A
04
7A
00
00
00
ENDCHAR
STARTCHAR uni220D
ENCODING 8717
SWIDTH 538 0
DWIDTH 7 0
BBX 7 13 0 -3
BITMAP
00
00
00
00
70
08
7C
04
08
70
00
00
00
ENDCHAR
STARTCHAR uni220E
ENCODING 8718
SWIDTH 538 0
DWIDTH 7 0
BBX 7 13 0 -3
BITMAP
00
00
00
00
00
00
38
38
38
38
00
00
00
ENDCHAR
STARTCHAR product
ENCODING 8719
SWIDTH 538 0
DWIDTH 7 0
BBX 7 13 0 -3
BITMAP
00
00
7C
44
44
44
44
44
44
44
00
00
00
ENDCHAR
STARTCHAR uni2210
ENCODING 8720
SWIDTH 538 0
DWIDTH 7 0
BBX 7 13 0 -3
BITMAP
00
00
44
44
44
44
44
44
44
7C
00
00
00
ENDCHAR
STARTCHAR asteriskmath
ENCODING 8727
SWIDTH 538 0
DWIDTH 7 0
BBX 7 13 0 -3
BITMAP
00
00
00
00
10
54
38
54
10
00
00
00
00
ENDCHAR
STARTCHAR uni2218
ENCODING 8728
SWIDTH 538 0
DWIDTH 7 0
BBX 7 13 0 -3
BITMAP
00
00
00
00
00
10
28
10
00
00
00
00
00
ENDCHAR
STARTCHAR uni2219
ENCODING 8729
SWIDTH 538 0
DWIDTH 7 0
BBX 7 13 0 -3
BITMAP
00
00
00
00
00
10
38
10
00
00
00
00
00
ENDCHAR
STARTCHAR radical
ENCODING 8730
SWIDTH 538 0
DWIDTH 7 0
BBX 7 13 0 -3
BITMAP
00
00
00
00
0E
08
48
28
28
10
00
00
00
ENDCHAR
STARTCHAR infinity
ENCODING 8734
SWIDTH 538 0
DWIDTH 7 0
BBX 7 13 0 -3
BITMAP
00
00
00
00
6C
92
92
92
6C
00
00
00
00
ENDCHAR
STARTCHAR uni2224
ENCODING 8740
SWIDTH 538 0
DWIDTH 7 0
BBX 7 13 0 -3
BITMAP
00
10
10
10
14
18
30
50
10
10
10
00
00
ENDCHAR
STARTCHAR uni2225
ENCODING 8741
SWIDTH 538 0
DWIDTH 7 0
BBX 7 13 0 -3
BITMAP
00
28
28
28
28
28
28
28
28
28
28
00
00
ENDCHAR
STARTCHAR uni2226
ENCODING 8742
SWIDTH 538 0
DWIDTH 7 0
BBX 7 13 0 -3
BITMAP
00
28
28
28
2C
38
68
28
28
28
28
00
00
ENDCHAR
STARTCHAR notequal
ENCODING 8800
SWIDTH 538 0
DWIDTH 7 0
BBX 7 13 0 -3
BITMAP
00
00
00
08
7C
10
10
10
7C
20
00
00
00
ENDCHAR
STARTCHAR equivalence
ENCODING 8801
SWIDTH 538 0
DWIDTH 7 0
BBX 7 13 0 -3
BITMAP
00
00
00
7C
00
00
7C
00
00
7C
00
00
00
ENDCHAR
STARTCHAR lessequal
ENCODING 8804
SWIDTH 538 0
DWIDTH 7 0
BBX 7 13 0 -3
BITMAP
00
00
00
0C
30
40
30
0C
00
7C
00
00
00
ENDCHAR
STARTCHAR greaterequal
ENCODING 8805
SWIDTH 538 0
DWIDTH 7 0
BBX 7 13 0 -3
BITMAP
00
00
00
60
18
04
18
60
00
7C
00
00
00
ENDCHAR
STARTCHAR uni229E
ENCODING 8862
SWIDTH 538 0
DWIDTH 7 0
BBX 7 13 0 -3
BITMAP
00
00
00
FE
82
92
BA
92
82
FE
00
00
00
ENDCHAR
STARTCHAR uni229F
ENCODING 8863
SWIDTH 538 0
DWIDTH 7 0
BBX 7 13 0 -3
BITMAP
00
00
00
FE
82
82
BA
82
82
FE
00
00
00
ENDCHAR
STARTCHAR uni22A0
ENCODING 8864
SWIDTH 538 0
DWIDTH 7 0
BBX 7 13 0 -3
BITMAP
00
00
00
FE
82
AA
92
AA
82
FE
00
00
00
ENDCHAR
STARTCHAR uni22A1
ENCODING 8865
SWIDTH 538 0
DWIDTH 7 0
BBX 7 13 0 -3
BITMAP
00
00
00
FE
82
82
92
82
82
FE
00
00
00
ENDCHAR
STARTCHAR uni22B2
ENCODING 8882
SWIDTH 538 0
DWIDTH 7 0
BBX 7 13 0 -3
BITMAP
00
00
00
1C
24
44
84
44
24
1C
00
00
00
ENDCHAR
STARTCHAR uni22B3
ENCODING 8883
SWIDTH 538 0
DWIDTH 7 0
BBX 7 13 0 -3
BITMAP
00
00
00
70
48
44
42
44
48
70
00
00
00
ENDCHAR
STARTCHAR uni22B4
ENCODING 8884
SWIDTH 538 0
DWIDTH 7 0
BBX 7 13 0 -3
BITMAP
00
00
00
1C
64
84
64
1C
00
FC
00
00
00
ENDCHAR
STARTCHAR uni22B5
ENCODING 8885
SWIDTH 538 0
DWIDTH 7 0
BBX 7 13 0 -3
BITMAP
00
00
00
70
4C
42
4C
70
00
7E
00
00
00
ENDCHAR
STARTCHAR uni22B9
ENCODING 8889
SWIDTH 538 0
DWIDTH 7 0
BBX 7 13 0 -3
BITMAP
00
00
00
10
10
00
C6
00
10
10
00
00
00
ENDCHAR
STARTCHAR uni22C4
ENCODING 8900
SWIDTH 538 0
DWIDTH 7 0
BBX 7 13 0 -3
BITMAP
00
00
00
00
10
28
44
28
10
00
00
00
00
ENDCHAR
STARTCHAR dotmath
ENCODING 8901
SWIDTH 538 0
DWIDTH 7 0
BBX 7 13 0 -3
BITMAP
00
00
00
00
00
30
30
00
00
00
00
00
00
ENDCHAR
STARTCHAR uni22C6
ENCODING 8902
SWIDTH 538 0
DWIDTH 7 0
BBX 7 13 0 -3
BITMAP
00
00
00
00
10
7C
38
28
00
00
00
00
00
ENDCHAR
STARTCHAR uni22D8
ENCODING 8920
SWIDTH 538 0
DWIDTH 7 0
BBX 7 13 0 -3
BITMAP
00
00
00
14
2A
54
A8
54
2A
14
00
00
00
ENDCHAR
STARTCHAR uni22D9
ENCODING 8921
SWIDTH 538 0
DWIDTH 7 0
BBX 7 13 0 -3
BITMAP
00
00
00
50
A8
54
2A
54
A8
50
00
00
00
ENDCHAR
STARTCHAR house
ENCODING 8962
SWIDTH 538 0
DWIDTH 7 0
BBX 7 13 0 -3
BITMAP
00
00
00
10
28
44
82
82
82
FE
00
00
00
ENDCHAR
STARTCHAR uni2303
ENCODING 8963
SWIDTH 538 0
DWIDTH 7 0
BBX 7 13 0 -3
BITMAP
00
10
28
44
00
00
00
00
00
00
00
00
00
ENDCHAR
STARTCHAR uni2318
ENCODING 8984
SWIDTH 538 0
DWIDTH 7 0
BBX 7 13 0 -3
BITMAP
00
00
00
44
AA
7C
28
7C
AA
44
00
00
00
ENDCHAR
STARTCHAR uni2337
ENCODING 9015
SWIDTH 538 0
DWIDTH 7 0
BBX 7 13 0 -3
BITMAP
00
7C
44
44
44
44
44
44
44
44
44
7C
00
ENDCHAR
STARTCHAR uni235F
ENCODING 9055
SWIDTH 538 0
DWIDTH 7 0
BBX 7 13 0 -3
BITMAP
00
00
6C
82
92
7C
38
AA
82
6C
00
00
00
ENDCHAR
STARTCHAR uni2387
ENCODING 9095
SWIDTH 538 0
DWIDTH 7 0
BBX 7 13 0 -3
BITMAP
00
00
00
00
04
0E
14
20
20
CE
00
00
00
ENDCHAR
STARTCHAR uni2388
ENCODING 9096
SWIDTH 538 0
DWIDTH 7 0
BBX 7 13 0 -3
BITMAP
00
00
00
92
7C
54
7C
54
7C
92
00
00
00
ENDCHAR
STARTCHAR uni239B
ENCODING 9115
SWIDTH 538 0
DWIDTH 7 0
BBX 7 13 0 -3
BITMAP
02
04
08
08
10
10
10
10
10
10
10
10
10
ENDCHAR
STARTCHAR uni239C
ENCODING 9116
SWIDTH 538 0
DWIDTH 7 0
BBX 7 13 0 -3
BITMAP
10
10
10
10
10
10
10
10
10
10
10
10
10
ENDCHAR
STARTCHAR uni239D
ENCODING 9117
SWIDTH 538 0
DWIDTH 7 0
BBX 7 13 0 -3
BITMAP
10
10
10
10
10
10
10
10
10
08
08
04
02
ENDCHAR
STARTCHAR uni239E
ENCODING 9118
SWIDTH 538 0
DWIDTH 7 0
BBX 7 13 0 -3
BITMAP
80
40
20
20
10
10
10
10
10
10
10
10
10
ENDCHAR
STARTCHAR uni239F
ENCODING 9119
SWIDTH 538 0
DWIDTH 7 0
BBX 7 13 0 -3
BITMAP
10
10
10
10
10
10
10
10
10
10
10
10
10
ENDCHAR
STARTCHAR uni23A0
ENCODING 9120
SWIDTH 538 0
DWIDTH 7 0
BBX 7 13 0 -3
BITMAP
10
10
10
10
10
10
10
10
10
20
20
40
80
ENDCHAR
STARTCHAR uni23A1
ENCODING 9121
SWIDTH 538 0
DWIDTH 7 0
BBX 7 13 0 -3
BITMAP
1E
10
10
10
10
10
10
10
10
10
10
10
10
ENDCHAR
STARTCHAR uni23A2
ENCODING 9122
SWIDTH 538 0
DWIDTH 7 0
BBX 7 13 0 -3
BITMAP
10
10
10
10
10
10
10
10
10
10
10
10
10
ENDCHAR
STARTCHAR uni23A3
ENCODING 9123
SWIDTH 538 0
DWIDTH 7 0
BBX 7 13 0 -3
BITMAP
10
10
10
10
10
10
10
10
10
10
10
10
1E
ENDCHAR
STARTCHAR uni23A4
ENCODING 9124
SWIDTH 538 0
DWIDTH 7 0
BBX 7 13 0 -3
BITMAP
F0
10
10
10
10
10
10
10
10
10
10
10
10
ENDCHAR
STARTCHAR uni23A5
ENCODING 9125
SWIDTH 538 0
DWIDTH 7 0
BBX 7 13 0 -3
BITMAP
10
10
10
10
10
10
10
10
10
10
10
10
10
ENDCHAR
STARTCHAR uni23A6
ENCODING 9126
SWIDTH 538 0
DWIDTH 7 0
BBX 7 13 0 -3
BITMAP
10
10
10
10
10
10
10
10
10
10
10
10
F0
ENDCHAR
STARTCHAR uni23A7
ENCODING 9127
SWIDTH 538 0
DWIDTH 7 0
BBX 7 13 0 -3
BITMAP
06
08
10
10
10
10
10
10
10
10
10
10
10
ENDCHAR
STARTCHAR uni23A8
ENCODING 9128
SWIDTH 538 0
DWIDTH 7 0
BBX 7 13 0 -3
BITMAP
10
10
10
10
10
20
C0
20
10
10
10
10
10
ENDCHAR
STARTCHAR uni23A9
ENCODING 9129
SWIDTH 538 0
DWIDTH 7 0
BBX 7 13 0 -3
BITMAP
10
10
10
10
10
10
10
10
10
10
10
08
06
ENDCHAR
STARTCHAR uni23AA
ENCODING 9130
SWIDTH 538 0
DWIDTH 7 0
BBX 7 13 0 -3
BITMAP
10
10
10
10
10
10
10
10
10
10
10
10
10
ENDCHAR
STARTCHAR uni23AB
ENCODING 9131
SWIDTH 538 0
DWIDTH 7 0
BBX 7 13 0 -3
BITMAP
C0
20
10
10
10
10
10
10
10
10
10
10
10
ENDCHAR
STARTCHAR uni23AC
ENCODING 9132
SWIDTH 538 0
DWIDTH 7 0
BBX 7 13 0 -3
BITMAP
10
10
10
10
10
08
06
08
10
10
10
10
10
ENDCHAR
STARTCHAR uni23AD
ENCODING 9133
SWIDTH 538 0
DWIDTH 7 0
BBX 7 13 0 -3
BITMAP
10
10
10
10
10
10
10
10
10
10
10
20
C0
ENDCHAR
STARTCHAR uni23AE
ENCODING 9134
SWIDTH 538 0
DWIDTH 7 0
BBX 7 13 0 -3
BITMAP
10
10
10
10
10
10
10
10
10
10
10
10
10
ENDCHAR
STARTCHAR uni23B7
ENCODING 9143
SWIDTH 538 0
DWIDTH 7 0
BBX 7 13 0 -3
BITMAP
10
10
10
10
10
D0
50
30
30
10
10
00
00
ENDCHAR
STARTCHAR uni23CE
ENCODING 9166
SWIDTH 538 0
DWIDTH 7 0
BBX 7 13 0 -3
BITMAP
00
00
00
16
2A
7A
82
7E
20
10
00
00
00
ENDCHAR
STARTCHAR uni23F2
ENCODING 9202
SWIDTH 538 0
DWIDTH 7 0
BBX 7 13 0 -3
BITMAP
00
00
00
38
54
92
9A
82
44
38
00
00
00
ENDCHAR
STARTCHAR uni23F4
ENCODING 9204
SWIDTH 538 0
DWIDTH 7 0
BBX 7 13 0 -3
BITMAP
00
00
00
06
1E
7E
FE
7E
1E
06
00
00
00
ENDCHAR
STARTCHAR uni23F5
ENCODING 9205
SWIDTH 538 0
DWIDTH 7 0
BBX 7 13 0 -3
BITMAP
00
00
00
C0
F0
FC
FE
FC
F0
C0
00
00
00
ENDCHAR
STARTCHAR uni23F6
ENCODING 9206
SWIDTH 538 0
DWIDTH 7 0
BBX 7 13 0 -3
BITMAP
00
00
00
10
38
38
7C
7C
FE
FE
00
00
00
ENDCHAR
STARTCHAR uni23F7
ENCODING 9207
SWIDTH 538 0
DWIDTH 7 0
BBX 7 13 0 -3
BITMAP
00
00
00
FE
FE
7C
7C
38
38
10
00
00
00
ENDCHAR
STARTCHAR uni23FB
ENCODING 9211
SWIDTH 538 0
DWIDTH 7 0
BBX 7 13 0 -3
BITMAP
00
00
00
10
54
92
92
92
44
38
00
00
00
ENDCHAR
STARTCHAR uni23FC
ENCODING 9212
SWIDTH 538 0
DWIDTH 7 0
BBX 7 13 0 -3
BITMAP
00
00
00
38
44
92
92
92
44
38
00
00
00
ENDCHAR
STARTCHAR uni240A
ENCODING 9226
SWIDTH 538 0
DWIDTH 7 0
BBX 7 13 0 -3
BITMAP
00
00
60
60
60
78
00
1E
30
3C
30
00
00
ENDCHAR
STARTCHAR uni2424
ENCODING 9252
SWIDTH 538 0
DWIDTH 7 0
BBX 7 13 0 -3
BITMAP
00
00
68
68
58
58
00
30
30
30
3C
00
00
ENDCHAR
STARTCHAR uni23B7
ENCODING 9472
SWIDTH 538 0
DWIDTH 7 0
BBX 7 13 0 -3
BITMAP
00
00
00
00
00
00
FE
00
00
00
00
00
00
ENDCHAR
STARTCHAR uni2501
ENCODING 9473
SWIDTH 538 0
DWIDTH 7 0
BBX 7 13 0 -3
BITMAP
00
00
00
00
00
FE
FE
00
00
00
00
00
00
ENDCHAR
STARTCHAR SF110000
ENCODING 9474
SWIDTH 538 0
DWIDTH 7 0
BBX 7 13 0 -3
BITMAP
10
10
10
10
10
10
10
10
10
10
10
10
10
ENDCHAR
STARTCHAR uni2503
ENCODING 9475
SWIDTH 538 0
DWIDTH 7 0
BBX 7 13 0 -3
BITMAP
18
18
18
18
18
18
18
18
18
18
18
18
18
ENDCHAR
STARTCHAR uni2504
ENCODING 9476
SWIDTH 538 0
DWIDTH 7 0
BBX 7 13 0 -3
BITMAP
00
00
00
00
00
00
DA
00
00
00
00
00
00
ENDCHAR
STARTCHAR uni2505
ENCODING 9477
SWIDTH 538 0
DWIDTH 7 0
BBX 7 13 0 -3
BITMAP
00
00
00
00
00
DA
DA
00
00
00
00
00
00
ENDCHAR
STARTCHAR uni2506
ENCODING 9478
SWIDTH 538 0
DWIDTH 7 0
BBX 7 13 0 -3
BITMAP
10
10
00
10
10
00
10
10
00
10
10
00
00
ENDCHAR
STARTCHAR uni2507
ENCODING 9479
SWIDTH 538 0
DWIDTH 7 0
BBX 7 13 0 -3
BITMAP
18
18
00
18
18
00
18
18
00
18
18
00
00
ENDCHAR
STARTCHAR uni2508
ENCODING 9480
SWIDTH 538 0
DWIDTH 7 0
BBX 7 13 0 -3
BITMAP
00
00
00
00
00
00
AA
00
00
00
00
00
00
ENDCHAR
STARTCHAR uni2509
ENCODING 9481
SWIDTH 538 0
DWIDTH 7 0
BBX 7 13 0 -3
BITMAP
00
00
00
00
00
AA
AA
00
00
00
00
00
00
ENDCHAR
STARTCHAR uni250A
ENCODING 9482
SWIDTH 538 0
DWIDTH 7 0
BBX 7 13 0 -3
BITMAP
10
00
10
00
10
00
10
00
10
00
10
00
10
ENDCHAR
STARTCHAR uni250B
ENCODING 9483
SWIDTH 538 0
DWIDTH 7 0
BBX 7 13 0 -3
BITMAP
18
00
18
00
18
00
18
00
18
00
18
00
18
ENDCHAR
STARTCHAR SF010000
ENCODING 9484
SWIDTH 538 0
DWIDTH 7 0
BBX 7 13 0 -3
BITMAP
00
00
00
00
00
00
1E
10
10
10
10
10
10
ENDCHAR
STARTCHAR uni250D
ENCODING 9485
SWIDTH 538 0
DWIDTH 7 0
BBX 7 13 0 -3
BITMAP
00
00
00
00
00
1E
1E
10
10
10
10
10
10
ENDCHAR
STARTCHAR uni250E
ENCODING 9486
SWIDTH 538 0
DWIDTH 7 0
BBX 7 13 0 -3
BITMAP
00
00
00
00
00
00
1E
18
18
18
18
18
18
ENDCHAR
STARTCHAR uni250F
ENCODING 9487
SWIDTH 538 0
DWIDTH 7 0
BBX 7 13 0 -3
BITMAP
00
00
00
00
00
1E
1E
18
18
18
18
18
18
ENDCHAR
STARTCHAR SF030000
ENCODING 9488
SWIDTH 538 0
DWIDTH 7 0
BBX 7 13 0 -3
BITMAP
00
00
00
00
00
00
F0
10
10
10
10
10
10
ENDCHAR
STARTCHAR uni2511
ENCODING 9489
SWIDTH 538 0
DWIDTH 7 0
BBX 7 13 0 -3
BITMAP
00
00
00
00
00
F0
F0
10
10
10
10
10
10
ENDCHAR
STARTCHAR uni2512
ENCODING 9490
SWIDTH 538 0
DWIDTH 7 0
BBX 7 13 0 -3
BITMAP
00
00
00
00
00
00
F8
18
18
18
18
18
18
ENDCHAR
STARTCHAR uni2513
ENCODING 9491
SWIDTH 538 0
DWIDTH 7 0
BBX 7 13 0 -3
BITMAP
00
00
00
00
00
F8
F8
18
18
18
18
18
18
ENDCHAR
STARTCHAR SF020000
ENCODING 9492
SWIDTH 538 0
DWIDTH 7 0
BBX 7 13 0 -3
BITMAP
10
10
10
10
10
10
1E
00
00
00
00
00
00
ENDCHAR
STARTCHAR uni2515
ENCODING 9493
SWIDTH 538 0
DWIDTH 7 0
BBX 7 13 0 -3
BITMAP
10
10
10
10
10
1E
1E
00
00
00
00
00
00
ENDCHAR
STARTCHAR uni2516
ENCODING 9494
SWIDTH 538 0
DWIDTH 7 0
BBX 7 13 0 -3
BITMAP
18
18
18
18
18
18
1E
00
00
00
00
00
00
ENDCHAR
STARTCHAR uni2517
ENCODING 9495
SWIDTH 538 0
DWIDTH 7 0
BBX 7 13 0 -3
BITMAP
18
18
18
18
18
1E
1E
00
00
00
00
00
00
ENDCHAR
STARTCHAR SF040000
ENCODING 9496
SWIDTH 538 0
DWIDTH 7 0
BBX 7 13 0 -3
BITMAP
10
10
10
10
10
10
F0
00
00
00
00
00
00
ENDCHAR
STARTCHAR uni2519
ENCODING 9497
SWIDTH 538 0
DWIDTH 7 0
BBX 7 13 0 -3
BITMAP
10
10
10
10
10
F0
F0
00
00
00
00
00
00
ENDCHAR
STARTCHAR uni251A
ENCODING 9498
SWIDTH 538 0
DWIDTH 7 0
BBX 7 13 0 -3
BITMAP
18
18
18
18
18
18
F8
00
00
00
00
00
00
ENDCHAR
STARTCHAR uni251B
ENCODING 9499
SWIDTH 538 0
DWIDTH 7 0
BBX 7 13 0 -3
BITMAP
18
18
18
18
18
F8
F8
00
00
00
00
00
00
ENDCHAR
STARTCHAR SF080000
ENCODING 9500
SWIDTH 538 0
DWIDTH 7 0
BBX 7 13 0 -3
BITMAP
10
10
10
10
10
10
1E
10
10
10
10
10
10
ENDCHAR
STARTCHAR uni251D
ENCODING 9501
SWIDTH 538 0
DWIDTH 7 0
BBX 7 13 0 -3
BITMAP
10
10
10
10
10
1E
1E
10
10
10
10
10
10
ENDCHAR
STARTCHAR uni251E
ENCODING 9502
SWIDTH 538 0
DWIDTH 7 0
BBX 7 13 0 -3
BITMAP
18
18
18
18
18
18
1E
10
10
10
10
10
10
ENDCHAR
STARTCHAR uni251F
ENCODING 9503
SWIDTH 538 0
DWIDTH 7 0
BBX 7 13 0 -3
BITMAP
10
10
10
10
10
10
1E
18
18
18
18
18
18
ENDCHAR
STARTCHAR uni2520
ENCODING 9504
SWIDTH 538 0
DWIDTH 7 0
BBX 7 13 0 -3
BITMAP
18
18
18
18
18
18
1E
18
18
18
18
18
18
ENDCHAR
STARTCHAR uni2521
ENCODING 9505
SWIDTH 538 0
DWIDTH 7 0
BBX 7 13 0 -3
BITMAP
18
18
18
18
18
1E
1E
10
10
10
10
10
10
ENDCHAR
STARTCHAR uni2522
ENCODING 9506
SWIDTH 538 0
DWIDTH 7 0
BBX 7 13 0 -3
BITMAP
10
10
10
10
10
1E
1E
18
18
18
18
18
18
ENDCHAR
STARTCHAR uni2523
ENCODING 9507
SWIDTH 538 0
DWIDTH 7 0
BBX 7 13 0 -3
BITMAP
18
18
18
18
18
1E
1E
18
18
18
18
18
18
ENDCHAR
STARTCHAR SF090000
ENCODING 9508
SWIDTH 538 0
DWIDTH 7 0
BBX 7 13 0 -3
BITMAP
10
10
10
10
10
10
F0
10
10
10
10
10
10
ENDCHAR
STARTCHAR uni2525
ENCODING 9509
SWIDTH 538 0
DWIDTH 7 0
BBX 7 13 0 -3
BITMAP
10
10
10
10
10
F0
F0
10
10
10
10
10
10
ENDCHAR
STARTCHAR uni2526
ENCODING 9510
SWIDTH 538 0
DWIDTH 7 0
BBX 7 13 0 -3
BITMAP
18
18
18
18
18
18
F8
10
10
10
10
10
10
ENDCHAR
STARTCHAR uni2527
ENCODING 9511
SWIDTH 538 0
DWIDTH 7 0
BBX 7 13 0 -3
BITMAP
10
10
10
10
10
10
F8
18
18
18
18
18
18
ENDCHAR
STARTCHAR uni2528
ENCODING 9512
SWIDTH 538 0
DWIDTH 7 0
BBX 7 13 0 -3
BITMAP
18
18
18
18
18
18
F8
18
18
18
18
18
18
ENDCHAR
STARTCHAR uni2529
ENCODING 9513
SWIDTH 538 0
DWIDTH 7 0
BBX 7 13 0 -3
BITMAP
18
18
18
18
18
F8
F8
10
10
10
10
10
10
ENDCHAR
STARTCHAR uni252A
ENCODING 9514
SWIDTH 538 0
DWIDTH 7 0
BBX 7 13 0 -3
BITMAP
10
10
10
10
10
F8
F8
18
18
18
18
18
18
ENDCHAR
STARTCHAR uni252B
ENCODING 9515
SWIDTH 538 0
DWIDTH 7 0
BBX 7 13 0 -3
BITMAP
18
18
18
18
18
F8
F8
18
18
18
18
18
18
ENDCHAR
STARTCHAR SF060000
ENCODING 9516
SWIDTH 538 0
DWIDTH 7 0
BBX 7 13 0 -3
BITMAP
00
00
00
00
00
00
FE
10
10
10
10
10
10
ENDCHAR
STARTCHAR uni252D
ENCODING 9517
SWIDTH 538 0
DWIDTH 7 0
BBX 7 13 0 -3
BITMAP
00
00
00
00
00
F0
FE
10
10
10
10
10
10
ENDCHAR
STARTCHAR uni252E
ENCODING 9518
SWIDTH 538 0
DWIDTH 7 0
BBX 7 13 0 -3
BITMAP
00
00
00
00
00
1E
FE
10
10
10
10
10
10
ENDCHAR
STARTCHAR uni252F
ENCODING 9519
SWIDTH 538 0
DWIDTH 7 0
BBX 7 13 0 -3
BITMAP
00
00
00
00
00
FE
FE
10
10
10
10
10
10
ENDCHAR
STARTCHAR uni2530
ENCODING 9520
SWIDTH 538 0
DWIDTH 7 0
BBX 7 13 0 -3
BITMAP
00
00
00
00
00
00
FE
18
18
18
18
18
18
ENDCHAR
STARTCHAR uni2531
ENCODING 9521
SWIDTH 538 0
DWIDTH 7 0
BBX 7 13 0 -3
BITMAP
00
00
00
00
00
F8
FE
18
18
18
18
18
18
ENDCHAR
STARTCHAR uni2532
ENCODING 9522
SWIDTH 538 0
DWIDTH 7 0
BBX 7 13 0 -3
BITMAP
00
00
00
00
00
1E
FE
18
18
18
18
18
18
ENDCHAR
STARTCHAR uni2533
ENCODING 9523
SWIDTH 538 0
DWIDTH 7 0
BBX 7 13 0 -3
BITMAP
00
00
00
00
00
FE
FE
18
18
18
18
18
18
ENDCHAR
STARTCHAR SF070000
ENCODING 9524
SWIDTH 538 0
DWIDTH 7 0
BBX 7 13 0 -3
BITMAP
10
10
10
10
10
10
FE
00
00
00
00
00
00
ENDCHAR
STARTCHAR uni2535
ENCODING 9525
SWIDTH 538 0
DWIDTH 7 0
BBX 7 13 0 -3
BITMAP
10
10
10
10
10
F0
FE
00
00
00
00
00
00
ENDCHAR
STARTCHAR uni2536
ENCODING 9526
SWIDTH 538 0
DWIDTH 7 0
BBX 7 13 0 -3
BITMAP
10
10
10
10
10
1E
FE
00
00
00
00
00
00
ENDCHAR
STARTCHAR uni2537
ENCODING 9527
SWIDTH 538 0
DWIDTH 7 0
BBX 7 13 0 -3
BITMAP
10
10
10
10
10
FE
FE
00
00
00
00
00
00
ENDCHAR
STARTCHAR uni2538
ENCODING 9528
SWIDTH 538 0
DWIDTH 7 0
BBX 7 13 0 -3
BITMAP
18
18
18
18
18
18
FE
00
00
00
00
00
00
ENDCHAR
STARTCHAR uni2539
ENCODING 9529
SWIDTH 538 0
DWIDTH 7 0
BBX 7 13 0 -3
BITMAP
18
18
18
18
18
F8
FE
00
00
00
00
00
00
ENDCHAR
STARTCHAR uni253A
ENCODING 9530
SWIDTH 538 0
DWIDTH 7 0
BBX 7 13 0 -3
BITMAP
18
18
18
18
18
1E
FE
00
00
00
00
00
00
ENDCHAR
STARTCHAR uni253B
ENCODING 9531
SWIDTH 538 0
DWIDTH 7 0
BBX 7 13 0 -3
BITMAP
18
18
18
18
18
FE
FE
00
00
00
00
00
00
ENDCHAR
STARTCHAR SF050000
ENCODING 9532
SWIDTH 538 0
DWIDTH 7 0
BBX 7 13 0 -3
BITMAP
10
10
10
10
10
10
FE
10
10
10
10
10
10
ENDCHAR
STARTCHAR uni253D
ENCODING 9533
SWIDTH 538 0
DWIDTH 7 0
BBX 7 13 0 -3
BITMAP
10
10
10
10
10
F0
FE
10
10
10
10
10
10
ENDCHAR
STARTCHAR uni253E
ENCODING 9534
SWIDTH 538 0
DWIDTH 7 0
BBX 7 13 0 -3
BITMAP
10
10
10
10
10
1E
FE
10
10
10
10
10
10
ENDCHAR
STARTCHAR uni253F
ENCODING 9535
SWIDTH 538 0
DWIDTH 7 0
BBX 7 13 0 -3
BITMAP
10
10
10
10
10
FE
FE
10
10
10
10
10
10
ENDCHAR
STARTCHAR uni2540
ENCODING 9536
SWIDTH 538 0
DWIDTH 7 0
BBX 7 13 0 -3
BITMAP
18
18
18
18
18
18
FE
10
10
10
10
10
10
ENDCHAR
STARTCHAR uni2541
ENCODING 9537
SWIDTH 538 0
DWIDTH 7 0
BBX 7 13 0 -3
BITMAP
10
10
10
10
10
10
FE
18
18
18
18
18
18
ENDCHAR
STARTCHAR uni2542
ENCODING 9538
SWIDTH 538 0
DWIDTH 7 0
BBX 7 13 0 -3
BITMAP
18
18
18
18
18
18
FE
18
18
18
18
18
18
ENDCHAR
STARTCHAR uni2543
ENCODING 9539
SWIDTH 538 0
DWIDTH 7 0
BBX 7 13 0 -3
BITMAP
18
18
18
18
18
F8
FE
10
10
10
10
10
10
ENDCHAR
STARTCHAR uni2544
ENCODING 9540
SWIDTH 538 0
DWIDTH 7 0
BBX 7 13 0 -3
BITMAP
18
18
18
18
18
1E
FE
10
10
10
10
10
10
ENDCHAR
STARTCHAR uni2545
ENCODING 9541
SWIDTH 538 0
DWIDTH 7 0
BBX 7 13 0 -3
BITMAP
10
10
10
10
10
F0
FE
18
18
18
18
18
18
ENDCHAR
STARTCHAR uni2546
ENCODING 9542
SWIDTH 538 0
DWIDTH 7 0
BBX 7 13 0 -3
BITMAP
10
10
10
10
10
1E
FE
18
18
18
18
18
18
ENDCHAR
STARTCHAR uni2547
ENCODING 9543
SWIDTH 538 0
DWIDTH 7 0
BBX 7 13 0 -3
BITMAP
18
18
18
18
18
FE
FE
10
10
10
10
10
10
ENDCHAR
STARTCHAR uni2548
ENCODING 9544
SWIDTH 538 0
DWIDTH 7 0
BBX 7 13 0 -3
BITMAP
10
10
10
10
10
FE
FE
18
18
18
18
18
18
ENDCHAR
STARTCHAR uni2549
ENCODING 9545
SWIDTH 538 0
DWIDTH 7 0
BBX 7 13 0 -3
BITMAP
18
18
18
18
18
F8
FE
18
18
18
18
18
18
ENDCHAR
STARTCHAR uni254A
ENCODING 9546
SWIDTH 538 0
DWIDTH 7 0
BBX 7 13 0 -3
BITMAP
18
18
18
18
18
1E
FE
18
18
18
18
18
18
ENDCHAR
STARTCHAR uni254B
ENCODING 9547
SWIDTH 538 0
DWIDTH 7 0
BBX 7 13 0 -3
BITMAP
18
18
18
18
18
FE
FE
18
18
18
18
18
18
ENDCHAR
STARTCHAR uni254C
ENCODING 9548
SWIDTH 538 0
DWIDTH 7 0
BBX 7 13 0 -3
BITMAP
00
00
00
00
00
00
EE
00
00
00
00
00
00
ENDCHAR
STARTCHAR uni254D
ENCODING 9549
SWIDTH 538 0
DWIDTH 7 0
BBX 7 13 0 -3
BITMAP
00
00
00
00
00
EE
EE
00
00
00
00
00
00
ENDCHAR
STARTCHAR uni254E
ENCODING 9550
SWIDTH 538 0
DWIDTH 7 0
BBX 7 13 0 -3
BITMAP
10
10
10
10
10
10
00
10
10
10
10
10
10
ENDCHAR
STARTCHAR uni254F
ENCODING 9551
SWIDTH 538 0
DWIDTH 7 0
BBX 7 13 0 -3
BITMAP
18
18
18
18
18
18
00
18
18
18
18
18
18
ENDCHAR
STARTCHAR SF430000
ENCODING 9552
SWIDTH 538 0
DWIDTH 7 0
BBX 7 13 0 -3
BITMAP
00
00
00
00
00
FE
00
FE
00
00
00
00
00
ENDCHAR
STARTCHAR SF240000
ENCODING 9553
SWIDTH 538 0
DWIDTH 7 0
BBX 7 13 0 -3
BITMAP
28
28
28
28
28
28
28
28
28
28
28
28
28
ENDCHAR
STARTCHAR SF510000
ENCODING 9554
SWIDTH 538 0
DWIDTH 7 0
BBX 7 13 0 -3
BITMAP
00
00
00
00
00
1E
10
1E
10
10
10
10
10
ENDCHAR
STARTCHAR SF520000
ENCODING 9555
SWIDTH 538 0
DWIDTH 7 0
BBX 7 13 0 -3
BITMAP
00
00
00
00
00
00
3E
28
28
28
28
28
28
ENDCHAR
STARTCHAR SF390000
ENCODING 9556
SWIDTH 538 0
DWIDTH 7 0
BBX 7 13 0 -3
BITMAP
00
00
00
00
00
3E
20
2E
28
28
28
28
28
ENDCHAR
STARTCHAR SF220000
ENCODING 9557
SWIDTH 538 0
DWIDTH 7 0
BBX 7 13 0 -3
BITMAP
00
00
00
00
00
F0
10
F0
10
10
10
10
10
ENDCHAR
STARTCHAR SF210000
ENCODING 9558
SWIDTH 538 0
DWIDTH 7 0
BBX 7 13 0 -3
BITMAP
00
00
00
00
00
00
F8
28
28
28
28
28
28
ENDCHAR
STARTCHAR SF250000
ENCODING 9559
SWIDTH 538 0
DWIDTH 7 0
BBX 7 13 0 -3
BITMAP
00
00
00
00
00
F8
08
E8
28
28
28
28
28
ENDCHAR
STARTCHAR SF500000
ENCODING 9560
SWIDTH 538 0
DWIDTH 7 0
BBX 7 13 0 -3
BITMAP
10
10
10
10
10
1E
10
1E
00
00
00
00
00
ENDCHAR
STARTCHAR SF490000
ENCODING 9561
SWIDTH 538 0
DWIDTH 7 0
BBX 7 13 0 -3
BITMAP
28
28
28
28
28
28
3E
00
00
00
00
00
00
ENDCHAR
STARTCHAR SF380000
ENCODING 9562
SWIDTH 538 0
DWIDTH 7 0
BBX 7 13 0 -3
BITMAP
28
28
28
28
28
2E
20
3E
00
00
00
00
00
ENDCHAR
STARTCHAR SF280000
ENCODING 9563
SWIDTH 538 0
DWIDTH 7 0
BBX 7 13 0 -3
BITMAP
10
10
10
10
10
F0
10
F0
00
00
00
00
00
ENDCHAR
STARTCHAR SF270000
ENCODING 9564
SWIDTH 538 0
DWIDTH 7 0
BBX 7 13 0 -3
BITMAP
28
28
28
28
28
28
F8
00
00
00
00
00
00
ENDCHAR
STARTCHAR SF260000
ENCODING 9565
SWIDTH 538 0
DWIDTH 7 0
BBX 7 13 0 -3
BITMAP
28
28
28
28
28
E8
08
F8
00
00
00
00
00
ENDCHAR
STARTCHAR SF360000
ENCODING 9566
SWIDTH 538 0
DWIDTH 7 0
BBX 7 13 0 -3
BITMAP
10
10
10
10
10
1E
10
1E
10
10
10
10
10
ENDCHAR
STARTCHAR SF370000
ENCODING 9567
SWIDTH 538 0
DWIDTH 7 0
BBX 7 13 0 -3
BITMAP
28
28
28
28
28
28
2E
28
28
28
28
28
28
ENDCHAR
STARTCHAR SF420000
ENCODING 9568
SWIDTH 538 0
DWIDTH 7 0
BBX 7 13 0 -3
BITMAP
28
28
28
28
28
2E
20
2E
28
28
28
28
28
ENDCHAR
STARTCHAR SF190000
ENCODING 9569
SWIDTH 538 0
DWIDTH 7 0
BBX 7 13 0 -3
BITMAP
10
10
10
10
10
F0
10
F0
10
10
10
10
10
ENDCHAR
STARTCHAR SF200000
ENCODING 9570
SWIDTH 538 0
DWIDTH 7 0
BBX 7 13 0 -3
BITMAP
28
28
28
28
28
28
E8
28
28
28
28
28
28
ENDCHAR
STARTCHAR SF230000
ENCODING 9571
SWIDTH 538 0
DWIDTH 7 0
BBX 7 13 0 -3
BITMAP
28
28
28
28
28
E8
08
E8
28
28
28
28
28
ENDCHAR
STARTCHAR SF470000
ENCODING 9572
SWIDTH 538 0
DWIDTH 7 0
BBX 7 13 0 -3
BITMAP
00
00
00
00
00
FE
00
FE
10
10
10
10
10
ENDCHAR
STARTCHAR SF480000
ENCODING 9573
SWIDTH 538 0
DWIDTH 7 0
BBX 7 13 0 -3
BITMAP
00
00
00
00
00
00
FE
28
28
28
28
28
28
ENDCHAR
STARTCHAR SF410000
ENCODING 9574
SWIDTH 538 0
DWIDTH 7 0
BBX 7 13 0 -3
BITMAP
00
00
00
00
00
FE
00
EE
28
28
28
28
28
ENDCHAR
STARTCHAR SF450000
ENCODING 9575
SWIDTH 538 0
DWIDTH 7 0
BBX 7 13 0 -3
BITMAP
10
10
10
10
10
FE
00
FE
00
00
00
00
00
ENDCHAR
STARTCHAR SF460000
ENCODING 9576
SWIDTH 538 0
DWIDTH 7 0
BBX 7 13 0 -3
BITMAP
28
28
28
28
28
28
FE
00
00
00
00
00
00
ENDCHAR
STARTCHAR SF400000
ENCODING 9577
SWIDTH 538 0
DWIDTH 7 0
BBX 7 13 0 -3
BITMAP
28
28
28
28
28
EE
00
FE
00
00
00
00
00
ENDCHAR
STARTCHAR SF540000
ENCODING 9578
SWIDTH 538 0
DWIDTH 7 0
BBX 7 13 0 -3
BITMAP
10
10
10
10
10
FE
00
FE
10
10
10
10
10
ENDCHAR
STARTCHAR SF530000
ENCODING 9579
SWIDTH 538 0
DWIDTH 7 0
BBX 7 13 0 -3
BITMAP
28
28
28
28
28
28
EE
28
28
28
28
28
28
ENDCHAR
STARTCHAR SF440000
ENCODING 9580
SWIDTH 538 0
DWIDTH 7 0
BBX 7 13 0 -3
BITMAP
28
28
28
28
28
EE
00
EE
28
28
28
28
28
ENDCHAR
STARTCHAR uni256D
ENCODING 9581
SWIDTH 538 0
DWIDTH 7 0
BBX 7 13 0 -3
BITMAP
00
00
00
00
00
00
06
08
10
10
10
10
10
ENDCHAR
STARTCHAR uni256E
ENCODING 9582
SWIDTH 538 0
DWIDTH 7 0
BBX 7 13 0 -3
BITMAP
00
00
00
00
00
00
C0
20
10
10
10
10
10
ENDCHAR
STARTCHAR uni256F
ENCODING 9583
SWIDTH 538 0
DWIDTH 7 0
BBX 7 13 0 -3
BITMAP
10
10
10
10
10
20
C0
00
00
00
00
00
00
ENDCHAR
STARTCHAR uni2570
ENCODING 9584
SWIDTH 538 0
DWIDTH 7 0
BBX 7 13 0 -3
BITMAP
10
10
10
10
10
08
06
00
00
00
00
00
00
ENDCHAR
STARTCHAR uni2571
ENCODING 9585
SWIDTH 538 0
DWIDTH 7 0
BBX 7 13 0 -3
BITMAP
02
02
04
04
08
08
10
20
20
40
40
80
80
ENDCHAR
STARTCHAR uni2572
ENCODING 9586
SWIDTH 538 0
DWIDTH 7 0
BBX 7 13 0 -3
BITMAP
80
80
40
40
20
20
10
08
08
04
04
02
02
ENDCHAR
STARTCHAR uni2573
ENCODING 9587
SWIDTH 538 0
DWIDTH 7 0
BBX 7 13 0 -3
BITMAP
82
82
44
44
28
28
10
28
28
44
44
82
82
ENDCHAR
STARTCHAR uni2574
ENCODING 9588
SWIDTH 538 0
DWIDTH 7 0
BBX 7 13 0 -3
BITMAP
00
00
00
00
00
00
F0
00
00
00
00
00
00
ENDCHAR
STARTCHAR uni2575
ENCODING 9589
SWIDTH 538 0
DWIDTH 7 0
BBX 7 13 0 -3
BITMAP
10
10
10
10
10
10
10
00
00
00
00
00
00
ENDCHAR
STARTCHAR uni2576
ENCODING 9590
SWIDTH 538 0
DWIDTH 7 0
BBX 7 13 0 -3
BITMAP
00
00
00
00
00
00
1E
00
00
00
00
00
00
ENDCHAR
STARTCHAR uni2577
ENCODING 9591
SWIDTH 538 0
DWIDTH 7 0
BBX 7 13 0 -3
BITMAP
00
00
00
00
00
00
10
10
10
10
10
10
10
ENDCHAR
STARTCHAR uni2578
ENCODING 9592
SWIDTH 538 0
DWIDTH 7 0
BBX 7 13 0 -3
BITMAP
00
00
00
00
00
F0
F0
00
00
00
00
00
00
ENDCHAR
STARTCHAR uni2579
ENCODING 9593
SWIDTH 538 0
DWIDTH 7 0
BBX 7 13 0 -3
BITMAP
18
18
18
18
18
18
18
00
00
00
00
00
00
ENDCHAR
STARTCHAR uni257A
ENCODING 9594
SWIDTH 538 0
DWIDTH 7 0
BBX 7 13 0 -3
BITMAP
00
00
00
00
00
1E
1E
00
00
00
00
00
00
ENDCHAR
STARTCHAR uni257B
ENCODING 9595
SWIDTH 538 0
DWIDTH 7 0
BBX 7 13 0 -3
BITMAP
00
00
00
00
00
18
18
18
18
18
18
18
18
ENDCHAR
STARTCHAR uni257C
ENCODING 9596
SWIDTH 538 0
DWIDTH 7 0
BBX 7 13 0 -3
BITMAP
00
00
00
00
00
1E
FE
00
00
00
00
00
00
ENDCHAR
STARTCHAR uni257D
ENCODING 9597
SWIDTH 538 0
DWIDTH 7 0
BBX 7 13 0 -3
BITMAP
10
10
10
10
10
18
18
18
18
18
18
18
18
ENDCHAR
STARTCHAR uni257E
ENCODING 9598
SWIDTH 538 0
DWIDTH 7 0
BBX 7 13 0 -3
BITMAP
00
00
00
00
00
F0
FE
00
00
00
00
00
00
ENDCHAR
STARTCHAR uni257F
ENCODING 9599
SWIDTH 538 0
DWIDTH 7 0
BBX 7 13 0 -3
BITMAP
18
18
18
18
18
18
18
10
10
10
10
10
10
ENDCHAR
STARTCHAR upblock
ENCODING 9600
SWIDTH 538 0
DWIDTH 7 0
BBX 7 13 0 -3
BITMAP
FE
FE
FE
FE
FE
FE
FE
00
00
00
00
00
00
ENDCHAR
STARTCHAR uni2581
ENCODING 9601
SWIDTH 538 0
DWIDTH 7 0
BBX 7 13 0 -3
BITMAP
00
00
00
00
00
00
00
00
00
00
00
FE
FE
ENDCHAR
STARTCHAR uni2582
ENCODING 9602
SWIDTH 538 0
DWIDTH 7 0
BBX 7 13 0 -3
BITMAP
00
00
00
00
00
00
00
00
00
FE
FE
FE
FE
ENDCHAR
STARTCHAR uni2583
ENCODING 9603
SWIDTH 538 0
DWIDTH 7 0
BBX 7 13 0 -3
BITMAP
00
00
00
00
00
00
00
FE
FE
FE
FE
FE
FE
ENDCHAR
STARTCHAR dnblock
ENCODING 9604
SWIDTH 538 0
DWIDTH 7 0
BBX 7 13 0 -3
BITMAP
00
00
00
00
00
00
FE
FE
FE
FE
FE
FE
FE
ENDCHAR
STARTCHAR uni2585
ENCODING 9605
SWIDTH 538 0
DWIDTH 7 0
BBX 7 13 0 -3
BITMAP
00
00
00
00
FE
FE
FE
FE
FE
FE
FE
FE
FE
ENDCHAR
STARTCHAR uni2586
ENCODING 9606
SWIDTH 538 0
DWIDTH 7 0
BBX 7 13 0 -3
BITMAP
00
00
00
FE
FE
FE
FE
FE
FE
FE
FE
FE
FE
ENDCHAR
STARTCHAR uni2587
ENCODING 9607
SWIDTH 538 0
DWIDTH 7 0
BBX 7 13 0 -3
BITMAP
00
FE
FE
FE
FE
FE
FE
FE
FE
FE
FE
FE
FE
ENDCHAR
STARTCHAR block
ENCODING 9608
SWIDTH 538 0
DWIDTH 7 0
BBX 7 13 0 -3
BITMAP
FE
FE
FE
FE
FE
FE
FE
FE
FE
FE
FE
FE
FE
ENDCHAR
STARTCHAR uni2589
ENCODING 9609
SWIDTH 538 0
DWIDTH 7 0
BBX 7 13 0 -3
BITMAP
FC
FC
FC
FC
FC
FC
FC
FC
FC
FC
FC
FC
FC
ENDCHAR
STARTCHAR uni258A
ENCODING 9610
SWIDTH 538 0
DWIDTH 7 0
BBX 7 13 0 -3
BITMAP
F8
F8
F8
F8
F8
F8
F8
F8
F8
F8
F8
F8
F8
ENDCHAR
STARTCHAR uni258B
ENCODING 9611
SWIDTH 538 0
DWIDTH 7 0
BBX 7 13 0 -3
BITMAP
F0
F0
F0
F0
F0
F0
F0
F0
F0
F0
F0
F0
F0
ENDCHAR
STARTCHAR lfblock
ENCODING 9612
SWIDTH 538 0
DWIDTH 7 0
BBX 7 13 0 -3
BITMAP
E0
E0
E0
E0
E0
E0
E0
E0
E0
E0
E0
E0
E0
ENDCHAR
STARTCHAR uni258D
ENCODING 9613
SWIDTH 538 0
DWIDTH 7 0
BBX 7 13 0 -3
BITMAP
C0
C0
C0
C0
C0
C0
C0
C0
C0
C0
C0
C0
C0
ENDCHAR
STARTCHAR uni258E
ENCODING 9614
SWIDTH 538 0
DWIDTH 7 0
BBX 7 13 0 -3
BITMAP
80
80
80
80
80
80
80
80
80
80
80
80
80
ENDCHAR
STARTCHAR uni258F
ENCODING 9615
SWIDTH 538 0
DWIDTH 7 0
BBX 7 13 0 -3
BITMAP
80
80
80
80
80
80
80
80
80
80
80
80
80
ENDCHAR
STARTCHAR rtblock
ENCODING 9616
SWIDTH 538 0
DWIDTH 7 0
BBX 7 13 0 -3
BITMAP
0E
0E
0E
0E
0E
0E
0E
0E
0E
0E
0E
0E
0E
ENDCHAR
STARTCHAR ltshade
ENCODING 9617
SWIDTH 538 0
DWIDTH 7 0
BBX 7 13 0 -3
BITMAP
AA
00
54
00
AA
00
54
00
AA
00
54
00
AA
ENDCHAR
STARTCHAR shade
ENCODING 9618
SWIDTH 538 0
DWIDTH 7 0
BBX 7 13 0 -3
BITMAP
24
92
48
24
92
48
24
92
48
24
92
48
24
ENDCHAR
STARTCHAR dkshade
ENCODING 9619
SWIDTH 538 0
DWIDTH 7 0
BBX 7 13 0 -3
BITMAP
AA
54
AA
54
AA
54
AA
54
AA
54
AA
54
AA
ENDCHAR
STARTCHAR uni2594
ENCODING 9620
SWIDTH 538 0
DWIDTH 7 0
BBX 7 13 0 -3
BITMAP
FE
00
00
00
00
00
00
00
00
00
00
00
00
ENDCHAR
STARTCHAR uni2595
ENCODING 9621
SWIDTH 538 0
DWIDTH 7 0
BBX 7 13 0 -3
BITMAP
02
02
02
02
02
02
02
02
02
02
02
02
02
ENDCHAR
STARTCHAR filledbox
ENCODING 9632
SWIDTH 538 0
DWIDTH 7 0
BBX 7 13 0 -3
BITMAP
00
00
00
FE
FE
FE
FE
FE
FE
FE
00
00
00
ENDCHAR
STARTCHAR H22073
ENCODING 9633
SWIDTH 538 0
DWIDTH 7 0
BBX 7 13 0 -3
BITMAP
00
00
00
FE
82
82
82
82
82
FE
00
00
00
ENDCHAR
STARTCHAR uni25A2
ENCODING 9634
SWIDTH 538 0
DWIDTH 7 0
BBX 7 13 0 -3
BITMAP
00
00
00
7C
82
82
82
82
82
7C
00
00
00
ENDCHAR
STARTCHAR uni25A3
ENCODING 9635
SWIDTH 538 0
DWIDTH 7 0
BBX 7 13 0 -3
BITMAP
00
00
00
FE
82
BA
BA
BA
82
FE
00
00
00
ENDCHAR
STARTCHAR uni25A4
ENCODING 9636
SWIDTH 538 0
DWIDTH 7 0
BBX 7 13 0 -3
BITMAP
00
00
00
FE
82
FE
82
FE
82
FE
00
00
00
ENDCHAR
STARTCHAR uni25A5
ENCODING 9637
SWIDTH 538 0
DWIDTH 7 0
BBX 7 13 0 -3
BITMAP
00
00
00
FE
AA
AA
AA
AA
AA
FE
00
00
00
ENDCHAR
STARTCHAR uni25A6
ENCODING 9638
SWIDTH 538 0
DWIDTH 7 0
BBX 7 13 0 -3
BITMAP
00
00
00
FE
AA
FE
AA
FE
AA
FE
00
00
00
ENDCHAR
STARTCHAR uni25A7
ENCODING 9639
SWIDTH 538 0
DWIDTH 7 0
BBX 7 13 0 -3
BITMAP
00
00
00
FE
CA
A6
92
CA
A6
FE
00
00
00
ENDCHAR
STARTCHAR uni25A8
ENCODING 9640
SWIDTH 538 0
DWIDTH 7 0
BBX 7 13 0 -3
BITMAP
00
00
00
FE
A6
CA
92
A6
CA
FE
00
00
00
ENDCHAR
STARTCHAR uni25A9
ENCODING 9641
SWIDTH 538 0
DWIDTH 7 0
BBX 7 13 0 -3
BITMAP
00
00
00
FE
AA
D6
AA
D6
AA
FE
00
00
00
ENDCHAR
STARTCHAR H18543
ENCODING 9642
SWIDTH 538 0
DWIDTH 7 0
BBX 7 13 0 -3
BITMAP
00
00
00
38
38
38
38
38
38
00
00
00
00
ENDCHAR
STARTCHAR H18551
ENCODING 9643
SWIDTH 538 0
DWIDTH 7 0
BBX 7 13 0 -3
BITMAP
00
00
00
38
28
28
28
28
38
00
00
00
00
ENDCHAR
STARTCHAR filledrect
ENCODING 9644
SWIDTH 538 0
DWIDTH 7 0
BBX 7 13 0 -3
BITMAP
00
00
00
FE
FE
FE
FE
FE
FE
00
00
00
00
ENDCHAR
STARTCHAR uni25AD
ENCODING 9645
SWIDTH 538 0
DWIDTH 7 0
BBX 7 13 0 -3
BITMAP
00
00
00
FE
82
82
82
82
FE
00
00
00
00
ENDCHAR
STARTCHAR uni25AE
ENCODING 9646
SWIDTH 538 0
DWIDTH 7 0
BBX 7 13 0 -3
BITMAP
00
00
00
7C
7C
7C
7C
7C
7C
7C
00
00
00
ENDCHAR
STARTCHAR uni25AF
ENCODING 9647
SWIDTH 538 0
DWIDTH 7 0
BBX 7 13 0 -3
BITMAP
00
00
00
7C
44
44
44
44
44
7C
00
00
00
ENDCHAR
STARTCHAR triagup
ENCODING 9650
SWIDTH 538 0
DWIDTH 7 0
BBX 7 13 0 -3
BITMAP
00
00
00
10
38
38
7C
7C
FE
FE
00
00
00
ENDCHAR
STARTCHAR uni25B3
ENCODING 9651
SWIDTH 538 0
DWIDTH 7 0
BBX 7 13 0 -3
BITMAP
00
00
00
10
28
28
44
44
82
FE
00
00
00
ENDCHAR
STARTCHAR uni25B4
ENCODING 9652
SWIDTH 538 0
DWIDTH 7 0
BBX 7 13 0 -3
BITMAP
00
00
00
00
10
38
38
7C
7C
00
00
00
00
ENDCHAR
STARTCHAR uni25B5
ENCODING 9653
SWIDTH 538 0
DWIDTH 7 0
BBX 7 13 0 -3
BITMAP
00
00
00
00
10
28
28
44
7C
00
00
00
00
ENDCHAR
STARTCHAR uni25B6
ENCODING 9654
SWIDTH 538 0
DWIDTH 7 0
BBX 7 13 0 -3
BITMAP
00
00
00
C0
F0
FC
FE
FC
F0
C0
00
00
00
ENDCHAR
STARTCHAR uni25B7
ENCODING 9655
SWIDTH 538 0
DWIDTH 7 0
BBX 7 13 0 -3
BITMAP
00
00
00
C0
B0
8C
82
8C
B0
C0
00
00
00
ENDCHAR
STARTCHAR uni25B8
ENCODING 9656
SWIDTH 538 0
DWIDTH 7 0
BBX 7 13 0 -3
BITMAP
00
00
00
00
60
78
7C
78
60
00
00
00
00
ENDCHAR
STARTCHAR uni25B9
ENCODING 9657
SWIDTH 538 0
DWIDTH 7 0
BBX 7 13 0 -3
BITMAP
00
00
00
00
60
58
44
58
60
00
00
00
00
ENDCHAR
STARTCHAR triagrt
ENCODING 9658
SWIDTH 538 0
DWIDTH 7 0
BBX 7 13 0 -3
BITMAP
00
00
00
C0
70
3C
3E
3C
70
C0
00
00
00
ENDCHAR
STARTCHAR uni25BB
ENCODING 9659
SWIDTH 538 0
DWIDTH 7 0
BBX 7 13 0 -3
BITMAP
00
00
00
C0
70
2C
26
2C
70
C0
00
00
00
ENDCHAR
STARTCHAR triagdn
ENCODING 9660
SWIDTH 538 0
DWIDTH 7 0
BBX 7 13 0 -3
BITMAP
00
00
00
FE
FE
7C
7C
38
38
10
00
00
00
ENDCHAR
STARTCHAR uni25BD
ENCODING 9661
SWIDTH 538 0
DWIDTH 7 0
BBX 7 13 0 -3
BITMAP
00
00
00
FE
82
44
44
28
28
10
00
00
00
ENDCHAR
STARTCHAR uni25BE
ENCODING 9662
SWIDTH 538 0
DWIDTH 7 0
BBX 7 13 0 -3
BITMAP
00
00
00
00
7C
7C
38
38
10
00
00
00
00
ENDCHAR
STARTCHAR uni25BF
ENCODING 9663
SWIDTH 538 0
DWIDTH 7 0
BBX 7 13 0 -3
BITMAP
00
00
00
00
7C
44
28
28
10
00
00
00
00
ENDCHAR
STARTCHAR uni25C0
ENCODING 9664
SWIDTH 538 0
DWIDTH 7 0
BBX 7 13 0 -3
BITMAP
00
00
00
06
1E
7E
FE
7E
1E
06
00
00
00
ENDCHAR
STARTCHAR uni25C1
ENCODING 9665
SWIDTH 538 0
DWIDTH 7 0
BBX 7 13 0 -3
BITMAP
00
00
00
06
1A
62
82
62
1A
06
00
00
00
ENDCHAR
STARTCHAR uni25C2
ENCODING 9666
SWIDTH 538 0
DWIDTH 7 0
BBX 7 13 0 -3
BITMAP
00
00
00
00
0C
3C
7C
3C
0C
00
00
00
00
ENDCHAR
STARTCHAR uni25C3
ENCODING 9667
SWIDTH 538 0
DWIDTH 7 0
BBX 7 13 0 -3
BITMAP
00
00
00
00
0C
34
44
34
0C
00
00
00
00
ENDCHAR
STARTCHAR triaglf
ENCODING 9668
SWIDTH 538 0
DWIDTH 7 0
BBX 7 13 0 -3
BITMAP
00
00
00
06
1C
78
F8
78
1C
06
00
00
00
ENDCHAR
STARTCHAR uni25C5
ENCODING 9669
SWIDTH 538 0
DWIDTH 7 0
BBX 7 13 0 -3
BITMAP
00
00
00
06
1C
68
C8
68
1C
06
00
00
00
ENDCHAR
STARTCHAR uni25C6
ENCODING 9670
SWIDTH 538 0
DWIDTH 7 0
BBX 7 13 0 -3
BITMAP
00
00
00
10
38
7C
FE
7C
38
10
00
00
00
ENDCHAR
STARTCHAR uni25C7
ENCODING 9671
SWIDTH 538 0
DWIDTH 7 0
BBX 7 13 0 -3
BITMAP
00
00
00
10
28
44
82
44
28
10
00
00
00
ENDCHAR
STARTCHAR uni25C8
ENCODING 9672
SWIDTH 538 0
DWIDTH 7 0
BBX 7 13 0 -3
BITMAP
00
00
00
10
28
54
BA
54
28
10
00
00
00
ENDCHAR
STARTCHAR uni25C9
ENCODING 9673
SWIDTH 538 0
DWIDTH 7 0
BBX 7 13 0 -3
BITMAP
00
00
00
38
44
BA
BA
BA
44
38
00
00
00
ENDCHAR
STARTCHAR circle
ENCODING 9675
SWIDTH 538 0
DWIDTH 7 0
BBX 7 13 0 -3
BITMAP
00
00
00
38
44
82
92
82
44
38
00
00
00
ENDCHAR
STARTCHAR uni25CC
ENCODING 9676
SWIDTH 538 0
DWIDTH 7 0
BBX 7 13 0 -3
BITMAP
00
00
00
28
44
82
00
82
44
28
00
00
00
ENDCHAR
STARTCHAR uni25CD
ENCODING 9677
SWIDTH 538 0
DWIDTH 7 0
BBX 7 13 0 -3
BITMAP
00
00
00
38
54
D6
D6
D6
54
38
00
00
00
ENDCHAR
STARTCHAR uni25CE
ENCODING 9678
SWIDTH 538 0
DWIDTH 7 0
BBX 7 13 0 -3
BITMAP
00
00
00
38
44
BA
AA
BA
44
38
00
00
00
ENDCHAR
STARTCHAR H18533
ENCODING 9679
SWIDTH 538 0
DWIDTH 7 0
BBX 7 13 0 -3
BITMAP
00
00
00
38
7C
FE
FE
FE
7C
38
00
00
00
ENDCHAR
STARTCHAR uni25D0
ENCODING 9680
SWIDTH 538 0
DWIDTH 7 0
BBX 7 13 0 -3
BITMAP
00
00
00
38
74
F2
F2
F2
74
38
00
00
00
ENDCHAR
STARTCHAR uni25D1
ENCODING 9681
SWIDTH 538 0
DWIDTH 7 0
BBX 7 13 0 -3
BITMAP
00
00
00
38
5C
9E
9E
9E
5C
38
00
00
00
ENDCHAR
STARTCHAR uni25D2
ENCODING 9682
SWIDTH 538 0
DWIDTH 7 0
BBX 7 13 0 -3
BITMAP
00
00
00
38
44
82
FE
FE
7C
38
00
00
00
ENDCHAR
STARTCHAR uni25D3
ENCODING 9683
SWIDTH 538 0
DWIDTH 7 0
BBX 7 13 0 -3
BITMAP
00
00
00
38
7C
FE
FE
82
44
38
00
00
00
ENDCHAR
STARTCHAR uni25D4
ENCODING 9684
SWIDTH 538 0
DWIDTH 7 0
BBX 7 13 0 -3
BITMAP
00
00
00
38
5C
9E
9E
82
44
38
00
00
00
ENDCHAR
STARTCHAR uni25D5
ENCODING 9685
SWIDTH 538 0
DWIDTH 7 0
BBX 7 13 0 -3
BITMAP
00
00
00
38
4C
8E
8E
FE
7C
38
00
00
00
ENDCHAR
STARTCHAR uni25D6
ENCODING 9686
SWIDTH 538 0
DWIDTH 7 0
BBX 7 13 0 -3
BITMAP
00
00
00
30
70
F0
F0
F0
70
30
00
00
00
ENDCHAR
STARTCHAR uni25D7
ENCODING 9687
SWIDTH 538 0
DWIDTH 7 0
BBX 7 13 0 -3
BITMAP
00
00
00
18
1C
1E
1E
1E
1C
18
00
00
00
ENDCHAR
STARTCHAR uni25F4
ENCODING 9716
SWIDTH 538 0
DWIDTH 7 0
BBX 7 13 0 -3
BITMAP
00
00
00
38
54
92
F2
82
44
38
00
00
00
ENDCHAR
STARTCHAR uni25F5
ENCODING 9717
SWIDTH 538 0
DWIDTH 7 0
BBX 7 13 0 -3
BITMAP
00
00
00
38
44
82
F2
92
54
38
00
00
00
ENDCHAR
STARTCHAR uni25F6
ENCODING 9718
SWIDTH 538 0
DWIDTH 7 0
BBX 7 13 0 -3
BITMAP
00
00
00
38
44
82
9E
92
54
38
00
00
00
ENDCHAR
STARTCHAR uni25F7
ENCODING 9719
SWIDTH 538 0
DWIDTH 7 0
BBX 7 13 0 -3
BITMAP
00
00
00
38
54
92
9E
82
44
38
00
00
00
ENDCHAR
STARTCHAR uni25FB
ENCODING 9723
SWIDTH 538 0
DWIDTH 7 0
BBX 7 13 0 -3
BITMAP
00
00
00
7C
44
44
44
44
7C
00
00
00
00
ENDCHAR
STARTCHAR uni25FC
ENCODING 9724
SWIDTH 538 0
DWIDTH 7 0
BBX 7 13 0 -3
BITMAP
00
00
00
7C
7C
7C
7C
7C
7C
00
00
00
00
ENDCHAR
STARTCHAR uni2603
ENCODING 9731
SWIDTH 538 0
DWIDTH 7 0
BBX 7 13 0 -3
BITMAP
48
00
BA
38
44
54
82
82
82
7C
00
00
00
ENDCHAR
STARTCHAR uni2610
ENCODING 9744
SWIDTH 538 0
DWIDTH 7 0
BBX 7 13 0 -3
BITMAP
00
00
00
FE
82
82
82
82
82
FE
00
00
00
ENDCHAR
STARTCHAR uni2611
ENCODING 9745
SWIDTH 538 0
DWIDTH 7 0
BBX 7 13 0 -3
BITMAP
00
00
00
FE
86
8A
D2
A2
A2
FE
00
00
00
ENDCHAR
STARTCHAR uni2612
ENCODING 9746
SWIDTH 538 0
DWIDTH 7 0
BBX 7 13 0 -3
BITMAP
00
00
00
FE
C6
AA
92
AA
C6
FE
00
00
00
ENDCHAR
STARTCHAR uni2615
ENCODING 9749
SWIDTH 538 0
DWIDTH 7 0
BBX 7 13 0 -3
BITMAP
00
10
20
50
20
8C
FA
FA
FC
70
00
00
00
ENDCHAR
STARTCHAR uni2616
ENCODING 9750
SWIDTH 538 0
DWIDTH 7 0
BBX 7 13 0 -3
BITMAP
00
00
38
44
44
44
82
82
82
FE
00
00
00
ENDCHAR
STARTCHAR uni2617
ENCODING 9751
SWIDTH 538 0
DWIDTH 7 0
BBX 7 13 0 -3
BITMAP
00
00
38
7C
7C
7C
FE
FE
FE
FE
00
00
00
ENDCHAR
STARTCHAR uni2618
ENCODING 9752
SWIDTH 538 0
DWIDTH 7 0
BBX 7 13 0 -3
BITMAP
00
00
10
38
38
D6
EE
D6
10
20
00
00
00
ENDCHAR
STARTCHAR uni2619
ENCODING 9753
SWIDTH 538 0
DWIDTH 7 0
BBX 7 13 0 -3
BITMAP
40
04
24
8C
3C
74
6C
5C
78
C2
00
00
00
ENDCHAR
STARTCHAR uni262F
ENCODING 9775
SWIDTH 538 0
DWIDTH 7 0
BBX 7 13 0 -3
BITMAP
00
00
00
38
74
DA
F2
EA
64
38
00
00
00
ENDCHAR
STARTCHAR uni2630
ENCODING 9776
SWIDTH 538 0
DWIDTH 7 0
BBX 7 13 0 -3
BITMAP
00
00
FE
FE
00
FE
FE
00
FE
FE
00
00
00
ENDCHAR
STARTCHAR uni2631
ENCODING 9777
SWIDTH 538 0
DWIDTH 7 0
BBX 7 13 0 -3
BITMAP
00
00
EE
EE
00
FE
FE
00
FE
FE
00
00
00
ENDCHAR
STARTCHAR uni2632
ENCODING 9778
SWIDTH 538 0
DWIDTH 7 0
BBX 7 13 0 -3
BITMAP
00
00
FE
FE
00
EE
EE
00
FE
FE
00
00
00
ENDCHAR
STARTCHAR uni2633
ENCODING 9779
SWIDTH 538 0
DWIDTH 7 0
BBX 7 13 0 -3
BITMAP
00
00
EE
EE
00
EE
EE
00
FE
FE
00
00
00
ENDCHAR
STARTCHAR uni2634
ENCODING 9780
SWIDTH 538 0
DWIDTH 7 0
BBX 7 13 0 -3
BITMAP
00
00
FE
FE
00
FE
FE
00
EE
EE
00
00
00
ENDCHAR
STARTCHAR uni2635
ENCODING 9781
SWIDTH 538 0
DWIDTH 7 0
BBX 7 13 0 -3
BITMAP
00
00
EE
EE
00
FE
FE
00
EE
EE
00
00
00
ENDCHAR
STARTCHAR uni2636
ENCODING 9782
SWIDTH 538 0
DWIDTH 7 0
BBX 7 13 0 -3
BITMAP
00
00
FE
FE
00
EE
EE
00
EE
EE
00
00
00
ENDCHAR
STARTCHAR uni2637
ENCODING 9783
SWIDTH 538 0
DWIDTH 7 0
BBX 7 13 0 -3
BITMAP
00
00
EE
EE
00
EE
EE
00
EE
EE
00
00
00
ENDCHAR
STARTCHAR uni2638
ENCODING 9784
SWIDTH 538 0
DWIDTH 7 0
BBX 7 13 0 -3
BITMAP
00
00
00
BA
54
BA
EE
BA
54
BA
00
00
00
ENDCHAR
STARTCHAR uni2639
ENCODING 9785
SWIDTH 538 0
DWIDTH 7 0
BBX 7 13 0 -3
BITMAP
00
00
7C
82
AA
82
BA
AA
82
7C
00
00
00
ENDCHAR
STARTCHAR smileface
ENCODING 9786
SWIDTH 538 0
DWIDTH 7 0
BBX 7 13 0 -3
BITMAP
00
00
7C
82
AA
82
AA
BA
82
7C
00
00
00
ENDCHAR
STARTCHAR invsmileface
ENCODING 9787
SWIDTH 538 0
DWIDTH 7 0
BBX 7 13 0 -3
BITMAP
00
00
7C
FE
D6
FE
BA
C6
FE
7C
00
00
00
ENDCHAR
STARTCHAR sun
ENCODING 9788
SWIDTH 538 0
DWIDTH 7 0
BBX 7 13 0 -3
BITMAP
00
00
00
92
54
38
EE
38
54
92
00
00
00
ENDCHAR
STARTCHAR uni2646
ENCODING 9798
SWIDTH 538 0
DWIDTH 7 0
BBX 7 13 0 -3
BITMAP
00
10
54
D6
54
54
38
10
7C
10
10
00
00
ENDCHAR
STARTCHAR spade
ENCODING 9824
SWIDTH 538 0
DWIDTH 7 0
BBX 7 13 0 -3
BITMAP
00
00
10
38
7C
FE
FE
54
10
38
00
00
00
ENDCHAR
STARTCHAR uni2661
ENCODING 9825
SWIDTH 538 0
DWIDTH 7 0
BBX 7 13 0 -3
BITMAP
00
00
00
6C
92
82
82
44
28
10
00
00
00
ENDCHAR
STARTCHAR uni2662
ENCODING 9826
SWIDTH 538 0
DWIDTH 7 0
BBX 7 13 0 -3
BITMAP
00
00
00
10
28
44
82
44
28
10
00
00
00
ENDCHAR
STARTCHAR club
ENCODING 9827
SWIDTH 538 0
DWIDTH 7 0
BBX 7 13 0 -3
BITMAP
00
00
10
38
38
54
FE
7C
10
38
00
00
00
ENDCHAR
STARTCHAR uni2664
ENCODING 9828
SWIDTH 538 0
DWIDTH 7 0
BBX 7 13 0 -3
BITMAP
00
00
10
28
44
82
AA
54
10
38
00
00
00
ENDCHAR
STARTCHAR heart
ENCODING 9829
SWIDTH 538 0
DWIDTH 7 0
BBX 7 13 0 -3
BITMAP
00
00
00
6C
FE
FE
FE
7C
38
10
00
00
00
ENDCHAR
STARTCHAR diamond
ENCODING 9830
SWIDTH 538 0
DWIDTH 7 0
BBX 7 13 0 -3
BITMAP
00
00
00
10
38
7C
FE
7C
38
10
00
00
00
ENDCHAR
STARTCHAR uni2667
ENCODING 9831
SWIDTH 538 0
DWIDTH 7 0
BBX 7 13 0 -3
BITMAP
00
00
10
28
28
7C
92
7C
10
38
00
00
00
ENDCHAR
STARTCHAR uni2669
ENCODING 9833
SWIDTH 538 0
DWIDTH 7 0
BBX 7 13 0 -3
BITMAP
00
00
10
10
10
10
10
10
70
70
00
00
00
ENDCHAR
STARTCHAR musicalnote
ENCODING 9834
SWIDTH 538 0
DWIDTH 7 0
BBX 7 13 0 -3
BITMAP
00
00
10
18
14
14
18
10
70
70
00
00
00
ENDCHAR
STARTCHAR musicalnotedbl
ENCODING 9835
SWIDTH 538 0
DWIDTH 7 0
BBX 7 13 0 -3
BITMAP
00
00
38
26
22
22
22
E2
EE
0E
00
00
00
ENDCHAR
STARTCHAR uni266C
ENCODING 9836
SWIDTH 538 0
DWIDTH 7 0
BBX 7 13 0 -3
BITMAP
00
00
3E
22
3E
22
22
22
EE
EE
00
00
00
ENDCHAR
STARTCHAR uni266D
ENCODING 9837
SWIDTH 538 0
DWIDTH 7 0
BBX 7 13 0 -3
BITMAP
00
00
20
20
20
28
34
24
28
30
00
00
00
ENDCHAR
STARTCHAR uni266E
ENCODING 9838
SWIDTH 538 0
DWIDTH 7 0
BBX 7 13 0 -3
BITMAP
00
00
40
4C
54
64
4C
54
64
04
00
00
00
ENDCHAR
STARTCHAR uni266F
ENCODING 9839
SWIDTH 538 0
DWIDTH 7 0
BBX 7 13 0 -3
BITMAP
00
08
2C
38
28
6C
28
38
68
20
00
00
00
ENDCHAR
STARTCHAR uni2688
ENCODING 9864
SWIDTH 538 0
DWIDTH 7 0
BBX 7 13 0 -3
BITMAP
00
00
00
3C
6E
F8
F0
F8
7E
3C
00
00
00
ENDCHAR
STARTCHAR uni2697
ENCODING 9879
SWIDTH 538 0
DWIDTH 7 0
BBX 7 13 0 -3
BITMAP
00
00
7C
BA
92
7C
54
AA
82
44
00
00
00
ENDCHAR
STARTCHAR uni2699
ENCODING 9881
SWIDTH 538 0
DWIDTH 7 0
BBX 7 13 0 -3
BITMAP
00
00
00
48
3A
C4
54
46
B8
24
00
00
00
ENDCHAR
STARTCHAR uni269B
ENCODING 9883
SWIDTH 538 0
DWIDTH 7 0
BBX 7 13 0 -3
BITMAP
00
00
38
28
FE
AA
54
7C
AA
C6
00
00
00
ENDCHAR
STARTCHAR uni26A0
ENCODING 9888
SWIDTH 538 0
DWIDTH 7 0
BBX 7 13 0 -3
BITMAP
00
00
10
10
38
28
6C
7C
EE
FE
00
00
00
ENDCHAR
STARTCHAR uni26B7
ENCODING 9911
SWIDTH 538 0
DWIDTH 7 0
BBX 7 13 0 -3
BITMAP
00
10
1C
10
1C
10
38
44
44
38
00
00
00
ENDCHAR
STARTCHAR uni26C0
ENCODING 9920
SWIDTH 538 0
DWIDTH 7 0
BBX 7 13 0 -3
BITMAP
00
00
00
38
44
82
44
BA
44
38
00
00
00
ENDCHAR
STARTCHAR uni26C1
ENCODING 9921
SWIDTH 538 0
DWIDTH 7 0
BBX 7 13 0 -3
BITMAP
00
38
44
82
44
BA
44
BA
44
38
00
00
00
ENDCHAR
STARTCHAR uni26C2
ENCODING 9922
SWIDTH 538 0
DWIDTH 7 0
BBX 7 13 0 -3
BITMAP
00
00
00
38
7C
FE
7C
BA
44
38
00
00
00
ENDCHAR
STARTCHAR uni26C3
ENCODING 9923
SWIDTH 538 0
DWIDTH 7 0
BBX 7 13 0 -3
BITMAP
00
38
7C
FE
7C
BA
44
BA
44
38
00
00
00
ENDCHAR
STARTCHAR uni2700
ENCODING 9984
SWIDTH 538 0
DWIDTH 7 0
BBX 7 13 0 -3
BITMAP
00
00
44
6C
38
10
38
6C
AA
C6
00
00
00
ENDCHAR
STARTCHAR uni2708
ENCODING 9992
SWIDTH 538 0
DWIDTH 7 0
BBX 7 13 0 -3
BITMAP
00
00
00
20
90
58
7E
58
90
20
00
00
00
ENDCHAR
STARTCHAR uni2709
ENCODING 9993
SWIDTH 538 0
DWIDTH 7 0
BBX 7 13 0 -3
BITMAP
00
00
00
FE
BA
D6
EE
FE
FE
FE
00
00
00
ENDCHAR
STARTCHAR uni2713
ENCODING 10003
SWIDTH 538 0
DWIDTH 7 0
BBX 7 13 0 -3
BITMAP
00
00
00
02
04
88
58
70
20
00
00
00
00
ENDCHAR
STARTCHAR uni2714
ENCODING 10004
SWIDTH 538 0
DWIDTH 7 0
BBX 7 13 0 -3
BITMAP
00
00
02
04
0C
D8
F0
70
20
00
00
00
00
ENDCHAR
STARTCHAR uni2715
ENCODING 10005
SWIDTH 538 0
DWIDTH 7 0
BBX 7 13 0 -3
BITMAP
00
00
00
00
44
28
10
28
44
00
00
00
00
ENDCHAR
STARTCHAR uni2716
ENCODING 10006
SWIDTH 538 0
DWIDTH 7 0
BBX 7 13 0 -3
BITMAP
00
00
00
44
6C
38
38
6C
44
00
00
00
00
ENDCHAR
STARTCHAR uni2717
ENCODING 10007
SWIDTH 538 0
DWIDTH 7 0
BBX 7 13 0 -3
BITMAP
00
00
40
46
28
10
28
44
02
80
00
00
00
ENDCHAR
STARTCHAR uni2718
ENCODING 10008
SWIDTH 538 0
DWIDTH 7 0
BBX 7 13 0 -3
BITMAP
00
00
80
46
6E
38
38
6C
46
40
00
00
00
ENDCHAR
STARTCHAR uni2719
ENCODING 10009
SWIDTH 538 0
DWIDTH 7 0
BBX 7 13 0 -3
BITMAP
00
00
00
38
28
EE
82
EE
28
38
00
00
00
ENDCHAR
STARTCHAR uni271A
ENCODING 10010
SWIDTH 538 0
DWIDTH 7 0
BBX 7 13 0 -3
BITMAP
00
00
00
38
38
FE
FE
FE
38
38
00
00
00
ENDCHAR
STARTCHAR uni271C
ENCODING 10012
SWIDTH 538 0
DWIDTH 7 0
BBX 7 13 0 -3
BITMAP
00
00
00
38
38
C6
C6
C6
38
38
00
00
00
ENDCHAR
STARTCHAR uni2726
ENCODING 10022
SWIDTH 538 0
DWIDTH 7 0
BBX 7 13 0 -3
BITMAP
00
00
00
10
10
38
FE
38
10
10
00
00
00
ENDCHAR
STARTCHAR uni272D
ENCODING 10029
SWIDTH 538 0
DWIDTH 7 0
BBX 7 13 0 -3
BITMAP
00
00
10
10
38
FE
38
7C
6C
82
00
00
00
ENDCHAR
STARTCHAR uni272E
ENCODING 10030
SWIDTH 538 0
DWIDTH 7 0
BBX 7 13 0 -3
BITMAP
00
00
10
10
38
D6
38
54
6C
82
00
00
00
ENDCHAR
STARTCHAR uni2739
ENCODING 10041
SWIDTH 538 0
DWIDTH 7 0
BBX 7 13 0 -3
BITMAP
00
00
00
AA
7C
FE
7C
FE
7C
AA
00
00
00
ENDCHAR
STARTCHAR uni274E
ENCODING 10062
SWIDTH 538 0
DWIDTH 7 0
BBX 7 13 0 -3
BITMAP
00
00
00
FE
BA
D6
EE
D6
BA
FE
00
00
00
ENDCHAR
STARTCHAR uni27E4
ENCODING 10212
SWIDTH 538 0
DWIDTH 7 0
BBX 7 13 0 -3
BITMAP
02
0E
3E
FE
3E
0E
02
0E
3E
FE
3E
0E
02
ENDCHAR
STARTCHAR uni27E4
ENCODING 10213
SWIDTH 538 0
DWIDTH 7 0
BBX 7 13 0 -3
BITMAP
80
E0
F8
FE
F8
E0
80
E0
F8
FE
F8
E0
80
ENDCHAR
STARTCHAR uni27E8
ENCODING 10216
SWIDTH 538 0
DWIDTH 7 0
BBX 7 13 0 -3
BITMAP
00
08
08
10
10
20
20
20
10
10
08
08
00
ENDCHAR
STARTCHAR uni27E9
ENCODING 10217
SWIDTH 538 0
DWIDTH 7 0
BBX 7 13 0 -3
BITMAP
00
20
20
10
10
08
08
08
10
10
20
20
00
ENDCHAR
STARTCHAR uni27EA
ENCODING 10218
SWIDTH 538 0
DWIDTH 7 0
BBX 7 13 0 -3
BITMAP
00
24
24
48
48
90
90
90
48
48
24
24
00
ENDCHAR
STARTCHAR uni27EB
ENCODING 10219
SWIDTH 538 0
DWIDTH 7 0
BBX 7 13 0 -3
BITMAP
00
48
48
24
24
12
12
12
24
24
48
48
00
ENDCHAR
STARTCHAR uniD01C
ENCODING 53276
SWIDTH 538 0
DWIDTH 7 0
BBX 7 13 0 -3
BITMAP
00
00
00
00
00
00
00
00
00
00
00
00
00
ENDCHAR
STARTCHAR uniE000
ENCODING 57344
SWIDTH 538 0
DWIDTH 7 0
BBX 7 13 0 -3
BITMAP
00
00
44
FE
54
FE
44
44
82
82
82
00
00
ENDCHAR
STARTCHAR uniE001
ENCODING 57345
SWIDTH 538 0
DWIDTH 7 0
BBX 7 13 0 -3
BITMAP
00
00
20
10
7C
F2
FA
FE
7C
38
00
00
00
ENDCHAR
STARTCHAR uniE002
ENCODING 57346
SWIDTH 538 0
DWIDTH 7 0
BBX 7 13 0 -3
BITMAP
00
00
20
10
7C
82
82
82
44
38
00
00
00
ENDCHAR
STARTCHAR uniE003
ENCODING 57347
SWIDTH 538 0
DWIDTH 7 0
BBX 7 13 0 -3
BITMAP
00
00
20
10
7C
FE
DE
EE
6C
38
00
00
00
ENDCHAR
STARTCHAR uniE004
ENCODING 57348
SWIDTH 538 0
DWIDTH 7 0
BBX 7 13 0 -3
BITMAP
00
00
20
10
7C
82
82
FE
7C
38
00
00
00
ENDCHAR
STARTCHAR uniE005
ENCODING 57349
SWIDTH 538 0
DWIDTH 7 0
BBX 7 13 0 -3
BITMAP
00
08
10
28
10
44
7C
38
82
7C
00
00
00
ENDCHAR
STARTCHAR uniE006
ENCODING 57350
SWIDTH 538 0
DWIDTH 7 0
BBX 7 13 0 -3
BITMAP
00
00
7C
3E
58
14
20
20
78
FC
00
00
00
ENDCHAR
STARTCHAR uniE007
ENCODING 57351
SWIDTH 538 0
DWIDTH 7 0
BBX 7 13 0 -3
BITMAP
00
00
60
F0
50
F0
F8
FE
7C
78
30
00
00
ENDCHAR
STARTCHAR uniE008
ENCODING 57352
SWIDTH 538 0
DWIDTH 7 0
BBX 7 13 0 -3
BITMAP
00
00
20
00
6C
CE
DE
CE
6C
28
00
00
00
ENDCHAR
STARTCHAR uniE009
ENCODING 57353
SWIDTH 538 0
DWIDTH 7 0
BBX 7 13 0 -3
BITMAP
00
30
30
30
30
30
30
00
30
30
00
00
00
ENDCHAR
STARTCHAR uniE00A
ENCODING 57354
SWIDTH 538 0
DWIDTH 7 0
BBX 7 13 0 -3
BITMAP
00
00
1C
18
30
7C
98
30
20
40
00
00
00
ENDCHAR
STARTCHAR uniE00B
ENCODING 57355
SWIDTH 538 0
DWIDTH 7 0
BBX 7 13 0 -3
BITMAP
00
04
18
30
60
F8
3E
0C
18
30
40
00
00
ENDCHAR
STARTCHAR uniE00C
ENCODING 57356
SWIDTH 538 0
DWIDTH 7 0
BBX 7 13 0 -3
BITMAP
00
00
38
28
10
38
92
D6
92
7C
00
00
00
ENDCHAR
STARTCHAR uniE010
ENCODING 57360
SWIDTH 538 0
DWIDTH 7 0
BBX 7 13 0 -3
BITMAP
00
7C
7C
7C
7C
7C
7C
7C
7C
7C
7C
00
00
ENDCHAR
STARTCHAR uniE011
ENCODING 57361
SWIDTH 538 0
DWIDTH 7 0
BBX 7 13 0 -3
BITMAP
00
7C
7C
7C
7C
00
00
7C
7C
7C
7C
00
00
ENDCHAR
STARTCHAR uniE012
ENCODING 57362
SWIDTH 538 0
DWIDTH 7 0
BBX 7 13 0 -3
BITMAP
00
7C
00
00
7C
00
00
7C
7C
7C
7C
00
00
ENDCHAR
STARTCHAR uniE013
ENCODING 57363
SWIDTH 538 0
DWIDTH 7 0
BBX 7 13 0 -3
BITMAP
00
7E
7E
7E
7E
00
00
7C
7C
7C
7C
00
00
ENDCHAR
STARTCHAR uniE014
ENCODING 57364
SWIDTH 538 0
DWIDTH 7 0
BBX 7 13 0 -3
BITMAP
00
FC
FC
FC
FC
00
00
7C
7C
7C
7C
00
00
ENDCHAR
STARTCHAR uniE015
ENCODING 57365
SWIDTH 538 0
DWIDTH 7 0
BBX 7 13 0 -3
BITMAP
00
7E
7E
7E
7E
7E
00
00
06
06
06
00
00
ENDCHAR
STARTCHAR uniE016
ENCODING 57366
SWIDTH 538 0
DWIDTH 7 0
BBX 7 13 0 -3
BITMAP
00
C0
C0
C0
C0
CC
0C
0C
FC
FC
FC
00
00
ENDCHAR
STARTCHAR uniE017
ENCODING 57367
SWIDTH 538 0
DWIDTH 7 0
BBX 7 13 0 -3
BITMAP
00
7E
7E
7E
7E
7E
7E
7E
00
00
7E
00
00
ENDCHAR
STARTCHAR uniE017
ENCODING 57368
SWIDTH 538 0
DWIDTH 7 0
BBX 7 13 0 -3
BITMAP
00
FC
FC
FC
FC
FC
FC
FC
00
00
FC
00
00
ENDCHAR
STARTCHAR uniE017
ENCODING 57369
SWIDTH 538 0
DWIDTH 7 0
BBX 7 13 0 -3
BITMAP
00
7E
00
00
7E
7E
7E
7E
7E
7E
7E
00
00
ENDCHAR
STARTCHAR uniE017
ENCODING 57370
SWIDTH 538 0
DWIDTH 7 0
BBX 7 13 0 -3
BITMAP
00
FC
00
00
FC
FC
FC
FC
FC
FC
FC
00
00
ENDCHAR
STARTCHAR uniE0A0
ENCODING 57504
SWIDTH 538 0
DWIDTH 7 0
BBX 7 13 0 -3
BITMAP
60
60
60
64
6E
64
64
48
30
60
60
60
60
ENDCHAR
STARTCHAR uniE0A1
ENCODING 57505
SWIDTH 538 0
DWIDTH 7 0
BBX 7 13 0 -3
BITMAP
00
00
60
60
60
78
00
68
68
58
58
00
00
ENDCHAR
STARTCHAR uniE0A2
ENCODING 57506
SWIDTH 538 0
DWIDTH 7 0
BBX 7 13 0 -3
BITMAP
00
00
38
28
28
7C
6C
6C
7C
7C
00
00
00
ENDCHAR
STARTCHAR uniE0A3
ENCODING 57507
SWIDTH 538 0
DWIDTH 7 0
BBX 7 13 0 -3
BITMAP
00
3C
30
30
3C
00
34
34
2C
2C
00
00
00
ENDCHAR
STARTCHAR uniE0A5
ENCODING 57509
SWIDTH 538 0
DWIDTH 7 0
BBX 7 13 0 -3
BITMAP
00
00
00
FE
AA
AA
AA
FE
92
FE
00
00
00
ENDCHAR
STARTCHAR uniE0A6
ENCODING 57510
SWIDTH 538 0
DWIDTH 7 0
BBX 7 13 0 -3
BITMAP
00
00
00
FE
A2
BE
E2
BE
A2
FE
00
00
00
ENDCHAR
STARTCHAR uniE0A7
ENCODING 57511
SWIDTH 538 0
DWIDTH 7 0
BBX 7 13 0 -3
BITMAP
00
00
00
F8
88
BE
A2
E2
22
3E
00
00
00
ENDCHAR
STARTCHAR uniE0A8
ENCODING 57512
SWIDTH 538 0
DWIDTH 7 0
BBX 7 13 0 -3
BITMAP
00
00
00
EE
C6
AA
10
AA
C6
EE
00
00
00
ENDCHAR
STARTCHAR uniE0A9
ENCODING 57513
SWIDTH 538 0
DWIDTH 7 0
BBX 7 13 0 -3
BITMAP
00
00
00
F6
F6
06
C6
C0
DE
DE
00
00
00
ENDCHAR
STARTCHAR uniE0AA
ENCODING 57514
SWIDTH 538 0
DWIDTH 7 0
BBX 7 13 0 -3
BITMAP
00
00
00
FE
82
82
82
FE
8A
FE
00
00
00
ENDCHAR
STARTCHAR uniE0AB
ENCODING 57515
SWIDTH 538 0
DWIDTH 7 0
BBX 7 13 0 -3
BITMAP
00
00
00
FE
A2
A2
A2
E2
A2
FE
00
00
00
ENDCHAR
STARTCHAR uniE0AC
ENCODING 57516
SWIDTH 538 0
DWIDTH 7 0
BBX 7 13 0 -3
BITMAP
00
00
00
FE
8A
8A
8A
8E
8A
FE
00
00
00
ENDCHAR
STARTCHAR uniE0B0
ENCODING 57520
SWIDTH 538 0
DWIDTH 7 0
BBX 7 13 0 -3
BITMAP
80
C0
E0
F0
F8
FC
FE
FC
F8
F0
E0
C0
80
ENDCHAR
STARTCHAR uniE0B1
ENCODING 57521
SWIDTH 538 0
DWIDTH 7 0
BBX 7 13 0 -3
BITMAP
80
40
20
10
08
04
02
04
08
10
20
40
80
ENDCHAR
STARTCHAR uniE0B2
ENCODING 57522
SWIDTH 538 0
DWIDTH 7 0
BBX 7 13 0 -3
BITMAP
02
06
0E
1E
3E
7E
FE
7E
3E
1E
0E
06
02
ENDCHAR
STARTCHAR uniE0B3
ENCODING 57523
SWIDTH 538 0
DWIDTH 7 0
BBX 7 13 0 -3
BITMAP
02
04
08
10
20
40
80
40
20
10
08
04
02
ENDCHAR
STARTCHAR uniE0B4
ENCODING 57524
SWIDTH 538 0
DWIDTH 7 0
BBX 7 13 0 -3
BITMAP
E0
F8
FC
FC
FE
FE
FE
FE
FE
FC
FC
F8
E0
ENDCHAR
STARTCHAR uniE0B5
ENCODING 57525
SWIDTH 538 0
DWIDTH 7 0
BBX 7 13 0 -3
BITMAP
E0
38
0C
04
06
02
02
02
06
04
0C
38
E0
ENDCHAR
STARTCHAR uniE0B6
ENCODING 57526
SWIDTH 538 0
DWIDTH 7 0
BBX 7 13 0 -3
BITMAP
0E
3E
7E
7E
FE
FE
FE
FE
FE
7E
7E
3E
0E
ENDCHAR
STARTCHAR uniE0B7
ENCODING 57527
SWIDTH 538 0
DWIDTH 7 0
BBX 7 13 0 -3
BITMAP
0E
38
60
40
C0
80
80
80
C0
40
60
38
0E
ENDCHAR
STARTCHAR uniE0B8
ENCODING 57528
SWIDTH 538 0
DWIDTH 7 0
BBX 7 13 0 -3
BITMAP
80
C0
C0
E0
E0
F0
F0
F8
F8
FC
FC
FE
FE
ENDCHAR
STARTCHAR uniE0B9
ENCODING 57529
SWIDTH 538 0
DWIDTH 7 0
BBX 7 13 0 -3
BITMAP
80
80
40
40
20
20
10
08
08
04
04
02
02
ENDCHAR
STARTCHAR uniE0BA
ENCODING 57530
SWIDTH 538 0
DWIDTH 7 0
BBX 7 13 0 -3
BITMAP
02
06
06
0E
0E
1E
1E
3E
3E
7E
7E
FE
FE
ENDCHAR
STARTCHAR uniE0BB
ENCODING 57531
SWIDTH 538 0
DWIDTH 7 0
BBX 7 13 0 -3
BITMAP
02
02
04
04
08
08
10
20
20
40
40
80
80
ENDCHAR
STARTCHAR uniE0BC
ENCODING 57532
SWIDTH 538 0
DWIDTH 7 0
BBX 7 13 0 -3
BITMAP
FE
FE
FC
FC
F8
F8
F0
F0
E0
E0
C0
C0
80
ENDCHAR
STARTCHAR uniE0BD
ENCODING 57533
SWIDTH 538 0
DWIDTH 7 0
BBX 7 13 0 -3
BITMAP
02
02
04
04
08
08
10
20
20
40
40
80
80
ENDCHAR
STARTCHAR uniE0BE
ENCODING 57534
SWIDTH 538 0
DWIDTH 7 0
BBX 7 13 0 -3
BITMAP
FE
FE
7E
7E
3E
3E
1E
1E
0E
0E
06
06
02
ENDCHAR
STARTCHAR uniE0BF
ENCODING 57535
SWIDTH 538 0
DWIDTH 7 0
BBX 7 13 0 -3
BITMAP
80
80
40
40
20
20
10
08
08
04
04
02
02
ENDCHAR
STARTCHAR uniE0C0
ENCODING 57536
SWIDTH 538 0
DWIDTH 7 0
BBX 7 13 0 -3
BITMAP
D0
E8
D2
A4
D0
EA
90
E4
DA
A0
D4
EA
D0
ENDCHAR
STARTCHAR uniE0C0
ENCODING 57538
SWIDTH 538 0
DWIDTH 7 0
BBX 7 13 0 -3
BITMAP
16
2E
96
4A
16
AE
12
4E
B6
0A
56
AE
16
ENDCHAR
STARTCHAR uniE0D2
ENCODING 57554
SWIDTH 538 0
DWIDTH 7 0
BBX 7 13 0 -3
BITMAP
FE
FC
F8
F0
E0
C0
80
C0
E0
F0
F8
FC
FE
ENDCHAR
STARTCHAR uniE0D4
ENCODING 57556
SWIDTH 538 0
DWIDTH 7 0
BBX 7 13 0 -3
BITMAP
FE
7E
3E
1E
0E
06
02
06
0E
1E
3E
7E
FE
ENDCHAR
STARTCHAR uniE20F
ENCODING 57871
SWIDTH 538 0
DWIDTH 7 0
BBX 7 13 0 -3
BITMAP
00
00
30
12
B4
F8
18
3C
66
42
00
00
00
ENDCHAR
STARTCHAR uniE231
ENCODING 57905
SWIDTH 538 0
DWIDTH 7 0
BBX 7 13 0 -3
BITMAP
00
00
38
7C
54
7C
6C
38
28
82
7C
82
00
ENDCHAR
STARTCHAR uniE240
ENCODING 57920
SWIDTH 538 0
DWIDTH 7 0
BBX 7 13 0 -3
BITMAP
00
00
00
F8
AC
8E
FE
C6
C6
FE
00
00
00
ENDCHAR
STARTCHAR uniE244
ENCODING 57924
SWIDTH 538 0
DWIDTH 7 0
BBX 7 13 0 -3
BITMAP
00
00
00
7E
FE
86
96
86
AE
FC
00
00
00
ENDCHAR
STARTCHAR uniE315
ENCODING 58133
SWIDTH 538 0
DWIDTH 7 0
BBX 7 13 0 -3
BITMAP
00
1C
18
30
7E
94
28
5E
A4
08
10
00
00
ENDCHAR
STARTCHAR uniE35D
ENCODING 58205
SWIDTH 538 0
DWIDTH 7 0
BBX 7 13 0 -3
BITMAP
00
00
00
00
BA
00
D6
00
7C
00
00
00
00
ENDCHAR
STARTCHAR uniE36A
ENCODING 58218
SWIDTH 538 0
DWIDTH 7 0
BBX 7 13 0 -3
BITMAP
00
02
0C
12
3C
7A
9C
8C
88
70
00
00
00
ENDCHAR
STARTCHAR uniE36B
ENCODING 58219
SWIDTH 538 0
DWIDTH 7 0
BBX 7 13 0 -3
BITMAP
00
00
6E
9E
9E
2C
52
A2
CC
00
00
00
00
ENDCHAR
STARTCHAR uniE36C
ENCODING 58220
SWIDTH 538 0
DWIDTH 7 0
BBX 7 13 0 -3
BITMAP
00
08
16
12
7C
D6
FE
54
6C
38
00
00
00
ENDCHAR
STARTCHAR uniE36D
ENCODING 58221
SWIDTH 538 0
DWIDTH 7 0
BBX 7 13 0 -3
BITMAP
00
00
FE
FE
28
28
EE
C6
EE
FE
00
00
00
ENDCHAR
STARTCHAR uniE5FB
ENCODING 58875
SWIDTH 538 0
DWIDTH 7 0
BBX 7 13 0 -3
BITMAP
00
00
00
B0
AE
AE
DE
BE
BE
00
00
00
00
ENDCHAR
STARTCHAR uniE5FE
ENCODING 58878
SWIDTH 538 0
DWIDTH 7 0
BBX 7 13 0 -3
BITMAP
00
00
00
F0
9E
82
BE
FE
FE
00
00
00
00
ENDCHAR
STARTCHAR uniE5FF
ENCODING 58879
SWIDTH 538 0
DWIDTH 7 0
BBX 7 13 0 -3
BITMAP
00
00
00
F0
9E
FE
FE
FE
FE
00
00
00
00
ENDCHAR
STARTCHAR uniE600
ENCODING 58880
SWIDTH 538 0
DWIDTH 7 0
BBX 7 13 0 -3
BITMAP
02
04
08
08
68
28
2C
20
20
40
80
00
00
ENDCHAR
STARTCHAR uniE601
ENCODING 58881
SWIDTH 538 0
DWIDTH 7 0
BBX 7 13 0 -3
BITMAP
00
00
00
F0
00
6C
00
2E
00
74
00
00
00
ENDCHAR
STARTCHAR uniE602
ENCODING 58882
SWIDTH 538 0
DWIDTH 7 0
BBX 7 13 0 -3
BITMAP
80
C0
E0
F0
F8
FC
FE
FC
F8
F0
E0
C0
80
ENDCHAR
STARTCHAR uniE603
ENCODING 58883
SWIDTH 538 0
DWIDTH 7 0
BBX 7 13 0 -3
BITMAP
00
1C
62
82
A4
98
40
2C
30
50
60
00
00
ENDCHAR
STARTCHAR uniE604
ENCODING 58884
SWIDTH 538 0
DWIDTH 7 0
BBX 7 13 0 -3
BITMAP
00
00
00
04
1C
5A
30
B8
70
78
F0
78
00
ENDCHAR
STARTCHAR uniE605
ENCODING 58885
SWIDTH 538 0
DWIDTH 7 0
BBX 7 13 0 -3
BITMAP
00
00
00
0E
1A
36
66
DA
9E
FE
00
00
00
ENDCHAR
STARTCHAR uniE606
ENCODING 58886
SWIDTH 538 0
DWIDTH 7 0
BBX 7 13 0 -3
BITMAP
00
00
78
58
FA
F2
9E
BE
34
3C
00
00
00
ENDCHAR
STARTCHAR uniE607
ENCODING 58887
SWIDTH 538 0
DWIDTH 7 0
BBX 7 13 0 -3
BITMAP
00
C6
CC
C0
DC
FE
E6
06
86
C6
86
00
00
ENDCHAR
STARTCHAR uniE608
ENCODING 58888
SWIDTH 538 0
DWIDTH 7 0
BBX 7 13 0 -3
BITMAP
00
00
00
74
F6
AE
FE
5C
54
94
00
00
00
ENDCHAR
STARTCHAR uniE609
ENCODING 58889
SWIDTH 538 0
DWIDTH 7 0
BBX 7 13 0 -3
BITMAP
00
00
44
6C
7C
7C
FE
7C
38
10
00
00
00
ENDCHAR
STARTCHAR uniE60A
ENCODING 58890
SWIDTH 538 0
DWIDTH 7 0
BBX 7 13 0 -3
BITMAP
00
1C
22
32
6A
7C
7C
3C
66
66
42
00
00
ENDCHAR
STARTCHAR uniE60B
ENCODING 58891
SWIDTH 538 0
DWIDTH 7 0
BBX 7 13 0 -3
BITMAP
00
00
28
44
44
44
82
44
44
28
00
00
00
ENDCHAR
STARTCHAR uniE60C
ENCODING 58892
SWIDTH 538 0
DWIDTH 7 0
BBX 7 13 0 -3
BITMAP
00
00
00
26
28
28
24
22
22
CC
00
00
00
ENDCHAR
STARTCHAR uniE60D
ENCODING 58893
SWIDTH 538 0
DWIDTH 7 0
BBX 7 13 0 -3
BITMAP
00
00
00
FC
84
BE
A2
AA
FA
3E
00
00
00
ENDCHAR
STARTCHAR uniE60E
ENCODING 58894
SWIDTH 538 0
DWIDTH 7 0
BBX 7 13 0 -3
BITMAP
00
00
00
28
44
82
82
44
28
00
00
00
00
ENDCHAR
STARTCHAR uniE60F
ENCODING 58895
SWIDTH 538 0
DWIDTH 7 0
BBX 7 13 0 -3
BITMAP
00
00
00
00
00
00
BA
6C
00
00
00
00
00
ENDCHAR
STARTCHAR uniE610
ENCODING 58896
SWIDTH 538 0
DWIDTH 7 0
BBX 7 13 0 -3
BITMAP
00
40
20
20
EE
6C
7C
7C
38
38
38
00
00
ENDCHAR
STARTCHAR uniE611
ENCODING 58897
SWIDTH 538 0
DWIDTH 7 0
BBX 7 13 0 -3
BITMAP
00
00
D6
7C
7C
FE
7C
BA
FE
38
00
00
00
ENDCHAR
STARTCHAR uniE612
ENCODING 58898
SWIDTH 538 0
DWIDTH 7 0
BBX 7 13 0 -3
BITMAP
00
00
00
7C
10
D4
10
D6
00
F8
00
00
00
ENDCHAR
STARTCHAR uniE613
ENCODING 58899
SWIDTH 538 0
DWIDTH 7 0
BBX 7 13 0 -3
BITMAP
00
00
00
F0
FE
FE
FE
FE
FE
00
00
00
00
ENDCHAR
STARTCHAR uniE614
ENCODING 58900
SWIDTH 538 0
DWIDTH 7 0
BBX 7 13 0 -3
BITMAP
00
00
28
28
7C
28
28
7C
28
28
00
00
00
ENDCHAR
STARTCHAR uniE615
ENCODING 58901
SWIDTH 538 0
DWIDTH 7 0
BBX 7 13 0 -3
BITMAP
00
00
10
6C
5A
B0
B0
5A
6C
10
00
00
00
ENDCHAR
STARTCHAR uniE616
ENCODING 58902
SWIDTH 538 0
DWIDTH 7 0
BBX 7 13 0 -3
BITMAP
00
00
00
FE
82
82
8A
8A
8A
FE
00
00
00
ENDCHAR
STARTCHAR uniE617
ENCODING 58903
SWIDTH 538 0
DWIDTH 7 0
BBX 7 13 0 -3
BITMAP
00
00
10
38
7C
FE
EE
EE
EE
82
00
00
00
ENDCHAR
STARTCHAR uniE618
ENCODING 58904
SWIDTH 538 0
DWIDTH 7 0
BBX 7 13 0 -3
BITMAP
00
00
00
28
44
82
82
44
28
00
00
00
00
ENDCHAR
STARTCHAR uniE619
ENCODING 58905
SWIDTH 538 0
DWIDTH 7 0
BBX 7 13 0 -3
BITMAP
00
00
00
70
08
64
12
4A
6A
00
00
00
00
ENDCHAR
STARTCHAR uniE61A
ENCODING 58906
SWIDTH 538 0
DWIDTH 7 0
BBX 7 13 0 -3
BITMAP
00
00
72
FC
D8
FE
F2
84
58
38
00
00
00
ENDCHAR
STARTCHAR uniE61B
ENCODING 58907
SWIDTH 538 0
DWIDTH 7 0
BBX 7 13 0 -3
BITMAP
00
00
00
3C
42
7E
FE
BC
FC
3C
00
00
00
ENDCHAR
STARTCHAR uniE61C
ENCODING 58908
SWIDTH 538 0
DWIDTH 7 0
BBX 7 13 0 -3
BITMAP
00
04
08
08
18
1A
5C
3C
B8
98
98
00
00
ENDCHAR
STARTCHAR uniE61D
ENCODING 58909
SWIDTH 538 0
DWIDTH 7 0
BBX 7 13 0 -3
BITMAP
00
00
38
7C
CE
BA
B0
CA
7C
38
00
00
00
ENDCHAR
STARTCHAR uniE61E
ENCODING 58910
SWIDTH 538 0
DWIDTH 7 0
BBX 7 13 0 -3
BITMAP
00
00
38
7C
E6
DE
DE
E6
7C
38
00
00
00
ENDCHAR
STARTCHAR uniE61F
ENCODING 58911
SWIDTH 538 0
DWIDTH 7 0
BBX 7 13 0 -3
BITMAP
00
00
00
A0
56
28
2A
54
A2
00
00
00
00
ENDCHAR
STARTCHAR uniE620
ENCODING 58912
SWIDTH 538 0
DWIDTH 7 0
BBX 7 13 0 -3
BITMAP
00
00
06
76
E0
B4
BC
CC
78
00
00
00
00
ENDCHAR
STARTCHAR uniE621
ENCODING 58913
SWIDTH 538 0
DWIDTH 7 0
BBX 7 13 0 -3
BITMAP
00
10
00
10
00
10
00
10
00
10
00
10
00
ENDCHAR
STARTCHAR uniE622
ENCODING 58914
SWIDTH 538 0
DWIDTH 7 0
BBX 7 13 0 -3
BITMAP
00
00
00
00
E6
EE
FC
F8
78
7C
2E
26
00
ENDCHAR
STARTCHAR uniE623
ENCODING 58915
SWIDTH 538 0
DWIDTH 7 0
BBX 7 13 0 -3
BITMAP
00
00
10
10
38
FE
38
7C
6C
82
00
00
00
ENDCHAR
STARTCHAR uniE624
ENCODING 58916
SWIDTH 538 0
DWIDTH 7 0
BBX 7 13 0 -3
BITMAP
00
00
00
10
38
10
44
EE
44
00
00
00
00
ENDCHAR
STARTCHAR uniE625
ENCODING 58917
SWIDTH 538 0
DWIDTH 7 0
BBX 7 13 0 -3
BITMAP
00
00
00
00
6C
54
AA
AA
54
6C
00
00
00
ENDCHAR
STARTCHAR uniE626
ENCODING 58918
SWIDTH 538 0
DWIDTH 7 0
BBX 7 13 0 -3
BITMAP
00
08
38
F4
5C
7E
3C
3C
7E
7C
38
08
00
ENDCHAR
STARTCHAR uniE627
ENCODING 58919
SWIDTH 538 0
DWIDTH 7 0
BBX 7 13 0 -3
BITMAP
00
00
BA
7C
54
6C
FE
7C
7C
7C
00
00
00
ENDCHAR
STARTCHAR uniE628
ENCODING 58920
SWIDTH 538 0
DWIDTH 7 0
BBX 7 13 0 -3
BITMAP
00
00
00
00
EE
50
4C
42
5C
00
00
00
00
ENDCHAR
STARTCHAR uniE62A
ENCODING 58922
SWIDTH 538 0
DWIDTH 7 0
BBX 7 13 0 -3
BITMAP
00
00
00
0E
EE
EE
00
EE
EE
0E
00
00
00
ENDCHAR
STARTCHAR uniE62B
ENCODING 58923
SWIDTH 538 0
DWIDTH 7 0
BBX 7 13 0 -3
BITMAP
00
00
00
DE
CC
D8
F0
EE
DA
AA
00
00
00
ENDCHAR
STARTCHAR uniE62C
ENCODING 58924
SWIDTH 538 0
DWIDTH 7 0
BBX 7 13 0 -3
BITMAP
00
00
00
76
BA
D4
EE
D4
BA
7C
00
00
00
ENDCHAR
STARTCHAR uniE62D
ENCODING 58925
SWIDTH 538 0
DWIDTH 7 0
BBX 7 13 0 -3
BITMAP
00
08
18
38
3C
7C
7E
7E
5E
3C
00
00
00
ENDCHAR
STARTCHAR uniE705
ENCODING 59141
SWIDTH 538 0
DWIDTH 7 0
BBX 7 13 0 -3
BITMAP
00
38
44
92
44
BA
44
BA
44
38
00
00
00
ENDCHAR
STARTCHAR uniE706
ENCODING 59142
SWIDTH 538 0
DWIDTH 7 0
BBX 7 13 0 -3
BITMAP
00
00
7C
C6
FE
7C
82
7C
82
7C
00
00
00
ENDCHAR
STARTCHAR uniE707
ENCODING 59143
SWIDTH 538 0
DWIDTH 7 0
BBX 7 13 0 -3
BITMAP
00
00
00
44
EE
44
EE
54
38
10
00
00
00
ENDCHAR
STARTCHAR uniE70C
ENCODING 59148
SWIDTH 538 0
DWIDTH 7 0
BBX 7 13 0 -3
BITMAP
00
00
00
0C
DE
F6
A6
F6
DE
0C
00
00
00
ENDCHAR
STARTCHAR uniE70F
ENCODING 59151
SWIDTH 538 0
DWIDTH 7 0
BBX 7 13 0 -3
BITMAP
00
00
00
0E
EE
EE
00
EE
EE
0E
00
00
00
ENDCHAR
STARTCHAR uniE711
ENCODING 59153
SWIDTH 538 0
DWIDTH 7 0
BBX 7 13 0 -3
BITMAP
00
08
10
7E
FC
FC
FC
FE
7C
28
00
00
00
ENDCHAR
STARTCHAR uniE712
ENCODING 59154
SWIDTH 538 0
DWIDTH 7 0
BBX 7 13 0 -3
BITMAP
00
00
18
2C
3C
26
46
46
B4
6C
00
00
00
ENDCHAR
STARTCHAR uniE718
ENCODING 59160
SWIDTH 538 0
DWIDTH 7 0
BBX 7 13 0 -3
BITMAP
00
00
10
38
7C
EE
C6
C6
C6
82
00
00
00
ENDCHAR
STARTCHAR uniE728
ENCODING 59176
SWIDTH 538 0
DWIDTH 7 0
BBX 7 13 0 -3
BITMAP
00
00
10
BE
12
82
82
90
FA
10
00
00
00
ENDCHAR
STARTCHAR uniE729
ENCODING 59177
SWIDTH 538 0
DWIDTH 7 0
BBX 7 13 0 -3
BITMAP
00
00
00
00
00
10
EE
10
00
00
00
00
00
ENDCHAR
STARTCHAR uniE72D
ENCODING 59181
SWIDTH 538 0
DWIDTH 7 0
BBX 7 13 0 -3
BITMAP
00
00
1C
8C
B4
9E
C6
72
46
70
00
00
00
ENDCHAR
STARTCHAR uniE737
ENCODING 59191
SWIDTH 538 0
DWIDTH 7 0
BBX 7 13 0 -3
BITMAP
00
06
FE
F8
06
FE
F8
06
FE
F8
00
00
00
ENDCHAR
STARTCHAR uniE738
ENCODING 59192
SWIDTH 538 0
DWIDTH 7 0
BBX 7 13 0 -3
BITMAP
00
08
10
28
10
44
7C
38
82
7C
00
00
00
ENDCHAR
STARTCHAR uniE739
ENCODING 59193
SWIDTH 538 0
DWIDTH 7 0
BBX 7 13 0 -3
BITMAP
00
00
00
0E
1A
36
66
DA
9E
FE
00
00
00
ENDCHAR
STARTCHAR uniE73A
ENCODING 59194
SWIDTH 538 0
DWIDTH 7 0
BBX 7 13 0 -3
BITMAP
00
00
00
74
E6
BA
3E
BA
E6
74
00
00
00
ENDCHAR
STARTCHAR uniE73B
ENCODING 59195
SWIDTH 538 0
DWIDTH 7 0
BBX 7 13 0 -3
BITMAP
00
00
00
04
1C
5A
30
B8
70
78
F0
78
00
ENDCHAR
STARTCHAR uniE73C
ENCODING 59196
SWIDTH 538 0
DWIDTH 7 0
BBX 7 13 0 -3
BITMAP
00
00
78
58
FA
F2
9E
BE
34
3C
00
00
00
ENDCHAR
STARTCHAR uniE73E
ENCODING 59198
SWIDTH 538 0
DWIDTH 7 0
BBX 7 13 0 -3
BITMAP
00
00
00
00
A4
E4
E4
AE
A4
00
00
00
00
ENDCHAR
STARTCHAR uniE73F
ENCODING 59199
SWIDTH 538 0
DWIDTH 7 0
BBX 7 13 0 -3
BITMAP
00
00
E0
A0
A0
A0
AE
AA
FE
28
38
00
00
ENDCHAR
STARTCHAR uniE743
ENCODING 59203
SWIDTH 538 0
DWIDTH 7 0
BBX 7 13 0 -3
BITMAP
00
00
00
3C
BE
C2
D4
C6
EE
5C
00
00
00
ENDCHAR
STARTCHAR uniE745
ENCODING 59205
SWIDTH 538 0
DWIDTH 7 0
BBX 7 13 0 -3
BITMAP
00
00
00
A8
EC
F6
C6
F6
4C
38
00
00
00
ENDCHAR
STARTCHAR uniE755
ENCODING 59221
SWIDTH 538 0
DWIDTH 7 0
BBX 7 13 0 -3
BITMAP
00
00
00
48
A4
76
3E
9E
7C
3A
00
00
00
ENDCHAR
STARTCHAR uniE756
ENCODING 59222
SWIDTH 538 0
DWIDTH 7 0
BBX 7 13 0 -3
BITMAP
00
00
0C
08
08
6A
9C
48
28
C8
10
00
00
ENDCHAR
STARTCHAR uniE757
ENCODING 59223
SWIDTH 538 0
DWIDTH 7 0
BBX 7 13 0 -3
BITMAP
00
00
0C
08
08
6A
9C
48
28
C8
10
00
00
ENDCHAR
STARTCHAR uniE768
ENCODING 59240
SWIDTH 538 0
DWIDTH 7 0
BBX 7 13 0 -3
BITMAP
00
00
00
3C
BE
C2
D4
C6
EE
5C
00
00
00
ENDCHAR
STARTCHAR uniE769
ENCODING 59241
SWIDTH 538 0
DWIDTH 7 0
BBX 7 13 0 -3
BITMAP
00
00
18
3C
FC
FE
7E
2A
2A
68
00
00
00
ENDCHAR
STARTCHAR uniE76A
ENCODING 59242
SWIDTH 538 0
DWIDTH 7 0
BBX 7 13 0 -3
BITMAP
00
00
00
3C
BE
C2
D4
C6
EE
5C
00
00
00
ENDCHAR
STARTCHAR uniE777
ENCODING 59255
SWIDTH 538 0
DWIDTH 7 0
BBX 7 13 0 -3
BITMAP
00
00
00
A0
56
28
2A
54
A2
00
00
00
00
ENDCHAR
STARTCHAR uniE77B
ENCODING 59259
SWIDTH 538 0
DWIDTH 7 0
BBX 7 13 0 -3
BITMAP
00
C6
CC
C0
DC
FE
E6
06
86
C6
86
00
00
ENDCHAR
STARTCHAR uniE77D
ENCODING 59261
SWIDTH 538 0
DWIDTH 7 0
BBX 7 13 0 -3
BITMAP
00
00
3C
66
DA
B2
B6
9C
80
40
20
00
00
ENDCHAR
STARTCHAR uniE77F
ENCODING 59263
SWIDTH 538 0
DWIDTH 7 0
BBX 7 13 0 -3
BITMAP
00
00
00
00
26
76
DC
C8
00
00
00
00
00
ENDCHAR
STARTCHAR uniE780
ENCODING 59264
SWIDTH 538 0
DWIDTH 7 0
BBX 7 13 0 -3
BITMAP
00
10
10
38
78
DA
EE
AE
C6
44
48
00
00
ENDCHAR
STARTCHAR uniE791
ENCODING 59281
SWIDTH 538 0
DWIDTH 7 0
BBX 7 13 0 -3
BITMAP
00
00
00
0E
1A
36
66
DA
9E
FE
00
00
00
ENDCHAR
STARTCHAR uniE795
ENCODING 59285
SWIDTH 538 0
DWIDTH 7 0
BBX 7 13 0 -3
BITMAP
00
00
00
FE
BE
DE
BE
E2
FE
00
00
00
00
ENDCHAR
STARTCHAR uniE798
ENCODING 59288
SWIDTH 538 0
DWIDTH 7 0
BBX 7 13 0 -3
BITMAP
00
00
00
10
38
7C
FE
7E
3E
1C
00
00
00
ENDCHAR
STARTCHAR uniE799
ENCODING 59289
SWIDTH 538 0
DWIDTH 7 0
BBX 7 13 0 -3
BITMAP
00
00
00
DA
7E
EC
C6
6E
FC
B6
00
00
00
ENDCHAR
STARTCHAR uniE7A2
ENCODING 59298
SWIDTH 538 0
DWIDTH 7 0
BBX 7 13 0 -3
BITMAP
00
00
00
00
80
40
20
40
8E
00
00
00
00
ENDCHAR
STARTCHAR uniE7A7
ENCODING 59303
SWIDTH 538 0
DWIDTH 7 0
BBX 7 13 0 -3
BITMAP
00
00
00
10
28
54
B2
54
28
10
00
00
00
ENDCHAR
STARTCHAR uniE7A8
ENCODING 59304
SWIDTH 538 0
DWIDTH 7 0
BBX 7 13 0 -3
BITMAP
00
00
00
38
44
BA
AA
B2
AA
44
38
00
00
ENDCHAR
STARTCHAR uniE7AF
ENCODING 59311
SWIDTH 538 0
DWIDTH 7 0
BBX 7 13 0 -3
BITMAP
00
00
00
FE
8A
B6
B6
B6
8E
FE
00
00
00
ENDCHAR
STARTCHAR uniE7B1
ENCODING 59313
SWIDTH 538 0
DWIDTH 7 0
BBX 7 13 0 -3
BITMAP
00
00
00
FE
C6
92
82
9E
C2
FE
00
00
00
ENDCHAR
STARTCHAR uniE7B4
ENCODING 59316
SWIDTH 538 0
DWIDTH 7 0
BBX 7 13 0 -3
BITMAP
00
00
00
00
FE
DA
AE
8A
AA
FE
00
00
00
ENDCHAR
STARTCHAR uniE7B8
ENCODING 59320
SWIDTH 538 0
DWIDTH 7 0
BBX 7 13 0 -3
BITMAP
00
00
00
00
FE
92
96
BA
B2
FE
00
00
00
ENDCHAR
STARTCHAR uniE7BA
ENCODING 59322
SWIDTH 538 0
DWIDTH 7 0
BBX 7 13 0 -3
BITMAP
00
00
00
C6
BA
44
D6
44
BA
C6
00
00
00
ENDCHAR
STARTCHAR uniE7C4
ENCODING 59332
SWIDTH 538 0
DWIDTH 7 0
BBX 7 13 0 -3
BITMAP
00
00
04
0C
3C
74
6C
5C
78
C0
00
00
00
ENDCHAR
STARTCHAR uniE7C5
ENCODING 59333
SWIDTH 538 0
DWIDTH 7 0
BBX 7 13 0 -3
BITMAP
00
00
00
DE
CC
D8
F0
EE
DA
AA
00
00
00
ENDCHAR
STARTCHAR uniF000
ENCODING 61440
SWIDTH 538 0
DWIDTH 7 0
BBX 7 13 0 -3
BITMAP
00
00
3E
3E
22
22
22
22
EE
EE
00
00
00
ENDCHAR
STARTCHAR uniF001
ENCODING 61441
SWIDTH 538 0
DWIDTH 7 0
BBX 7 13 0 -3
BITMAP
00
00
3E
3E
22
22
22
22
EE
EE
00
00
00
ENDCHAR
STARTCHAR uniF002
ENCODING 61442
SWIDTH 538 0
DWIDTH 7 0
BBX 7 13 0 -3
BITMAP
00
00
0E
3E
32
22
22
26
6E
E4
40
00
00
ENDCHAR
STARTCHAR uniF003
ENCODING 61443
SWIDTH 538 0
DWIDTH 7 0
BBX 7 13 0 -3
BITMAP
00
00
0E
3E
32
22
22
26
6E
E4
40
00
00
ENDCHAR
STARTCHAR uniF008
ENCODING 61448
SWIDTH 538 0
DWIDTH 7 0
BBX 7 13 0 -3
BITMAP
00
00
00
FE
44
C6
7C
C6
44
FE
00
00
00
ENDCHAR
STARTCHAR uniF00B
ENCODING 61451
SWIDTH 538 0
DWIDTH 7 0
BBX 7 13 0 -3
BITMAP
00
00
00
00
DE
00
DE
00
DE
00
00
00
00
ENDCHAR
STARTCHAR uniF00C
ENCODING 61452
SWIDTH 538 0
DWIDTH 7 0
BBX 7 13 0 -3
BITMAP
00
00
02
04
0C
D8
F0
70
20
00
00
00
00
ENDCHAR
STARTCHAR uniF00D
ENCODING 61453
SWIDTH 538 0
DWIDTH 7 0
BBX 7 13 0 -3
BITMAP
00
00
00
EE
EE
FE
38
FE
EE
EE
00
00
00
ENDCHAR
STARTCHAR uniF013
ENCODING 61459
SWIDTH 538 0
DWIDTH 7 0
BBX 7 13 0 -3
BITMAP
00
00
00
28
38
FE
6C
FE
38
28
00
00
00
ENDCHAR
STARTCHAR uniF015
ENCODING 61461
SWIDTH 538 0
DWIDTH 7 0
BBX 7 13 0 -3
BITMAP
00
00
00
14
3C
7C
FE
54
74
74
00
00
00
ENDCHAR
STARTCHAR uniF017
ENCODING 61463
SWIDTH 538 0
DWIDTH 7 0
BBX 7 13 0 -3
BITMAP
00
00
00
38
54
92
9A
82
44
38
00
00
00
ENDCHAR
STARTCHAR uniF01A
ENCODING 61466
SWIDTH 538 0
DWIDTH 7 0
BBX 7 13 0 -3
BITMAP
00
00
00
38
6C
EE
AA
C6
6C
38
00
00
00
ENDCHAR
STARTCHAR uniF01B
ENCODING 61467
SWIDTH 538 0
DWIDTH 7 0
BBX 7 13 0 -3
BITMAP
00
00
00
38
6C
C6
AA
EE
6C
38
00
00
00
ENDCHAR
STARTCHAR uniF01C
ENCODING 61468
SWIDTH 538 0
DWIDTH 7 0
BBX 7 13 0 -3
BITMAP
00
00
00
38
44
82
C6
FE
FE
00
00
00
00
ENDCHAR
STARTCHAR uniF023
ENCODING 61475
SWIDTH 538 0
DWIDTH 7 0
BBX 7 13 0 -3
BITMAP
00
38
44
44
44
FE
EE
EE
FE
FE
00
00
00
ENDCHAR
STARTCHAR uniF025
ENCODING 61477
SWIDTH 538 0
DWIDTH 7 0
BBX 7 13 0 -3
BITMAP
00
00
38
44
82
AA
EE
EE
EE
28
00
00
00
ENDCHAR
STARTCHAR uniF026
ENCODING 61478
SWIDTH 538 0
DWIDTH 7 0
BBX 7 13 0 -3
BITMAP
00
00
00
20
60
E0
E0
E0
60
20
00
00
00
ENDCHAR
STARTCHAR uniF027
ENCODING 61479
SWIDTH 538 0
DWIDTH 7 0
BBX 7 13 0 -3
BITMAP
00
00
00
20
68
E8
E8
E8
68
20
00
00
00
ENDCHAR
STARTCHAR uniF028
ENCODING 61480
SWIDTH 538 0
DWIDTH 7 0
BBX 7 13 0 -3
BITMAP
00
00
04
22
6A
EA
EA
EA
6A
22
04
00
00
ENDCHAR
STARTCHAR char61481
ENCODING 61481
SWIDTH 538 0
DWIDTH 7 0
BBX 7 13 0 -3
BITMAP
00
00
04
22
66
EA
DA
AA
6A
A2
04
00
00
ENDCHAR
STARTCHAR uniF02B
ENCODING 61483
SWIDTH 538 0
DWIDTH 7 0
BBX 7 13 0 -3
BITMAP
00
00
00
E0
B0
F8
7C
3E
1C
08
00
00
00
ENDCHAR
STARTCHAR uniF02D
ENCODING 61485
SWIDTH 538 0
DWIDTH 7 0
BBX 7 13 0 -3
BITMAP
00
00
00
7E
4A
7A
FA
F4
F4
FC
00
00
00
ENDCHAR
STARTCHAR uniF048
ENCODING 61512
SWIDTH 538 0
DWIDTH 7 0
BBX 7 13 0 -3
BITMAP
00
00
00
C2
C6
CE
CE
CE
C6
C2
00
00
00
ENDCHAR
STARTCHAR uniF049
ENCODING 61513
SWIDTH 538 0
DWIDTH 7 0
BBX 7 13 0 -3
BITMAP
00
00
00
92
B6
FE
FE
FE
B6
92
00
00
00
ENDCHAR
STARTCHAR uniF04A
ENCODING 61514
SWIDTH 538 0
DWIDTH 7 0
BBX 7 13 0 -3
BITMAP
00
00
00
22
66
EE
EE
EE
66
22
00
00
00
ENDCHAR
STARTCHAR uniF04B
ENCODING 61515
SWIDTH 538 0
DWIDTH 7 0
BBX 7 13 0 -3
BITMAP
00
00
00
C0
F0
FC
FE
FC
F0
C0
00
00
00
ENDCHAR
STARTCHAR uniF04C
ENCODING 61516
SWIDTH 538 0
DWIDTH 7 0
BBX 7 13 0 -3
BITMAP
00
00
00
C6
C6
C6
C6
C6
C6
C6
00
00
00
ENDCHAR
STARTCHAR uniF04D
ENCODING 61517
SWIDTH 538 0
DWIDTH 7 0
BBX 7 13 0 -3
BITMAP
00
00
00
FE
FE
FE
FE
FE
FE
FE
00
00
00
ENDCHAR
STARTCHAR uniF04E
ENCODING 61518
SWIDTH 538 0
DWIDTH 7 0
BBX 7 13 0 -3
BITMAP
00
00
00
88
CC
EE
EE
EE
CC
88
00
00
00
ENDCHAR
STARTCHAR uniF050
ENCODING 61520
SWIDTH 538 0
DWIDTH 7 0
BBX 7 13 0 -3
BITMAP
00
00
00
92
DA
FE
FE
FE
DA
92
00
00
00
ENDCHAR
STARTCHAR uniF051
ENCODING 61521
SWIDTH 538 0
DWIDTH 7 0
BBX 7 13 0 -3
BITMAP
00
00
00
86
C6
E6
E6
E6
C6
86
00
00
00
ENDCHAR
STARTCHAR uniF052
ENCODING 61522
SWIDTH 538 0
DWIDTH 7 0
BBX 7 13 0 -3
BITMAP
00
00
00
38
7C
FE
00
00
FE
FE
00
00
00
ENDCHAR
STARTCHAR uniF055
ENCODING 61525
SWIDTH 538 0
DWIDTH 7 0
BBX 7 13 0 -3
BITMAP
00
00
00
38
6C
EE
82
EE
6C
38
00
00
00
ENDCHAR
STARTCHAR uniF056
ENCODING 61526
SWIDTH 538 0
DWIDTH 7 0
BBX 7 13 0 -3
BITMAP
00
00
00
38
7C
FE
82
FE
7C
38
00
00
00
ENDCHAR
STARTCHAR uniF057
ENCODING 61527
SWIDTH 538 0
DWIDTH 7 0
BBX 7 13 0 -3
BITMAP
00
00
00
38
7C
D6
EE
D6
7C
38
00
00
00
ENDCHAR
STARTCHAR uniF058
ENCODING 61528
SWIDTH 538 0
DWIDTH 7 0
BBX 7 13 0 -3
BITMAP
00
00
00
38
7C
FA
96
C6
6C
38
00
00
00
ENDCHAR
STARTCHAR uniF059
ENCODING 61529
SWIDTH 538 0
DWIDTH 7 0
BBX 7 13 0 -3
BITMAP
00
00
00
38
44
B6
EE
FE
6C
38
00
00
00
ENDCHAR
STARTCHAR uniF05A
ENCODING 61530
SWIDTH 538 0
DWIDTH 7 0
BBX 7 13 0 -3
BITMAP
00
00
00
38
6C
FE
CE
EE
44
38
00
00
00
ENDCHAR
STARTCHAR uniF06A
ENCODING 61546
SWIDTH 538 0
DWIDTH 7 0
BBX 7 13 0 -3
BITMAP
00
00
00
38
6C
EE
EE
FE
6C
38
00
00
00
ENDCHAR
STARTCHAR uniF073
ENCODING 61555
SWIDTH 538 0
DWIDTH 7 0
BBX 7 13 0 -3
BITMAP
00
00
00
44
FE
FE
AA
FE
AA
FE
00
00
00
ENDCHAR
STARTCHAR uniF074
ENCODING 61556
SWIDTH 538 0
DWIDTH 7 0
BBX 7 13 0 -3
BITMAP
00
00
08
8C
5E
74
20
74
5E
8C
08
00
00
ENDCHAR
STARTCHAR uniF075
ENCODING 61557
SWIDTH 538 0
DWIDTH 7 0
BBX 7 13 0 -3
BITMAP
00
00
00
7C
FE
FE
FE
7C
18
10
20
00
00
ENDCHAR
STARTCHAR uniF07B
ENCODING 61563
SWIDTH 538 0
DWIDTH 7 0
BBX 7 13 0 -3
BITMAP
00
00
00
F0
9E
FE
FE
FE
FE
00
00
00
00
ENDCHAR
STARTCHAR uniF07C
ENCODING 61564
SWIDTH 538 0
DWIDTH 7 0
BBX 7 13 0 -3
BITMAP
00
00
00
F0
9E
82
BE
FE
FE
00
00
00
00
ENDCHAR
STARTCHAR uniF080
ENCODING 61568
SWIDTH 538 0
DWIDTH 7 0
BBX 7 13 0 -3
BITMAP
00
00
00
88
8A
AA
AA
AA
80
FE
00
00
00
ENDCHAR
STARTCHAR uniF084
ENCODING 61572
SWIDTH 538 0
DWIDTH 7 0
BBX 7 13 0 -3
BITMAP
00
00
00
70
98
B8
F8
7C
0E
06
00
00
00
ENDCHAR
STARTCHAR uniF09C
ENCODING 61596
SWIDTH 538 0
DWIDTH 7 0
BBX 7 13 0 -3
BITMAP
00
0C
12
12
12
F8
D8
D8
F8
F8
00
00
00
ENDCHAR
STARTCHAR uniF0A0
ENCODING 61600
SWIDTH 538 0
DWIDTH 7 0
BBX 7 13 0 -3
BITMAP
00
00
00
00
38
44
FE
EA
FE
00
00
00
00
ENDCHAR
STARTCHAR uniF0A2
ENCODING 61602
SWIDTH 538 0
DWIDTH 7 0
BBX 7 13 0 -3
BITMAP
00
00
10
38
44
44
44
82
FE
10
00
00
00
ENDCHAR
STARTCHAR uniF0A3
ENCODING 61603
SWIDTH 538 0
DWIDTH 7 0
BBX 7 13 0 -3
BITMAP
00
00
00
14
A0
3C
BA
78
0A
50
00
00
00
ENDCHAR
STARTCHAR uniF0AC
ENCODING 61612
SWIDTH 538 0
DWIDTH 7 0
BBX 7 13 0 -3
BITMAP
00
00
00
38
74
FA
B2
92
4C
38
00
00
00
ENDCHAR
STARTCHAR uniF0AE
ENCODING 61614
SWIDTH 538 0
DWIDTH 7 0
BBX 7 13 0 -3
BITMAP
FE
FA
FE
00
FE
E2
FE
00
FE
F2
FE
00
00
ENDCHAR
STARTCHAR uniF0C3
ENCODING 61635
SWIDTH 538 0
DWIDTH 7 0
BBX 7 13 0 -3
BITMAP
00
00
7C
28
28
28
44
7C
FE
FE
00
00
00
ENDCHAR
STARTCHAR uniF0C5
ENCODING 61637
SWIDTH 538 0
DWIDTH 7 0
BBX 7 13 0 -3
BITMAP
00
00
78
C8
9E
B2
A2
E2
22
3E
00
00
00
ENDCHAR
STARTCHAR uniF0E4
ENCODING 61668
SWIDTH 538 0
DWIDTH 7 0
BBX 7 13 0 -3
BITMAP
00
00
00
00
38
54
FE
BA
F6
6C
00
00
00
ENDCHAR
STARTCHAR uniF0F3
ENCODING 61683
SWIDTH 538 0
DWIDTH 7 0
BBX 7 13 0 -3
BITMAP
00
00
10
38
7C
7C
7C
FE
FE
10
00
00
00
ENDCHAR
STARTCHAR uniF0FD
ENCODING 61693
SWIDTH 538 0
DWIDTH 7 0
BBX 7 13 0 -3
BITMAP
00
00
00
FE
92
92
82
92
92
FE
00
00
00
ENDCHAR
STARTCHAR uniF108
ENCODING 61704
SWIDTH 538 0
DWIDTH 7 0
BBX 7 13 0 -3
BITMAP
00
00
00
FE
82
82
82
FE
FE
38
00
00
00
ENDCHAR
STARTCHAR uniF113
ENCODING 61715
SWIDTH 538 0
DWIDTH 7 0
BBX 7 13 0 -3
BITMAP
00
00
00
00
82
FE
FE
C6
AA
7C
00
00
00
ENDCHAR
STARTCHAR uniF114
ENCODING 61716
SWIDTH 538 0
DWIDTH 7 0
BBX 7 13 0 -3
BITMAP
00
00
00
F0
9E
82
82
82
FE
00
00
00
00
ENDCHAR
STARTCHAR uniF115
ENCODING 61717
SWIDTH 538 0
DWIDTH 7 0
BBX 7 13 0 -3
BITMAP
00
00
00
F0
9E
82
BE
C2
FE
00
00
00
00
ENDCHAR
STARTCHAR uniF11C
ENCODING 61724
SWIDTH 538 0
DWIDTH 7 0
BBX 7 13 0 -3
BITMAP
00
00
00
00
BA
00
D6
00
7C
00
00
00
00
ENDCHAR
STARTCHAR uniF120
ENCODING 61728
SWIDTH 538 0
DWIDTH 7 0
BBX 7 13 0 -3
BITMAP
00
00
00
00
80
40
20
40
8E
00
00
00
00
ENDCHAR
STARTCHAR uniF124
ENCODING 61732
SWIDTH 538 0
DWIDTH 7 0
BBX 7 13 0 -3
BITMAP
00
00
00
E6
C8
A4
10
4E
A8
8A
00
00
00
ENDCHAR
STARTCHAR uniF126
ENCODING 61734
SWIDTH 538 0
DWIDTH 7 0
BBX 7 13 0 -3
BITMAP
00
40
A0
44
4A
44
58
60
60
A0
40
00
00
ENDCHAR
STARTCHAR uniF128
ENCODING 61736
SWIDTH 538 0
DWIDTH 7 0
BBX 7 13 0 -3
BITMAP
00
00
30
76
5E
3A
26
24
00
24
00
00
00
ENDCHAR
STARTCHAR uniF130
ENCODING 61744
SWIDTH 538 0
DWIDTH 7 0
BBX 7 13 0 -3
BITMAP
00
10
38
38
BA
BA
54
38
10
38
00
00
00
ENDCHAR
STARTCHAR uniF131
ENCODING 61745
SWIDTH 538 0
DWIDTH 7 0
BBX 7 13 0 -3
BITMAP
00
10
3A
3C
BA
BA
74
78
90
38
00
00
00
ENDCHAR
STARTCHAR uniF133
ENCODING 61747
SWIDTH 538 0
DWIDTH 7 0
BBX 7 13 0 -3
BITMAP
00
00
00
44
BA
FE
82
82
82
FE
00
00
00
ENDCHAR
STARTCHAR uniF155
ENCODING 61781
SWIDTH 538 0
DWIDTH 7 0
BBX 7 13 0 -3
BITMAP
00
00
18
3C
66
60
3C
06
66
3C
18
00
00
ENDCHAR
STARTCHAR uniF160
ENCODING 61792
SWIDTH 538 0
DWIDTH 7 0
BBX 7 13 0 -3
BITMAP
00
00
42
A0
4A
00
2A
00
AA
AA
00
00
00
ENDCHAR
STARTCHAR uniF161
ENCODING 61793
SWIDTH 538 0
DWIDTH 7 0
BBX 7 13 0 -3
BITMAP
00
00
42
E2
4A
0A
2A
2A
AA
AA
00
00
00
ENDCHAR
STARTCHAR uniF16B
ENCODING 61803
SWIDTH 538 0
DWIDTH 7 0
BBX 7 13 0 -3
BITMAP
00
00
00
44
EE
44
EE
54
38
10
00
00
00
ENDCHAR
STARTCHAR uniF179
ENCODING 61817
SWIDTH 538 0
DWIDTH 7 0
BBX 7 13 0 -3
BITMAP
00
08
10
7E
FC
FC
FC
FE
7C
28
00
00
00
ENDCHAR
STARTCHAR uniF17A
ENCODING 61818
SWIDTH 538 0
DWIDTH 7 0
BBX 7 13 0 -3
BITMAP
00
00
00
0E
EE
EE
00
EE
EE
0E
00
00
00
ENDCHAR
STARTCHAR uniF17B
ENCODING 61819
SWIDTH 538 0
DWIDTH 7 0
BBX 7 13 0 -3
BITMAP
00
44
38
54
7C
00
BA
BA
7C
7C
28
00
00
ENDCHAR
STARTCHAR uniF17C
ENCODING 61820
SWIDTH 538 0
DWIDTH 7 0
BBX 7 13 0 -3
BITMAP
00
00
18
2C
3C
26
46
46
B4
6C
00
00
00
ENDCHAR
STARTCHAR uniF185
ENCODING 61829
SWIDTH 538 0
DWIDTH 7 0
BBX 7 13 0 -3
BITMAP
00
00
00
28
BA
6C
C6
6C
BA
28
00
00
00
ENDCHAR
STARTCHAR uniF187
ENCODING 61831
SWIDTH 538 0
DWIDTH 7 0
BBX 7 13 0 -3
BITMAP
00
00
00
5E
EE
DE
EE
DE
EC
00
00
00
00
ENDCHAR
STARTCHAR uniF188
ENCODING 61832
SWIDTH 538 0
DWIDTH 7 0
BBX 7 13 0 -3
BITMAP
00
00
00
6C
BA
7C
BA
BA
44
44
00
00
00
ENDCHAR
STARTCHAR uniF198
ENCODING 61848
SWIDTH 538 0
DWIDTH 7 0
BBX 7 13 0 -3
BITMAP
00
00
00
10
5C
78
EE
3C
74
10
00
00
00
ENDCHAR
STARTCHAR uniF1B6
ENCODING 61878
SWIDTH 538 0
DWIDTH 7 0
BBX 7 13 0 -3
BITMAP
00
00
00
0C
12
9E
DC
F8
68
48
30
00
00
ENDCHAR
STARTCHAR uniF1B7
ENCODING 61879
SWIDTH 538 0
DWIDTH 7 0
BBX 7 13 0 -3
BITMAP
00
00
00
FE
F6
EA
62
06
AE
DE
FE
00
00
ENDCHAR
STARTCHAR uniF1BB
ENCODING 61883
SWIDTH 538 0
DWIDTH 7 0
BBX 7 13 0 -3
BITMAP
00
00
10
38
10
38
7C
38
7C
FE
10
10
00
ENDCHAR
STARTCHAR uniF1BD
ENCODING 61885
SWIDTH 538 0
DWIDTH 7 0
BBX 7 13 0 -3
BITMAP
00
0C
0C
FC
F8
38
70
7E
FE
C0
C0
00
00
ENDCHAR
STARTCHAR uniF1C0
ENCODING 61888
SWIDTH 538 0
DWIDTH 7 0
BBX 7 13 0 -3
BITMAP
00
38
7C
FE
7C
BA
44
BA
44
38
00
00
00
ENDCHAR
STARTCHAR uniF1C1
ENCODING 61889
SWIDTH 538 0
DWIDTH 7 0
BBX 7 13 0 -3
BITMAP
00
38
7C
EE
7C
BA
44
BA
44
38
00
00
00
ENDCHAR
STARTCHAR uniF1C2
ENCODING 61890
SWIDTH 538 0
DWIDTH 7 0
BBX 7 13 0 -3
BITMAP
00
38
6C
C6
6C
BA
44
BA
44
38
00
00
00
ENDCHAR
STARTCHAR uniF1C3
ENCODING 61891
SWIDTH 538 0
DWIDTH 7 0
BBX 7 13 0 -3
BITMAP
00
38
44
92
44
BA
44
BA
44
38
00
00
00
ENDCHAR
STARTCHAR uniF1D3
ENCODING 61907
SWIDTH 538 0
DWIDTH 7 0
BBX 7 13 0 -3
BITMAP
00
00
00
04
0E
04
54
C4
D4
54
40
80
00
ENDCHAR
STARTCHAR uniF1E6
ENCODING 61926
SWIDTH 538 0
DWIDTH 7 0
BBX 7 13 0 -3
BITMAP
00
28
28
28
7C
7C
7C
38
10
14
08
00
00
ENDCHAR
STARTCHAR uniF1EA
ENCODING 61930
SWIDTH 538 0
DWIDTH 7 0
BBX 7 13 0 -3
BITMAP
00
00
7C
82
AE
A2
AE
A2
92
7C
00
00
00
ENDCHAR
STARTCHAR uniF1EB
ENCODING 61931
SWIDTH 538 0
DWIDTH 7 0
BBX 7 13 0 -3
BITMAP
00
00
00
00
7C
82
38
44
10
00
00
00
00
ENDCHAR
STARTCHAR uniF1F6
ENCODING 61942
SWIDTH 538 0
DWIDTH 7 0
BBX 7 13 0 -3
BITMAP
00
00
10
3A
74
6C
5C
BE
7E
90
00
00
00
ENDCHAR
STARTCHAR uniF1F7
ENCODING 61943
SWIDTH 538 0
DWIDTH 7 0
BBX 7 13 0 -3
BITMAP
00
00
10
3A
44
4C
54
A2
7E
90
00
00
00
ENDCHAR
STARTCHAR uniF1FE
ENCODING 61950
SWIDTH 538 0
DWIDTH 7 0
BBX 7 13 0 -3
BITMAP
00
00
00
80
80
90
AA
C4
80
FE
00
00
00
ENDCHAR
STARTCHAR uniF200
ENCODING 61952
SWIDTH 538 0
DWIDTH 7 0
BBX 7 13 0 -3
BITMAP
00
00
00
0C
6E
EE
E0
E6
F2
78
00
00
00
ENDCHAR
STARTCHAR uniF201
ENCODING 61953
SWIDTH 538 0
DWIDTH 7 0
BBX 7 13 0 -3
BITMAP
00
00
00
80
8E
86
AA
D0
80
FE
00
00
00
ENDCHAR
STARTCHAR uniF219
ENCODING 61977
SWIDTH 538 0
DWIDTH 7 0
BBX 7 13 0 -3
BITMAP
00
00
00
00
7C
FA
FE
7C
38
10
00
00
00
ENDCHAR
STARTCHAR uniF21E
ENCODING 61982
SWIDTH 538 0
DWIDTH 7 0
BBX 7 13 0 -3
BITMAP
00
00
00
6C
FE
D2
AE
6C
38
10
00
00
00
ENDCHAR
STARTCHAR uniF240
ENCODING 62016
SWIDTH 538 0
DWIDTH 7 0
BBX 7 13 0 -3
BITMAP
00
38
FE
82
BA
BA
BA
BA
82
FE
00
00
00
ENDCHAR
STARTCHAR uniF241
ENCODING 62017
SWIDTH 538 0
DWIDTH 7 0
BBX 7 13 0 -3
BITMAP
00
38
FE
82
82
BA
BA
BA
82
FE
00
00
00
ENDCHAR
STARTCHAR uniF242
ENCODING 62018
SWIDTH 538 0
DWIDTH 7 0
BBX 7 13 0 -3
BITMAP
00
38
FE
82
82
82
BA
BA
82
FE
00
00
00
ENDCHAR
STARTCHAR uniF243
ENCODING 62019
SWIDTH 538 0
DWIDTH 7 0
BBX 7 13 0 -3
BITMAP
00
38
FE
82
82
82
82
BA
82
FE
00
00
00
ENDCHAR
STARTCHAR uniF244
ENCODING 62020
SWIDTH 538 0
DWIDTH 7 0
BBX 7 13 0 -3
BITMAP
00
38
FE
82
82
82
82
82
82
FE
00
00
00
ENDCHAR
STARTCHAR uniF250
ENCODING 62032
SWIDTH 538 0
DWIDTH 7 0
BBX 7 13 0 -3
BITMAP
00
FE
82
82
54
28
44
92
92
FE
00
00
00
ENDCHAR
STARTCHAR uniF251
ENCODING 62033
SWIDTH 538 0
DWIDTH 7 0
BBX 7 13 0 -3
BITMAP
00
FE
82
FE
7C
38
54
82
92
FE
00
00
00
ENDCHAR
STARTCHAR uniF252
ENCODING 62034
SWIDTH 538 0
DWIDTH 7 0
BBX 7 13 0 -3
BITMAP
00
FE
82
EE
7C
38
54
92
BA
FE
00
00
00
ENDCHAR
STARTCHAR uniF253
ENCODING 62035
SWIDTH 538 0
DWIDTH 7 0
BBX 7 13 0 -3
BITMAP
00
FE
82
82
54
28
54
BA
FE
FE
00
00
00
ENDCHAR
STARTCHAR uniF254
ENCODING 62036
SWIDTH 538 0
DWIDTH 7 0
BBX 7 13 0 -3
BITMAP
00
FE
EE
FE
7C
38
54
BA
FE
FE
00
00
00
ENDCHAR
STARTCHAR uniF268
ENCODING 62056
SWIDTH 538 0
DWIDTH 7 0
BBX 7 13 0 -3
BITMAP
00
00
00
3C
BE
C2
D4
C6
EE
5C
00
00
00
ENDCHAR
STARTCHAR uniF269
ENCODING 62057
SWIDTH 538 0
DWIDTH 7 0
BBX 7 13 0 -3
BITMAP
00
00
00
A8
EC
F6
C6
F6
4C
38
00
00
00
ENDCHAR
STARTCHAR uniF26A
ENCODING 62058
SWIDTH 538 0
DWIDTH 7 0
BBX 7 13 0 -3
BITMAP
00
00
00
38
64
DE
CE
DE
64
38
00
00
00
ENDCHAR
STARTCHAR uniF270
ENCODING 62064
SWIDTH 538 0
DWIDTH 7 0
BBX 7 13 0 -3
BITMAP
00
00
00
30
48
38
48
48
38
86
7A
00
00
ENDCHAR
STARTCHAR uniF285
ENCODING 62085
SWIDTH 538 0
DWIDTH 7 0
BBX 7 13 0 -3
BITMAP
00
00
00
D2
3A
6C
C6
6C
B8
96
00
00
00
ENDCHAR
STARTCHAR uniF286
ENCODING 62086
SWIDTH 538 0
DWIDTH 7 0
BBX 7 13 0 -3
BITMAP
00
00
28
28
BA
AA
FE
FE
EE
EE
00
00
00
ENDCHAR
STARTCHAR uniF296
ENCODING 62102
SWIDTH 538 0
DWIDTH 7 0
BBX 7 13 0 -3
BITMAP
00
00
00
44
44
EE
92
D6
54
28
10
00
00
ENDCHAR
STARTCHAR uniF2C7
ENCODING 62151
SWIDTH 538 0
DWIDTH 7 0
BBX 7 13 0 -3
BITMAP
00
00
20
06
4E
1C
78
F0
F0
60
00
00
00
ENDCHAR
STARTCHAR uniF2C8
ENCODING 62152
SWIDTH 538 0
DWIDTH 7 0
BBX 7 13 0 -3
BITMAP
00
00
20
06
4A
1C
78
F0
F0
60
00
00
00
ENDCHAR
STARTCHAR uniF2C9
ENCODING 62153
SWIDTH 538 0
DWIDTH 7 0
BBX 7 13 0 -3
BITMAP
00
00
20
06
4A
14
78
F0
F0
60
00
00
00
ENDCHAR
STARTCHAR uniF2CA
ENCODING 62154
SWIDTH 538 0
DWIDTH 7 0
BBX 7 13 0 -3
BITMAP
00
00
20
06
4A
14
68
F0
F0
60
00
00
00
ENDCHAR
STARTCHAR uniF2CB
ENCODING 62155
SWIDTH 538 0
DWIDTH 7 0
BBX 7 13 0 -3
BITMAP
00
00
20
06
4A
14
68
D0
F0
60
00
00
00
ENDCHAR
STARTCHAR uniF2CC
ENCODING 62156
SWIDTH 538 0
DWIDTH 7 0
BBX 7 13 0 -3
BITMAP
00
00
20
06
4A
14
68
90
90
60
00
00
00
ENDCHAR
STARTCHAR uniF2DA
ENCODING 62170
SWIDTH 538 0
DWIDTH 7 0
BBX 7 13 0 -3
BITMAP
00
00
00
D6
82
38
BA
38
82
D6
00
00
00
ENDCHAR
STARTCHAR uniF2DB
ENCODING 62171
SWIDTH 538 0
DWIDTH 7 0
BBX 7 13 0 -3
BITMAP
00
00
00
AA
00
FE
FE
FE
00
AA
00
00
00
ENDCHAR
STARTCHAR uniF2EC
ENCODING 62188
SWIDTH 538 0
DWIDTH 7 0
BBX 7 13 0 -3
BITMAP
00
00
00
00
00
00
00
00
00
00
00
00
00
ENDCHAR
STARTCHAR uniF300
ENCODING 62208
SWIDTH 538 0
DWIDTH 7 0
BBX 7 13 0 -3
BITMAP
00
00
00
38
7C
D6
AA
FE
7C
38
00
00
00
ENDCHAR
STARTCHAR uniF301
ENCODING 62209
SWIDTH 538 0
DWIDTH 7 0
BBX 7 13 0 -3
BITMAP
00
00
00
38
64
FA
BA
BE
4C
38
00
00
00
ENDCHAR
STARTCHAR uniF303
ENCODING 62211
SWIDTH 538 0
DWIDTH 7 0
BBX 7 13 0 -3
BITMAP
00
00
10
10
38
38
7C
6C
EE
82
00
00
00
ENDCHAR
STARTCHAR uniF306
ENCODING 62214
SWIDTH 538 0
DWIDTH 7 0
BBX 7 13 0 -3
BITMAP
00
00
3C
66
DA
B2
B6
9C
80
40
20
00
00
ENDCHAR
STARTCHAR uniF30A
ENCODING 62218
SWIDTH 538 0
DWIDTH 7 0
BBX 7 13 0 -3
BITMAP
00
7C
F2
EE
EE
C6
EE
EE
9E
FC
00
00
00
ENDCHAR
STARTCHAR char62219
ENCODING 62219
SWIDTH 538 0
DWIDTH 7 0
BBX 7 13 0 -3
BITMAP
00
00
00
38
04
B2
FE
9A
40
38
00
00
00
ENDCHAR
STARTCHAR uniF30C
ENCODING 62220
SWIDTH 538 0
DWIDTH 7 0
BBX 7 13 0 -3
BITMAP
00
02
02
B4
74
FA
FE
FE
7C
38
00
00
00
ENDCHAR
STARTCHAR uniF30D
ENCODING 62221
SWIDTH 538 0
DWIDTH 7 0
BBX 7 13 0 -3
BITMAP
00
00
38
7C
EE
E6
7E
3E
7C
F8
E0
00
00
ENDCHAR
STARTCHAR uniF30E
ENCODING 62222
SWIDTH 538 0
DWIDTH 7 0
BBX 7 13 0 -3
BITMAP
00
00
00
00
FC
82
D2
5A
42
3E
00
00
00
ENDCHAR
STARTCHAR uniF310
ENCODING 62224
SWIDTH 538 0
DWIDTH 7 0
BBX 7 13 0 -3
BITMAP
10
08
20
08
10
44
BA
82
82
44
38
00
00
ENDCHAR
STARTCHAR uniF312
ENCODING 62226
SWIDTH 538 0
DWIDTH 7 0
BBX 7 13 0 -3
BITMAP
00
00
00
00
F6
F6
C6
D6
D6
D6
00
00
00
ENDCHAR
STARTCHAR uniF313
ENCODING 62227
SWIDTH 538 0
DWIDTH 7 0
BBX 7 13 0 -3
BITMAP
00
10
00
DA
B4
BA
00
62
94
92
64
00
00
ENDCHAR
STARTCHAR uniF314
ENCODING 62228
SWIDTH 538 0
DWIDTH 7 0
BBX 7 13 0 -3
BITMAP
00
00
00
00
78
7C
FA
DE
E0
BE
00
00
00
ENDCHAR
STARTCHAR uniF317
ENCODING 62231
SWIDTH 538 0
DWIDTH 7 0
BBX 7 13 0 -3
BITMAP
00
00
00
7C
EE
FE
AA
C6
EE
7C
00
00
00
ENDCHAR
STARTCHAR uniF318
ENCODING 62232
SWIDTH 538 0
DWIDTH 7 0
BBX 7 13 0 -3
BITMAP
00
00
00
1C
20
18
04
38
80
FE
00
00
00
ENDCHAR
STARTCHAR uniF319
ENCODING 62233
SWIDTH 538 0
DWIDTH 7 0
BBX 7 13 0 -3
BITMAP
00
00
00
1C
20
18
04
38
80
FE
00
00
00
ENDCHAR
STARTCHAR uniF31B
ENCODING 62235
SWIDTH 538 0
DWIDTH 7 0
BBX 7 13 0 -3
BITMAP
00
00
06
3E
66
C2
C2
66
3E
06
00
00
00
ENDCHAR
STARTCHAR uniF31C
ENCODING 62236
SWIDTH 538 0
DWIDTH 7 0
BBX 7 13 0 -3
BITMAP
00
00
00
74
E6
BA
3E
BA
E6
74
00
00
00
ENDCHAR
STARTCHAR uniF401
ENCODING 62465
SWIDTH 538 0
DWIDTH 7 0
BBX 7 13 0 -3
BITMAP
00
7E
C2
DA
C2
DA
C2
FE
B2
7E
30
20
00
ENDCHAR
STARTCHAR uniF42B
ENCODING 62507
SWIDTH 538 0
DWIDTH 7 0
BBX 7 13 0 -3
BITMAP
00
00
00
00
EE
EE
EE
44
EE
EE
00
00
00
ENDCHAR
STARTCHAR uniF447
ENCODING 62535
SWIDTH 538 0
DWIDTH 7 0
BBX 7 13 0 -3
BITMAP
00
00
00
00
F2
F6
FE
FE
F6
F2
00
00
00
ENDCHAR
STARTCHAR uniF461
ENCODING 62561
SWIDTH 538 0
DWIDTH 7 0
BBX 7 13 0 -3
BITMAP
00
FE
EE
82
C6
C6
BA
FE
EE
C6
82
00
00
ENDCHAR
STARTCHAR uniF464
ENCODING 62564
SWIDTH 538 0
DWIDTH 7 0
BBX 7 13 0 -3
BITMAP
00
00
20
78
24
82
9A
92
44
38
00
00
00
ENDCHAR
STARTCHAR uniF482
ENCODING 62594
SWIDTH 538 0
DWIDTH 7 0
BBX 7 13 0 -3
BITMAP
00
00
00
F0
9E
F6
82
F6
FE
00
00
00
00
ENDCHAR
STARTCHAR uniF489
ENCODING 62601
SWIDTH 538 0
DWIDTH 7 0
BBX 7 13 0 -3
BITMAP
00
00
00
FE
BE
DE
BE
E2
FE
00
00
00
00
ENDCHAR
STARTCHAR uniF498
ENCODING 62616
SWIDTH 538 0
DWIDTH 7 0
BBX 7 13 0 -3
BITMAP
00
00
00
F0
DE
DE
8E
DE
FE
00
00
00
00
ENDCHAR
STARTCHAR uniF49B
ENCODING 62619
SWIDTH 538 0
DWIDTH 7 0
BBX 7 13 0 -3
BITMAP
00
00
38
38
44
92
9A
82
44
38
38
00
00
ENDCHAR
STARTCHAR uniF4A0
ENCODING 62624
SWIDTH 538 0
DWIDTH 7 0
BBX 7 13 0 -3
BITMAP
00
00
08
18
B6
E0
5E
00
7E
00
00
00
00
ENDCHAR
STARTCHAR uniF578
ENCODING 62840
SWIDTH 538 0
DWIDTH 7 0
BBX 7 13 0 -3
BITMAP
38
38
7C
7C
7C
7C
7C
7C
7C
7C
7C
00
00
ENDCHAR
STARTCHAR uniF579
ENCODING 62841
SWIDTH 538 0
DWIDTH 7 0
BBX 7 13 0 -3
BITMAP
38
28
44
44
44
44
44
44
44
44
7C
00
00
ENDCHAR
STARTCHAR uniF57A
ENCODING 62842
SWIDTH 538 0
DWIDTH 7 0
BBX 7 13 0 -3
BITMAP
38
28
44
44
44
44
44
44
44
7C
7C
00
00
ENDCHAR
STARTCHAR uniF57B
ENCODING 62843
SWIDTH 538 0
DWIDTH 7 0
BBX 7 13 0 -3
BITMAP
38
28
44
44
44
44
44
44
7C
7C
7C
00
00
ENDCHAR
STARTCHAR uniF57C
ENCODING 62844
SWIDTH 538 0
DWIDTH 7 0
BBX 7 13 0 -3
BITMAP
38
28
44
44
44
44
44
7C
7C
7C
7C
00
00
ENDCHAR
STARTCHAR uniF57D
ENCODING 62845
SWIDTH 538 0
DWIDTH 7 0
BBX 7 13 0 -3
BITMAP
38
28
44
44
44
44
7C
7C
7C
7C
7C
00
00
ENDCHAR
STARTCHAR uniF57E
ENCODING 62846
SWIDTH 538 0
DWIDTH 7 0
BBX 7 13 0 -3
BITMAP
38
28
44
44
44
7C
7C
7C
7C
7C
7C
00
00
ENDCHAR
STARTCHAR uniF57F
ENCODING 62847
SWIDTH 538 0
DWIDTH 7 0
BBX 7 13 0 -3
BITMAP
38
28
44
44
7C
7C
7C
7C
7C
7C
7C
00
00
ENDCHAR
STARTCHAR uniF580
ENCODING 62848
SWIDTH 538 0
DWIDTH 7 0
BBX 7 13 0 -3
BITMAP
38
28
44
7C
7C
7C
7C
7C
7C
7C
7C
00
00
ENDCHAR
STARTCHAR uniF581
ENCODING 62849
SWIDTH 538 0
DWIDTH 7 0
BBX 7 13 0 -3
BITMAP
38
28
7C
7C
7C
7C
7C
7C
7C
7C
7C
00
00
ENDCHAR
STARTCHAR uniF582
ENCODING 62850
SWIDTH 538 0
DWIDTH 7 0
BBX 7 13 0 -3
BITMAP
38
38
7C
6C
6C
6C
6C
7C
7C
6C
7C
00
00
ENDCHAR
STARTCHAR uniF583
ENCODING 62851
SWIDTH 538 0
DWIDTH 7 0
BBX 7 13 0 -3
BITMAP
38
38
7C
74
6C
5C
44
74
6C
5C
7C
00
00
ENDCHAR
STARTCHAR uniF584
ENCODING 62852
SWIDTH 538 0
DWIDTH 7 0
BBX 7 13 0 -3
BITMAP
00
40
E2
E4
E8
EE
E2
E4
E8
E0
00
00
00
ENDCHAR
STARTCHAR uniF585
ENCODING 62853
SWIDTH 538 0
DWIDTH 7 0
BBX 7 13 0 -3
BITMAP
00
40
A2
A4
A8
AE
A2
A4
E8
E0
00
00
00
ENDCHAR
STARTCHAR uniF586
ENCODING 62854
SWIDTH 538 0
DWIDTH 7 0
BBX 7 13 0 -3
BITMAP
00
40
A2
A4
A8
AE
A2
E4
E8
E0
00
00
00
ENDCHAR
STARTCHAR uniF587
ENCODING 62855
SWIDTH 538 0
DWIDTH 7 0
BBX 7 13 0 -3
BITMAP
00
40
A2
A4
A8
AE
E2
E4
E8
E0
00
00
00
ENDCHAR
STARTCHAR uniF588
ENCODING 62856
SWIDTH 538 0
DWIDTH 7 0
BBX 7 13 0 -3
BITMAP
00
40
A2
A4
A8
EE
E2
E4
E8
E0
00
00
00
ENDCHAR
STARTCHAR uniF589
ENCODING 62857
SWIDTH 538 0
DWIDTH 7 0
BBX 7 13 0 -3
BITMAP
00
40
A2
A4
E8
EE
E2
E4
E8
E0
00
00
00
ENDCHAR
STARTCHAR uniF58A
ENCODING 62858
SWIDTH 538 0
DWIDTH 7 0
BBX 7 13 0 -3
BITMAP
00
40
A2
E4
E8
EE
E2
E4
E8
E0
00
00
00
ENDCHAR
STARTCHAR uniF58B
ENCODING 62859
SWIDTH 538 0
DWIDTH 7 0
BBX 7 13 0 -3
BITMAP
38
38
7C
7C
7C
7C
44
7C
7C
7C
7C
00
00
ENDCHAR
STARTCHAR uniF58C
ENCODING 62860
SWIDTH 538 0
DWIDTH 7 0
BBX 7 13 0 -3
BITMAP
00
40
A0
A0
A0
A0
EE
E0
E0
E0
00
00
00
ENDCHAR
STARTCHAR uniF58D
ENCODING 62861
SWIDTH 538 0
DWIDTH 7 0
BBX 7 13 0 -3
BITMAP
38
38
7C
7C
7C
7C
7C
7C
7C
7C
7C
00
00
ENDCHAR
STARTCHAR uniF58E
ENCODING 62862
SWIDTH 538 0
DWIDTH 7 0
BBX 7 13 0 -3
BITMAP
38
38
7C
7C
7C
6C
44
6C
7C
7C
7C
00
00
ENDCHAR
STARTCHAR uniF58F
ENCODING 62863
SWIDTH 538 0
DWIDTH 7 0
BBX 7 13 0 -3
BITMAP
00
40
A0
A0
A0
A4
EE
E4
E0
E0
00
00
00
ENDCHAR
STARTCHAR uniF590
ENCODING 62864
SWIDTH 538 0
DWIDTH 7 0
BBX 7 13 0 -3
BITMAP
38
38
6C
54
74
6C
6C
7C
7C
6C
7C
00
00
ENDCHAR
STARTCHAR uniF6FF
ENCODING 63231
SWIDTH 538 0
DWIDTH 7 0
BBX 7 13 0 -3
BITMAP
00
00
00
FE
C6
82
82
82
AA
FE
00
00
00
ENDCHAR
STARTCHAR uniF7CA
ENCODING 63434
SWIDTH 538 0
DWIDTH 7 0
BBX 7 13 0 -3
BITMAP
00
00
00
00
38
44
44
6C
6C
00
00
00
00
ENDCHAR
STARTCHAR uniF7CB
ENCODING 63435
SWIDTH 538 0
DWIDTH 7 0
BBX 7 13 0 -3
BITMAP
00
00
00
FE
C6
BA
BA
92
92
FE
00
00
00
ENDCHAR
STARTCHAR uniF7CC
ENCODING 63436
SWIDTH 538 0
DWIDTH 7 0
BBX 7 13 0 -3
BITMAP
00
00
00
00
38
44
44
6C
6C
00
54
00
00
ENDCHAR
STARTCHAR uniF7CD
ENCODING 63437
SWIDTH 538 0
DWIDTH 7 0
BBX 7 13 0 -3
BITMAP
00
00
00
00
38
44
44
6C
6C
04
18
00
00
ENDCHAR
STARTCHAR uniF7CF
ENCODING 63439
SWIDTH 538 0
DWIDTH 7 0
BBX 7 13 0 -3
BITMAP
00
00
00
00
3A
44
4C
5C
6C
64
98
00
00
ENDCHAR
STARTCHAR uniF80A
ENCODING 63498
SWIDTH 538 0
DWIDTH 7 0
BBX 7 13 0 -3
BITMAP
00
00
00
70
98
B8
F8
7C
0E
06
00
00
00
ENDCHAR
STARTCHAR uniF81A
ENCODING 63514
SWIDTH 538 0
DWIDTH 7 0
BBX 7 13 0 -3
BITMAP
00
00
40
A0
8A
9E
84
9E
8A
A0
40
00
00
ENDCHAR
STARTCHAR uniF81F
ENCODING 63519
SWIDTH 538 0
DWIDTH 7 0
BBX 7 13 0 -3
BITMAP
00
00
78
58
FA
F2
9E
BE
34
3C
00
00
00
ENDCHAR
STARTCHAR uniF820
ENCODING 63520
SWIDTH 538 0
DWIDTH 7 0
BBX 7 13 0 -3
BITMAP
00
00
00
00
6A
9A
9A
E6
82
8C
00
00
00
ENDCHAR
STARTCHAR uniFC5B
ENCODING 64603
SWIDTH 538 0
DWIDTH 7 0
BBX 7 13 0 -3
BITMAP
00
00
00
20
60
E4
EE
E4
60
20
00
00
00
ENDCHAR
STARTCHAR uniFC5C
ENCODING 64604
SWIDTH 538 0
DWIDTH 7 0
BBX 7 13 0 -3
BITMAP
00
00
00
20
60
E0
EE
E0
60
20
00
00
00
ENDCHAR
STARTCHAR uniFC5D
ENCODING 64605
SWIDTH 538 0
DWIDTH 7 0
BBX 7 13 0 -3
BITMAP
00
00
00
22
64
E8
D0
A0
60
A0
00
00
00
ENDCHAR
STARTCHAR uniFAA8
ENCODING 64606
SWIDTH 538 0
DWIDTH 7 0
BBX 7 13 0 -3
BITMAP
00
00
00
00
7C
82
38
44
00
38
00
00
00
ENDCHAR
STARTCHAR uniFAA9
ENCODING 64607
SWIDTH 538 0
DWIDTH 7 0
BBX 7 13 0 -3
BITMAP
00
00
00
02
7C
8A
38
64
40
B8
00
00
00
ENDCHAR
STARTCHAR uniFCCC
ENCODING 64716
SWIDTH 538 0
DWIDTH 7 0
BBX 7 13 0 -3
BITMAP
00
00
00
02
3C
4C
54
6C
6C
80
00
00
00
ENDCHAR
STARTCHAR uniFD03
ENCODING 64771
SWIDTH 538 0
DWIDTH 7 0
BBX 7 13 0 -3
BITMAP
00
00
00
30
68
6C
EC
CE
C6
1E
00
00
00
ENDCHAR
STARTCHAR uniFD05
ENCODING 64773
SWIDTH 538 0
DWIDTH 7 0
BBX 7 13 0 -3
BITMAP
00
40
E4
E2
EA
EA
EA
E2
E4
E0
00
00
00
ENDCHAR
STARTCHAR uniFD06
ENCODING 64774
SWIDTH 538 0
DWIDTH 7 0
BBX 7 13 0 -3
BITMAP
00
40
A4
A2
AA
AA
AA
A2
E4
E0
00
00
00
ENDCHAR
STARTCHAR uniFD07
ENCODING 64775
SWIDTH 538 0
DWIDTH 7 0
BBX 7 13 0 -3
BITMAP
00
40
A4
A2
AA
AA
AA
A2
E4
E0
00
00
00
ENDCHAR
STARTCHAR uniFD08
ENCODING 64776
SWIDTH 538 0
DWIDTH 7 0
BBX 7 13 0 -3
BITMAP
00
40
A4
A2
AA
AA
AA
E2
E4
E0
00
00
00
ENDCHAR
STARTCHAR uniFD09
ENCODING 64777
SWIDTH 538 0
DWIDTH 7 0
BBX 7 13 0 -3
BITMAP
00
40
A4
A2
AA
AA
AA
E2
E4
E0
00
00
00
ENDCHAR
STARTCHAR uniFD0A
ENCODING 64778
SWIDTH 538 0
DWIDTH 7 0
BBX 7 13 0 -3
BITMAP
00
40
A4
A2
AA
AA
EA
E2
E4
E0
00
00
00
ENDCHAR
STARTCHAR uniFD0B
ENCODING 64779
SWIDTH 538 0
DWIDTH 7 0
BBX 7 13 0 -3
BITMAP
00
40
A4
A2
AA
AA
EA
E2
E4
E0
00
00
00
ENDCHAR
STARTCHAR uniFD0C
ENCODING 64780
SWIDTH 538 0
DWIDTH 7 0
BBX 7 13 0 -3
BITMAP
00
40
A4
A2
AA
EA
EA
E2
E4
E0
00
00
00
ENDCHAR
STARTCHAR uniFD0D
ENCODING 64781
SWIDTH 538 0
DWIDTH 7 0
BBX 7 13 0 -3
BITMAP
00
40
A4
A2
AA
EA
EA
E2
E4
E0
00
00
00
ENDCHAR
STARTCHAR uniFD0E
ENCODING 64782
SWIDTH 538 0
DWIDTH 7 0
BBX 7 13 0 -3
BITMAP
00
40
A4
A2
EA
EA
EA
E2
E4
E0
00
00
00
ENDCHAR
STARTCHAR uniFD0F
ENCODING 64783
SWIDTH 538 0
DWIDTH 7 0
BBX 7 13 0 -3
BITMAP
00
40
A4
A2
AA
AA
EA
A2
A4
E0
00
00
00
ENDCHAR
STARTCHAR uniFD10
ENCODING 64784
SWIDTH 538 0
DWIDTH 7 0
BBX 7 13 0 -3
BITMAP
00
40
A4
A2
AA
AA
AA
A2
A4
E0
00
00
00
ENDCHAR
STARTCHAR uniFD42
ENCODING 64834
SWIDTH 538 0
DWIDTH 7 0
BBX 7 13 0 -3
BITMAP
00
00
00
AA
AA
AA
92
44
28
10
00
00
00
ENDCHAR
ENDFONT
